<?xml version="1.0" encoding="utf-8"?>
<!-- Generator: Adobe Illustrator 24.2.3, SVG Export Plug-In . SVG Version: 6.00 Build 0)  -->
<svg version="1.1" id="Слой_2" xmlns="http://www.w3.org/2000/svg" xmlns:xlink="http://www.w3.org/1999/xlink" x="0px" y="0px"
	 viewBox="0 0 3545 1627.7" style="enable-background:new 0 0 3545 1627.7;" xml:space="preserve">
<style type="text/css">
	.st0{opacity:0.28;fill:#EBF3FA;enable-background:new    ;}
	.st1{fill:#263252;}
	.st2{fill:#764938;}
	.st3{fill:#FF8E4B;}
	.st4{fill:#003B72;}
	.st5{fill:#0C3563;}
	.st6{fill:#0D458D;}
	.st7{fill:#A2CDFC;}
	.st8{fill:#FFB079;}
	.st9{fill:#004D99;}
	.st10{fill:#003261;}
	.st11{fill:#039DAE;}
	.st12{fill:#21B7C0;}
	.st13{fill:#885739;}
	.st14{fill:#FF7E1C;}
	.st15{fill:#FF973D;}
	.st16{fill:#5D3A21;}
	.st17{fill:#2776CE;}
	.st18{fill:#E8F1F8;}
	.st19{fill:#FA9960;}
	.st20{fill:#E25345;}
	.st21{fill:#C33F3B;}
	.st22{fill:#D04339;}
	.st23{fill:#EB8D5A;}
	.st24{fill:#469DF0;}
	.st25{fill:#FFFFFF;}
	.st26{fill:#00448C;}
	.st27{fill:#F3C6A6;}
	.st28{fill:#D49D7A;}
	.st29{fill:#2C3A64;}
	.st30{fill:#2B478B;}
	.st31{fill:#233862;}
	.st32{fill:#F99746;}
	.st33{fill:#573325;}
	.st34{fill:#ED7D2B;}
</style>
<g>
	<path class="st0" d="M405.8,1626.8c0,0-639.6-435.8-312.8-927c277-416.3,773.5-310.2,1033.9-137.4
		c110.9,73.6,432,191.6,704.5-241.5c336.7-535.1,1608-420.1,1373.5,489c-113.5,440,521.9,378,288,817.8L405.8,1626.8z"/>
	<g>
		<path class="st1" d="M3221,1627H317.4c-1.8,0-3.2-1.5-3.2-3.2v-1.6c0-1.8,1.5-3.2,3.2-3.2H3221c1.8,0,3.2,1.5,3.2,3.2v1.6
			C3224.2,1625.5,3222.7,1627,3221,1627z"/>
		<g>
			<path class="st2" d="M1001.8,836.8l2,13.7c0,0,0.9,0,2.5-0.1c5-0.3,17.1-1,30.7-2.5c20.6-2,45-5.6,54.7-11.6
				c14.8-9,39.1-36.7,54.9-64.4c0.4-0.7,0.8-1.3,1.1-2c8.2-14.7,14-29.3,14.5-40.9c0.3-7.1-0.4-13.2-1.9-18.5
				c-1.9-7-5.1-12.5-8.4-16.7c-0.4-0.7-0.9-1.4-1.6-1.9c-5.4-6.4-10.7-9.2-10.7-9.2c-2.7-1.1-5.6,0.2-8.7,3.5v0.1
				c-2.5,2.6-5.2,6.5-7.8,11.5c-0.1,0.1-0.2,0.2-0.2,0.3c-0.6,1-1.1,2.1-1.8,3.4c-0.2,0.2-0.3,0.6-0.4,0.8c-1.2,2.6-2.5,5.3-3.7,8.1
				c-13.9,30.3-28.7,76.1-41,89.8c-5.3,5.9-29.6,17.4-48.9,26C1013,832.3,1001.8,836.8,1001.8,836.8z"/>
			<g>
				<path class="st3" d="M935.9,1090.7l9.7,7.9c0,0,26.5-9.5,32.5,22c0,0,1.6,13.4-6.9,13.4c-8.5,0-5-1.5-17-1.1
					c-12,0.4-22-6-23.8-15.8l-5.8-8.3L935.9,1090.7z"/>
				<path class="st4" d="M934.8,1107.6c7.7-8.1,7.1-14,7.1-14s-89.5-73.3-98.6-79.2c-6.2-4.1-72.1-62.5-102.9-98.1
					c-15.3-17.7-34.2-10.8-55.9-4.6l-17.8,5.1c-21.5,6.2-27.1,36.3-9.5,50.9c49.8,41.2,132.6,87.6,148.1,97.3
					c38.5,24.2,113.7,52.9,113.7,52.9S928.1,1114.5,934.8,1107.6z"/>
			</g>
			<path class="st5" d="M1036.9,1557.8c0,0,21.7,16.3,55,7.7c0,0,26.8-6.1,32.7,7.3c0,0-41.2,20.9-51.6,26.6
				c-7.9,4.3-16,11.1-21.8,16.4c-4.6,4.2-11.7,3.6-15.6-1.2c-1.8-2.2-3.9-4.9-6.2-8c-6.3-8.6-21.1-36.4-21.1-36.4L1036.9,1557.8z"/>
			<path class="st6" d="M1049.7,1549.5c0,0-13.2,30.5-43.8,24.9c0,0-62.3-51.4-105-104.9c-13.9-17.4-25.7-34.9-32.6-51
				c-28.3-65.6-104.8-163.5-153.5-213.1l121.7-44c0,0,39,78.4,90.8,174.7C964.6,1405.5,1008.7,1484.2,1049.7,1549.5z"/>
			<g>
				<path class="st7" d="M1056.7,970.5c0.8-7.5,1-15,0.7-22.4c-0.2-3.4,1.7-6.6,4.8-8l35.9-16.7c3.9-1.8,5.7-6.2,4.3-10.2
					l-12.4-34.1c-1.4-3.8-5.4-6-9.4-5l-35.4,8.7c-3.5,0.9-7.1-0.7-9-3.7c-8.1-13.2-18.3-25.1-30.1-35.1c-2.9-2.4-3.7-6.6-2-10
					l9.8-19.9c1.9-3.8,0.6-8.4-3-10.7l-30.4-19.3c-3.6-2.3-8.4-1.4-11,2l-21.3,28c-6.6-1.7-13.3-2.9-20.2-3.6
					c-9.2-1-18.4-1.1-27.3-0.4c-3.4,0.3-6.6-1.6-8-4.7l-13.4-29c-1.8-4-6.4-5.8-10.5-4.4l-33.5,12.2c-4.1,1.5-6.4,5.8-5.4,10
					l7.3,29.6c0.8,3.4-0.6,7-3.5,8.9c-9.5,6.1-18.2,13.3-26,21.4c-2.5,2.6-6.4,3.3-9.7,1.7L765.6,840c-3.8-1.9-8.4-0.6-10.7,3
					l-19.2,30.3c-2.3,3.7-1.5,8.5,2,11.1l31.5,24c2.7,2,3.8,5.4,2.9,8.7c-1.9,7.1-3.3,14.5-4.1,22.1c-0.4,4-0.7,8-0.8,12
					c-0.1,3.3-2,6.2-4.9,7.6l-34.5,16c-3.8,1.8-5.7,6.2-4.2,10.2l12.3,33.7c1.5,4.1,5.8,6.4,10,5.4l28.1-6.9
					c3.7-0.9,7.6,0.8,9.4,4.2c6.9,13.4,15.9,25.7,26.6,36.4c2.6,2.5,3.2,6.4,1.6,9.7l-14.3,29.2c-1.9,3.9-0.6,8.6,3.1,11l30.2,19.1
					c3.6,2.3,8.4,1.4,11-2l20.9-27.5c2.1-2.8,5.8-4,9.2-3c8.1,2.4,16.5,4.1,25.2,5c4.7,0.5,9.3,0.8,13.9,0.8c3.2,0,6.1,1.9,7.4,4.8
					l13.6,29.4c1.9,4,6.5,5.9,10.6,4.4l33.5-12.2c4-1.5,6.3-5.7,5.3-9.8l-5.8-23.6c-0.9-3.7,0.8-7.6,4.2-9.4
					c17.2-9,32.4-21.3,44.7-36.2c2.4-2.9,6.6-3.8,10-2.1l26.2,12.9c3.8,1.9,8.4,0.6,10.7-3l19.2-30.2c2.3-3.7,1.5-8.6-2-11.2
					l-30.2-23c-2.5-1.9-3.7-5.1-3.1-8.2C1055.7,978.6,1056.3,974.6,1056.7,970.5z M943.1,1027.7c-75.5,27-138.2-51.5-94.8-119.3
					c6.5-10.2,21.2-22,32.5-26.2c75.6-27.8,138.8,50.2,96.2,118.2C970.3,1011.2,955,1023.5,943.1,1027.7z"/>
			</g>
			<path class="st5" d="M927.3,1336.1l-26.4,133.4c-13.9-17.4-25.7-34.9-32.6-51c-28.3-65.6-104.8-163.5-153.5-213.1l121.7-44
				C836.4,1161.4,875.4,1239.8,927.3,1336.1z"/>
			<path class="st5" d="M827.8,1575.5c0,0-1.3,24.3,28.2,27.6c0,0,17.8,0.4,17.8,15.8h-86.7c0,0-2.5-6.2-3.1-19.6
				c-0.5-10.3,10-37.1,10-37.1L827.8,1575.5z"/>
			<path class="st6" d="M796.5,1161.4c0,0,54.2,59.6,88.6,166.9c18.7,58.4-34.3,205.2-44.6,256.2c0,0-35.6,3-59.9-6.4
				c0,0-1.8-105.3,12.4-186.5c8-45.4-71.4-97.2-106-179.3c-23.6-55.9,5.1-54.9,40.4-56.2L796.5,1161.4z"/>
			<path class="st8" d="M734,895.7c-30.2,17-91.9,1.3-91.9,1.3s25.1-28.7,13.7-74.8l23.7,12l25.4,12.9c0,0,1.6,8.2,2.8,22.8
				c0.3,3.8,0.6,8,0.7,12.6C723.9,887.2,734,895.7,734,895.7z"/>
			<path class="st9" d="M844.5,1158.4c0,5.3-6.1,7.8-7.4,8.1c-12.2,2.2-46.1,15.4-76.7,18.5c-25.8,2.7-49.7,0.1-76-5.1
				c-3.5-0.7-11.6-2.9-12.2-6.2c-0.7-3.6-101.3-205.1-23.1-291.7c1.8-2,17.3,1.6,31.4,5c13,3.1,25,1.4,35.7-2.9l13.2,7
				c16.3,9.1,47,41.3,50.6,66.5c1.8,12.8,9.2,22.4,11.3,33.7c0.8,4.2,1.6,8.3,2.4,12.2c1.6,7.8,3.3,15.2,5,22.3
				c4.6,19.1,9.5,35.6,14.2,49.8c5.1,15.1,10.1,27.6,14.5,38.1c5.8,13.6,10.6,23.8,13.7,31.6
				C843.3,1150.6,844.5,1154.9,844.5,1158.4z"/>
			<path class="st4" d="M841.2,1145.1c-142-66.9-191.2-195.4-191.2-195.4s115.4,42.6,143.9,53.7c1.6,7.8,3.3,15.2,5,22.3
				c4.6,19.1,9.5,35.6,14.2,49.8c5.1,15.1,10.1,27.6,14.5,38.1C833.2,1127.1,838.1,1137.3,841.2,1145.1z"/>
			<g>
				<path class="st8" d="M924.3,1106.3l12.3,4.5c0,0,24.6-17.4,39.9,10.9c0,0,5.5,12.3-3.2,15s-5.6,0.2-17.9,4.3
					c-12.3,4.1-24.4,1.1-29.1-7.7l-8.3-6.1L924.3,1106.3z"/>
				<path class="st9" d="M934.4,1123.7c4.5-11.8,6.6-17.2,6.6-17.2s-92.7-75.6-102.2-82.1c-6.4-4.4-70.6-52.3-101.8-89.7
					c-15.5-18.5-40-27-63.6-22l-19.5,4.1c-23.5,4.9-31.1,34.7-12.9,50.3c51.4,44,138,95.1,154.1,105.7
					c40.1,26.4,128.8,63.3,128.8,63.3S930.8,1133,934.4,1123.7z"/>
			</g>
			<path class="st3" d="M707.7,870c-29.7,1.7-48.9-22.8-48.9-22.8s13.4-7.4,20.7-12.9l25.4,12.9C704.9,847.2,706.5,855.3,707.7,870z
				"/>
			<path class="st8" d="M720.3,839.5c0,0-44.9,32.2-64.6,4c-19.7-28.3-38.7-43.2-10.8-65c27.9-21.8,41-14.9,49.8-7.1
				C703.6,779.3,731.5,830.4,720.3,839.5z"/>
			<path class="st5" d="M699.5,745.9c-1.6-10.9-5.2-18.5-5.2-18.5s-2.8,11.7-24.2,10.1c-21.3-1.6-55.2,2.1-66.5,26.4
				c-0.7,1.5-1.4,3.1-1.9,4.8c-2-5.4-2.5-13.5-2.5-13.5c-4.1,10.5,0,23.6,0,23.6h0c-0.1,0.4-0.1,0.8-0.2,1.1
				c-4.7,4-8.7,16.4-8.7,16.4c1.4-3.5,4.9-5.7,8-7.1c-0.1,18.9,7.6,37.4,21.1,42.9c19.7,8.1,19.5,1.9,39.4,15.1c0,0,5.3-6.6,1.7-11
				c-3.6-4.4-17.3-10.9-9.7-17.3c7.7-6.4,10.5,0.8,13.3-3.6c2.8-4.4-11.3-17.3,6.8-29.4C689,773.7,701.1,756.8,699.5,745.9z"/>
		</g>
		<g>
			<path class="st10" d="M2698.9,1579.2c0,0,2.4,39,10,39.6c1,0.1,38.3,0.1,38.3,0.1h47.7c0,0-0.4-11.8-14.3-14.2
				c-13.9-2.4-37.2-12.2-45.6-30.6C2726.1,1554.8,2698.9,1579.2,2698.9,1579.2z"/>
			<path class="st11" d="M2510.3,1258.4c6.8,12.9,14.7,24.9,22.8,36.3c25,35.3,52.3,64.3,57.1,91.8c0.9,5.5,2.4,11.4,4.4,17.6
				c2,6.3,4.4,12.9,7.3,19.8c10.6,25.7,26.5,54.6,42.4,80.8c27.4,45.3,53.2,83.2,53.2,83.2l47.3-2.2c-1.9-5.3-22.5-67.9-50.1-144.4
				c-11.2-31.1-23.1-64.1-34.6-95.9c-1.5-4.3-3.1-8.5-4.6-12.7c-3.5-9.7-7-19.3-10.4-28.7c-25.9-71.8-46.6-129-46.6-129
				s-103.6-43.8-114.3-15.4C2475.3,1182.9,2482.5,1205.8,2510.3,1258.4z"/>
			<path class="st5" d="M2597.4,1536.9c0,0-17.3,16.1-13.9,27.5c3.4,11.4,19,19,21.1,33s10.6,21.6,18.2,21.6s36.3,0,36.3,0
				s5.6-9.8-7.9-12.8c-13.5-3-18.6-19.3-17.8-34.6c0.8-15.2-1.3-35.5-1.3-35.5l-28.7-6.8L2597.4,1536.9z"/>
			<path class="st12" d="M2612.7,1169.5c0,0,109,176.8,109,190.9c0,31.1-82.4,210.3-82.4,210.3s-43.7-23.1-42-39.3
				c0,0,26.2-125.8,33.9-146c7.6-20.2-137.8-96.4-145.4-188.4L2612.7,1169.5z"/>
			<path class="st13" d="M2666.1,1078.6c0,0,22.5,12.8,28.8,12.8c6.3,0,31-4.8,37.9-1.3c6.9,3.5,19.3,17.7,21.7,22.3
				c4.2,8.3-16.9,4.6-26.9-2.4c-1.5-1-3.3-1.4-5-1c-5.2,1.1-15.9,3.1-21.1,1.2c-7-2.6-43.7-5.5-43.7-5.5L2666.1,1078.6z"/>
			<path class="st14" d="M2495.1,904.5c0,0,23.3,165.6,61.9,180.5c19,7.3,103.2,23.9,128.1,25.6c0,0,6.1-4.9,4.6-25.1
				c0,0-88.2-32.4-100.7-50c-18.6-26.2,11.6-107-11.8-131.6C2553.8,879.2,2514.4,868.7,2495.1,904.5z"/>
			<path class="st13" d="M2586.2,894c-31.2,8.1-82.8-20.8-82.8-20.8s20.1-13.5,27.5-43.1c0.4-1.5,0.7-3,1-4.6c3.3-0.7,9.4-2,16-3.4
				l23.8,21.3c0,0-0.5,8.9-3.5,24.1c-0.5,2.7-1.1,5.5-1.8,8.5C2579.1,884,2586.2,894,2586.2,894z"/>
			<path class="st15" d="M2470.4,1023.2c4.5,60-1.4,151.3,3.7,167.1c4.4,13.6,54.1,5.5,74,1c7.4-1.7,16.3-4.1,25.5-6.9
				c25.7-7.9,53.6-19.3,56.6-27.7c0.1-0.3,0.2-0.7,0.3-1c0.3-1.2,0.2-2.4-0.1-3.5c-1-4.3-4.9-8.9-5.3-19.6
				c-0.5-11.9-0.4-25.8-0.9-40.9c0-1.7,0-3.5-0.2-5.2l0-0.6c0-0.3,0-0.6,0-1c-0.4-16.8-1.3-34.4-2.3-51.9c-0.6-11-1.4-21.8-2.3-32.3
				c-2.2-26.9-5.3-50.8-9.2-65.9c-6.5-24.6-20.9-40.7-34-52.5l-9.5-8.1c-10.6,2.3-23.1,0.8-34.4-4.6c-12.2-5.8-16.5-10-18.6-8.4
				C2485.5,883,2465.1,949.8,2470.4,1023.2z"/>
			<path class="st14" d="M2573.5,1184.3c25.7-7.9,53.6-19.3,56.6-27.7c0.1-0.3,0.2-0.7,0.3-1c0-1.2,0-2.4-0.1-3.5
				c-1-4.3-4.9-8.9-5.3-19.6c-0.5-11.9-0.4-25.8-0.9-40.9c0-1.7,0-3.5-0.2-5.2l0-0.6c0-0.3,0-0.6,0-1l-103.7-132.2
				C2520.2,952.7,2450.5,1097.9,2573.5,1184.3z"/>
			<path class="st16" d="M2571.7,843.5c0,0-0.5,8.9-3.5,24.1c-23.2-7.5-33.8-28.5-37.3-37.4c0.4-1.5,0.7-3,1-4.6
				c3.3-0.7,9.4-2,16-3.4L2571.7,843.5z"/>
			<path class="st13" d="M2574.8,856.9c0,0-50.7-8.5-44.9-39.9c5.8-31.5,3.1-53.8,35.7-49.7c32.6,4.1,36.7,17.2,37.3,28.2
				C2603.5,806.4,2588.1,858.3,2574.8,856.9z"/>
			<g>
				
					<rect x="2793.2" y="1006.9" transform="matrix(-0.951 -0.3092 0.3092 -0.951 5123.6675 2948.8469)" class="st17" width="4.7" height="123"/>
				
					<rect x="2649.7" y="1118.5" transform="matrix(-0.9998 -2.134937e-02 2.134937e-02 -0.9998 5403.979 2302.4927)" class="st17" width="129.1" height="7.7"/>
			</g>
			<path class="st13" d="M2652.2,1131c0,0,41.5,10.9,57,9.8c15.6-1.1,28.5-8.5,30.4-12.4c2-3.9,6.1-10.7-4.5-9.4
				c-10.6,1.3-25,3.5-25.5,1.5c-0.4-2,8.6-1.8,8.6-1.8s2.7-4-0.7-4.1c-3.5-0.1-13.5-2.9-17.3-1c-3.7,1.9-7.2,8.8-9.9,8.5
				c-2.7-0.3-34.7-14.4-34.7-14.4L2652.2,1131z"/>
			<path class="st15" d="M2505.4,911.3c0,0,4.9,167.2,41.6,186.2c18.1,9.4,99.9,35.1,124.5,39.5c0,0,6.6-4.2,7.4-24.4
				c0,0-84.1-41.9-94.6-60.8c-15.6-28.1,23.3-105.1,2.8-132.1C2566.5,892.7,2528.5,877.8,2505.4,911.3z"/>
			<path class="st6" d="M2530.9,830.1c0,0-0.6-10.8,6.1-17c0,0-2.3-10.8,2-12.6c4.3-1.8,5.2,7.3,7.1,5.9c2-1.4,10.7-8.2,14.5-18.2
				c3.7-10,38,2.1,42,3.9c4,1.8,16.8-4.8,19.3-10.2c0,0-7.1-5.7-10.4-10c-3.2-4.3-25.7-33.2-57.1-25c-31.4,8.2-35.7,23.2-33.9,36
				C2522.3,795.9,2518,825.8,2530.9,830.1z"/>
		</g>
		<g>
			<path class="st7" d="M2480.7,1192.9l-98.2-59.1c-8.1-5-12.8-14.1-12-23.6c1-12.1,1.5-24.4,1.5-36.8c0-23-1.6-45.5-5.1-67.4
				c-1.6-10.3,3-20.4,11.9-25.6l102.5-61.9c11-6.5,15.1-20.5,9.4-32.1l-48.3-98.3c-5.5-11.1-18.4-16.3-30-12.1l-103.7,37.6
				c-10,3.9-21.4,0.5-28.1-8.3c-28.5-36.9-62.9-69.2-101.8-95.5c-9.4-6.4-13.3-18.6-9.4-29.3l23-63c4.3-12-1-25.5-12.5-31.3
				l-97.7-47.8c-2-1-4-1.8-6.1-2.1c-10-2.1-20.6,2.4-26,11.5l-44.3,73.3l-10.8,17.9c-20.1-2.9-40.9-4.4-61.8-4.4
				c-28.1,0-55.8,2.6-82.3,7.6c-10.1,1.9-20.4-2.5-25.6-11.4l-49.8-82.7c-6.9-11.3-21.1-15.5-32.9-9.6l-75.2,36.9l-21.5,10.6
				c-11.8,5.8-17.4,19.5-12.9,31.8l31.4,86.7c3.8,10,0.8,21.3-7.5,27.8c-24.4,19.9-46.6,42.3-66.2,66.8c-1.9,2-3.4,4-5,6.1
				c-0.5,0.8-1.1,1.4-1.8,2c-6.9,7.4-17.5,9.8-27,6.3l-102.4-37.1c-1.1-0.5-2.4-0.8-3.5-1c-11-2.3-22.5,3.3-27.6,13.5l-47.8,97.3
				c-5.8,11.8-1.6,25.9,9.6,32.8l102.4,61.6c8.8,5.1,13.3,15.1,11.6,25.1c-3.4,22-5.1,44.6-5.1,67.8c0,12.3,0.5,24.4,1.5,36.4
				c0.8,9.8-4,19.1-12.4,24.1l-98.5,59.5c-10.9,6.5-15,20.4-9.4,31.9l47.9,97.2c5.8,11.8,19.4,17.4,31.9,12.9l82-29.8
				c11-4,23.1,0,29.6,9.6c25.1,38.1,56.1,72,91.7,100.7c8.5,6.6,11.8,18.1,8,28.4l-33.5,92.3c-4.5,12.4,1.1,26.1,12.9,32l96.9,47.6
				c11.6,5.8,25.8,1.5,32.3-9.5l2.6-4.3l51.4-85.2c5.5-9.1,15.9-13.8,26.4-11.9h0.1c25.1,4.5,51,6.9,77.5,6.9c14.1,0,28-0.7,41.9-2
				c9.6-1,18.9,3.6,23.9,11.9l50.5,83.9c6.9,11.5,21.5,15.8,33.4,9.9l96.8-47.6c2.8-1.4,5.1-3.3,7.1-5.3c6.4-6.8,8.8-16.9,5.5-26
				l-25.3-69.2c-3-8.5-1.2-18,4.4-24.8c1.5-1.8,3.3-3.4,5.3-4.8c48.8-32.5,90.4-74.4,122.8-123.3c5.4-8.4,15.4-12.4,25-10.8
				c1.4,0.3,2.8,0.6,4.1,1.1l82.9,30.1c12,4.4,25.4-1,31.1-12.5l1.1-2.3l46.6-94.8C2496.3,1214.1,2492.1,1199.8,2480.7,1192.9z
				 M1705.8,1006c4.8-16.9,11.3-34,19.8-51.1c16.3-32.6,56.4-73,89.2-89.2c3.5-1.8,7-3.4,10.5-5c214.3-96.3,421,114.2,317.1,328.6
				c-13.6,28-43.8,60.9-73.2,81.3c-6.9,4.6-13.6,8.8-20,11.8c-29.9,14.5-59.6,23-88.7,26.3C1795.2,1327,1659.1,1175.1,1705.8,1006z"
				/>
		</g>
		<g>
			<path class="st15" d="M2490.5,1523.9l-21.9-13.2c-1.8-1.1-2.8-3.2-2.7-5.3c0.2-2.7,0.3-5.4,0.3-8.2c0-5.1-0.4-10.2-1.1-15
				c-0.4-2.3,0.7-4.5,2.7-5.7l22.9-13.8c2.5-1.5,3.4-4.6,2.1-7.2l-10.8-21.9c-1.2-2.5-4.1-3.6-6.7-2.7l-23.1,8.4
				c-2.2,0.9-4.8,0.1-6.3-1.8c-6.4-8.2-14-15.4-22.7-21.3c-2.1-1.4-3-4.2-2.1-6.5l5.1-14.1c0.9-2.7-0.2-5.7-2.8-7l-21.8-10.7
				c-0.4-0.2-0.9-0.4-1.4-0.5c-2.2-0.5-4.6,0.5-5.8,2.6l-9.9,16.4l-2.4,4c-4.5-0.6-9.1-1-13.8-1c-6.3,0-12.4,0.6-18.4,1.7
				c-2.3,0.4-4.5-0.6-5.7-2.5l-11.1-18.4c-1.5-2.5-4.7-3.5-7.3-2.1l-16.8,8.2l-4.8,2.4c-2.6,1.3-3.9,4.4-2.9,7.1l7,19.3
				c0.8,2.2,0.2,4.7-1.7,6.2c-5.4,4.4-10.4,9.4-14.8,14.9c-0.4,0.4-0.8,0.9-1.1,1.4c-0.1,0.2-0.3,0.3-0.4,0.4
				c-1.5,1.6-3.9,2.2-6,1.4l-22.9-8.3c-0.3-0.1-0.5-0.2-0.8-0.2c-2.5-0.5-5,0.7-6.2,3l-10.7,21.7c-1.3,2.6-0.4,5.8,2.1,7.3
				l22.9,13.8c2,1.1,3,3.4,2.6,5.6c-0.8,4.9-1.1,10-1.1,15.1c0,2.7,0.1,5.4,0.3,8.1c0.2,2.2-0.9,4.3-2.8,5.4l-22,13.3
				c-2.4,1.5-3.3,4.6-2.1,7.1l10.7,21.7c1.3,2.6,4.3,3.9,7.1,2.9l18.3-6.6c2.5-0.9,5.2,0,6.6,2.1c5.6,8.5,12.5,16.1,20.5,22.5
				c1.9,1.5,2.6,4,1.8,6.3l-7.5,20.6c-1,2.8,0.3,5.8,2.9,7.1l21.6,10.6c2.6,1.3,5.7,0.3,7.2-2.1l0.6-0.9l11.5-19
				c1.2-2,3.5-3.1,5.9-2.7h0c5.6,1,11.4,1.5,17.3,1.5c3.2,0,6.3-0.2,9.3-0.4c2.1-0.2,4.2,0.8,5.3,2.7l11.3,18.7
				c1.5,2.6,4.8,3.5,7.5,2.2l21.6-10.6c0.6-0.3,1.1-0.7,1.6-1.2c1.4-1.5,2-3.8,1.2-5.8l-5.6-15.4c-0.7-1.9-0.3-4,1-5.5
				c0.3-0.4,0.7-0.8,1.2-1.1c10.9-7.3,20.2-16.6,27.4-27.5c1.2-1.9,3.4-2.8,5.6-2.4c0.3,0.1,0.6,0.1,0.9,0.3l18.5,6.7
				c2.7,1,5.7-0.2,6.9-2.8l0.3-0.5l10.4-21.2C2494,1528.6,2493,1525.4,2490.5,1523.9z M2317.6,1482.2c1.1-3.8,2.5-7.6,4.4-11.4
				c3.6-7.3,12.6-16.3,19.9-19.9c0.8-0.4,1.6-0.8,2.3-1.1c47.8-21.5,94,25.5,70.8,73.3c-3,6.3-9.8,13.6-16.3,18.1
				c-1.5,1-3,2-4.5,2.6c-6.7,3.2-13.3,5.1-19.8,5.9C2337.5,1553.8,2307.1,1519.9,2317.6,1482.2z"/>
		</g>
		<g>
			<path class="st18" d="M3209.1,1115.3l-32.8-19.8c-2.7-1.7-4.3-4.7-4-7.9c0.3-4.1,0.5-8.2,0.5-12.3c0-7.7-0.5-15.2-1.7-22.5
				c-0.5-3.4,1-6.8,4-8.6l34.3-20.7c3.7-2.2,5.1-6.9,3.1-10.7l-16.1-32.9c-1.8-3.7-6.1-5.4-10-4.1l-34.7,12.6
				c-3.3,1.3-7.2,0.2-9.4-2.8c-9.5-12.3-21-23.1-34-32c-3.1-2.1-4.4-6.2-3.1-9.8l7.7-21.1c1.4-4-0.3-8.5-4.2-10.5l-32.7-16
				c-0.7-0.3-1.3-0.6-2-0.7c-3.3-0.7-6.9,0.8-8.7,3.8l-14.8,24.5l-3.6,6c-6.7-1-13.7-1.5-20.7-1.5c-9.4,0-18.7,0.9-27.5,2.6
				c-3.4,0.6-6.8-0.8-8.6-3.8l-16.6-27.6c-2.3-3.8-7.1-5.2-11-3.2l-25.1,12.3l-7.2,3.6c-3.9,1.9-5.8,6.5-4.3,10.6l10.5,29
				c1.3,3.3,0.2,7.1-2.5,9.3c-8.2,6.7-15.6,14.1-22.1,22.3c-0.6,0.7-1.1,1.3-1.7,2c-0.2,0.3-0.4,0.5-0.6,0.7c-2.3,2.5-5.9,3.3-9,2.1
				L2866,976c-0.4-0.2-0.8-0.3-1.2-0.3c-3.7-0.8-7.5,1.1-9.2,4.5l-16,32.5c-1.9,3.9-0.5,8.7,3.2,11l34.3,20.6
				c2.9,1.7,4.4,5.1,3.9,8.4c-1.1,7.4-1.7,14.9-1.7,22.7c0,4.1,0.2,8.2,0.5,12.2c0.2,3.3-1.3,6.4-4.1,8.1l-33,19.9
				c-3.6,2.2-5,6.8-3.1,10.7l16,32.5c1.9,3.9,6.5,5.8,10.7,4.3l27.4-10c3.7-1.3,7.7,0,9.9,3.2c8.4,12.8,18.8,24.1,30.7,33.7
				c2.8,2.2,3.9,6.1,2.7,9.5l-11.2,30.9c-1.5,4.1,0.4,8.7,4.3,10.7l32.4,15.9c3.9,1.9,8.6,0.5,10.8-3.2l0.9-1.4l17.2-28.5
				c1.8-3.1,5.3-4.6,8.8-4h0c8.4,1.5,17.1,2.3,25.9,2.3c4.7,0,9.4-0.3,14-0.7c3.2-0.3,6.3,1.2,8,4l16.9,28.1
				c2.3,3.8,7.2,5.3,11.2,3.3l32.4-15.9c0.9-0.5,1.7-1.1,2.4-1.8c2.1-2.3,2.9-5.6,1.8-8.7l-8.4-23.1c-1-2.8-0.4-6,1.5-8.3
				c0.5-0.6,1.1-1.1,1.8-1.6c16.3-10.9,30.2-24.9,41.1-41.2c1.8-2.8,5.1-4.1,8.4-3.6c0.5,0.1,0.9,0.2,1.4,0.4l27.7,10.1
				c4,1.5,8.5-0.3,10.4-4.2l0.4-0.8l15.6-31.7C3214.3,1122.4,3212.9,1117.6,3209.1,1115.3z M2949.9,1052.8
				c1.6-5.6,3.8-11.4,6.6-17.1c5.4-10.9,18.9-24.4,29.8-29.8c1.2-0.6,2.3-1.1,3.5-1.7c71.7-32.2,140.8,38.2,106.1,109.9
				c-4.6,9.4-14.6,20.4-24.5,27.2c-2.3,1.5-4.6,2.9-6.7,3.9c-10,4.9-20,7.7-29.7,8.8C2979.8,1160.2,2934.3,1109.3,2949.9,1052.8z"/>
		</g>
		<g>
			<path class="st18" d="M1658.6,499l-34.8-16.1c-2.9-1.4-4.8-4.2-4.8-7.4c-0.1-4.1-0.4-8.2-0.8-12.3c-0.8-7.7-2.2-15.1-4.1-22.2
				c-0.9-3.4,0.3-6.9,3-9l31.9-24.3c3.4-2.6,4.3-7.4,2-11l-19.6-30.9c-2.2-3.5-6.7-4.7-10.4-3l-33.1,16.3c-3.2,1.6-7.1,0.9-9.7-1.7
				c-10.8-11.2-23.4-20.7-37.3-28.1c-3.3-1.8-5.1-5.7-4.2-9.4l5.4-21.8c1-4.1-1.3-8.4-5.3-9.9l-34.2-12.4c-0.7-0.3-1.4-0.4-2.1-0.5
				c-3.4-0.3-6.8,1.5-8.2,4.8l-12.1,26l-2.9,6.3c-6.8-0.2-13.8,0-20.7,0.8c-9.4,1-18.5,2.9-27.1,5.5c-3.3,1-6.9-0.1-8.9-2.9
				l-19.5-25.7c-2.7-3.5-7.6-4.4-11.3-2l-23.7,15l-6.8,4.3c-3.7,2.3-5.1,7.1-3.1,11l13.6,27.7c1.6,3.2,1,7-1.5,9.5
				c-7.4,7.5-14,15.7-19.6,24.6c-0.6,0.7-1,1.5-1.4,2.2c-0.1,0.3-0.3,0.5-0.5,0.7c-2,2.7-5.5,3.9-8.8,3.1l-35.4-8.7
				c-0.4-0.1-0.8-0.2-1.2-0.2c-3.7-0.4-7.4,1.9-8.7,5.5l-12.4,34.1c-1.5,4.1,0.4,8.7,4.4,10.5l36.3,16.8c3.1,1.4,5,4.6,4.8,7.9
				c-0.3,7.4-0.1,15,0.7,22.7c0.4,4.1,1,8.1,1.8,12c0.6,3.2-0.6,6.5-3.2,8.5l-30.6,23.3c-3.4,2.6-4.3,7.3-2,10.9l19.4,30.6
				c2.3,3.7,7.1,5.1,11.1,3.1l26.2-12.9c3.5-1.7,7.7-0.8,10.2,2.1c9.7,11.8,21.3,21.9,34.1,30.2c3.1,1.9,4.6,5.6,3.7,9.2l-7.8,31.9
				c-1,4.3,1.3,8.6,5.4,10.2l33.9,12.3c4.1,1.5,8.6-0.4,10.4-4.3l0.7-1.5l14-30.2c1.5-3.2,4.8-5.1,8.3-4.9l0,0
				c8.5,0.6,17.2,0.4,26-0.5c4.7-0.5,9.3-1.3,13.9-2.2c3.2-0.7,6.4,0.5,8.4,3.1l19.8,26.1c2.7,3.6,7.7,4.5,11.5,2.1l30.5-19.3
				c0.9-0.6,1.6-1.3,2.2-2c1.9-2.5,2.3-5.9,0.9-8.8l-10.9-22.1c-1.3-2.7-1.1-5.9,0.6-8.4c0.4-0.6,1-1.2,1.6-1.8
				c15-12.6,27.4-28,36.4-45.4c1.5-3,4.7-4.7,7.9-4.5c0.5,0,0.9,0.1,1.4,0.2l28.7,7c4.1,1,8.4-1.2,9.9-5.3l0.3-0.8l12.1-33.2
				C1664.5,505.4,1662.6,500.8,1658.6,499z M1394.2,464.7c1-5.8,2.5-11.7,4.7-17.7c4.2-11.4,16.1-26.3,26.4-32.9
				c1.1-0.7,2.2-1.4,3.3-2c67.8-39.7,144.1,22.8,117.3,97.8c-3.5,9.8-12.4,21.8-21.4,29.7c-2.1,1.8-4.2,3.4-6.2,4.6
				c-9.4,5.9-19,9.8-28.5,11.9C1435.5,568.2,1384.7,522.6,1394.2,464.7z"/>
		</g>
		<g>
			<g>
				<path class="st19" d="M1869.9,1478.2c2,2.3,2.3,4.9,1.3,7.7c0,0,0,0,0,0c-1.9,5.1-8,10.8-15.1,16.6c-0.9,0.7-1.7,1.4-2.4,2
					c-0.2,0.2-0.4,0.3-0.5,0.5c-0.1,0.1-0.3,0.3-0.4,0.4c-6.6,6.1-4.1,7.5-16.1,19.9c-13.6,14.1-22.9,14.4-25.6,13.1
					c-2.2-1.1,2.3-8.6,7.4-17c0.2-0.4,0.5-0.8,0.7-1.2c0.7-1.1,1.3-2.3,2-3.4c5.9-10.1,4.4-14.9,3-30c-1.1-12.3-19.1-68.5-19.1-68.5
					l26-4.5c0,0,7.8,44.8,16.5,51.7c4.6,3.7,9.8,3.7,14.2,6.4c0.3,0.2,0.6,0.4,0.9,0.6C1865.3,1474.1,1867.9,1475.9,1869.9,1478.2z"
					/>
				<path class="st20" d="M1869.9,1478.2c2,2.3,2.3,4.9,1.3,7.7c0,0,0,0,0,0c-2.3,5.1-8.2,10.8-15.1,16.5c-0.9,0.7-1.7,1.4-2.4,2.1
					c-0.2,0.2-0.4,0.3-0.5,0.5c-0.1,0.1-0.3,0.3-0.4,0.4c-6.6,6.1-4.1,7.5-16.1,19.9c-13.6,14.1-22.9,14.4-25.6,13.1
					c-2.2-1.1,2.3-8.6,7.4-17c2.6-1,14.9-6,24.2-17.8c8.2-10.4,13.6-23.9,19.2-31.6c0.3,0.2,0.6,0.4,0.9,0.6
					C1865.3,1474.1,1867.9,1475.9,1869.9,1478.2z"/>
				<path class="st19" d="M1660,1461.9c-1.6,8-13.1,6.7-25.9,3.6c-12.8-3.1-9.8,0.6-28-1.4c-18.2-2-23.7-8.8-24.3-11.5
					c-0.5-2.4,8.5-3.3,18.2-4.4c1.2-0.1,2.4-0.3,3.7-0.4c10.9-1.4,18.9-8.4,28.8-14.2c9.4-5.5,23.4-27.8,23.4-27.8l25,2
					c0,0-13.1,19.9-18.2,28.6c-3,5.1-2.8,11.8-2.5,17C1660.4,1456.2,1660.5,1459.1,1660,1461.9z"/>
				<path class="st20" d="M1634.1,1465.5c-12.8-3.1-9.8,0.6-28-1.4c-18.2-2-23.7-8.8-24.3-11.5c-0.5-2.4,8.5-3.3,18.2-4.4l0.1,0.2
					c0,0,10.9,7.7,26.1,8.1c12.4,0.3,25.4-3.2,34-3.1c0.2,2.8,0.4,5.7-0.2,8.5C1658.4,1470,1646.9,1468.6,1634.1,1465.5z"/>
				<path class="st19" d="M1715.6,1095c0,0-6-14.6-12.5-15.2c-6.5-0.6-27.4-3.9-28.9-0.9c-1.5,3,0,13.7,4.5,17.6
					c4.5,3.9,32.1,10.1,32.1,10.1L1715.6,1095z"/>
				<path class="st21" d="M1755.7,1302.2l53.8,144.9c0,0,8.3,0.8,16.2-1.5c7.3-2.1,15.7-7.6,15.7-7.6s-13.4-139.1-37.8-168.1
					C1779.1,1241,1755.7,1302.2,1755.7,1302.2z"/>
				<path class="st20" d="M1968.7,1243.5c0,0-154.7-52.3-189.2-41.2c-34.5,11.1-138.1,217.2-138.1,217.2s2.3,3.1,8.7,5.5
					c5.9,2.2,20.3,2.1,20.3,2.1s93.5-80.1,104.6-103.5c11.1-23.4,15.6-45.6,26.7-43.4c11.1,2.2,143.6,54.5,173.6,23.4
					c30.1-31.2,22.2-71.7,22.2-71.7L1968.7,1243.5z"/>
				<path class="st22" d="M1874.1,1000.2c-2.5-5.1-5.2-14.2-6.6-30.3c0.2,1.6,3,22,10.8,33.5c32.2,21.1,93.8,91.7,92.6,105
					c0,0,21.7-36.8,22.1-37.1c0,0,40.1-51-7.4-80.1c-24.1-14.8-24-33.9-23-50.4c1-16.5-6.6-87.7-54.9-69.1c0,0-7.8-3.4-11.2-2.9
					c0,0,2.8,0.5,4.3,2c-5.6-0.3-13.6,0.1-20.3,3.9C1862.7,884.7,1846.9,975.1,1874.1,1000.2z"/>
				<path class="st19" d="M1880.3,1004.4c-0.2,0.1,15.5,8.2,27.3,5c11.1-3,18.4-17.4,18.2-17.5c-4.7-0.9-6.1-7.4-6-35.2l-2.1,0.4
					l-35.7,7.1c0,0,0.8,11.3,0.8,21.8C1882.9,995,1882.3,1003.5,1880.3,1004.4z"/>
				<path class="st23" d="M1882,964.3c0,0,0.8,11.3,0.8,21.8c20-0.6,30.6-18.8,34.9-28.9L1882,964.3z"/>
				<path class="st22" d="M1921.4,953.3c0,0,10.5-16.6,13-30.7c1.8-10.1-3.4-47.6-41-42.2c0,0-10.9,1.1-21.2,8
					c-8.2,5.5-20,17.4-6.8,50.2l3.4,11L1921.4,953.3z"/>
				<path class="st19" d="M1875.3,974.3c0,0,47.3,0.8,47.4-28.7c0-29.5,6.2-49.2-24.1-51c-30.2-1.7-36.1,9.5-38.5,19.3
					C1857.7,923.8,1863,973.4,1875.3,974.3z"/>
				<path class="st22" d="M1877.1,893.9c0,0,13,34.6,32.8,39.7c19.9,5.1,28.5-0.2,28.5-0.2s-15.3-12.1-18.4-33.3
					C1920,900.1,1886.8,877.5,1877.1,893.9z"/>
				<path class="st22" d="M1880.3,896.7c0,0-9.7,7.7-12,15.2c-2.4,7.5-3.4,23-7.9,22.4c0,0-9.8-23.5,1.2-36.8
					C1873.2,883.5,1880.3,896.7,1880.3,896.7z"/>
				<path class="st24" d="M1985.7,1131.8c4.7-19.6-11.2-57.6-27.8-89c-15-28.5-30.7-51.6-32.1-50.8c-39.7,23.5-43.3,4-43.3,4
					s-36,4.8-46.2,22.4c-14.1,24.3-29.5,97.2-44.6,96.1c-6.9-0.5-76.7-26.7-76.7-26.7s-11.6,10.9-9.4,24.2c0,0,34.4,23.1,63.6,37.8
					c15.4,7.8,29.3,13.2,35.9,11.7c13.3-3.1,34-33.9,45.2-52c0,0,0-0.1,0.1-0.1c14.3,80.9-5.1,99.3,4.7,107.9
					c10.4,9,25.2-4.3,57.9,9.9c21.4,9.3,51.1,22.7,71.1,25.1c10.5,1.2,18.3-0.6,20.9-7.7C2012.4,1223.8,1976.8,1169.1,1985.7,1131.8
					z"/>
				<path class="st25" d="M1885.8,956.5c0,0-0.9,3.7-10.2,3.2c0,0-7.8-0.5-7.6-4.6C1868.1,955,1875.6,952.1,1885.8,956.5z"/>
				<path class="st17" d="M2005,1244.4c-2.6,7.1-10.4,8.9-20.9,7.7c-13.8-6-73.7-29.2-73-44.9c1-23.2,11.5-24,4.1-52.7
					c-6-23,49.3-65.9,58.1-75.2c16.6,31.4,17,32.9,12.4,52.5C1976.8,1169.1,2012.4,1223.8,2005,1244.4z"/>
				<path class="st17" d="M1850.3,1109.4c-11.2,18.1-31.9,48.9-45.2,52c-6.5,1.5-20.5-3.9-35.9-11.7c11.2,2.9,22.2,2.8,32.8,1.8
					c11.5-1.1,14.8-15.2,33-36.4C1846.8,1101.4,1849.7,1104.9,1850.3,1109.4z"/>
				<path class="st19" d="M1905.7,1153.9c0,0-10-7.8-19.5-5.9c-9.5,1.9-14.1,8.3-13.7,11.3c0.4,3,5.4,11.3,12.6,12.1
					c7.2,0.7,27.8-4.5,27.8-4.5L1905.7,1153.9z"/>
				<path class="st24" d="M1925.8,992c0,0,38.6,2.4,51.9,21c18.8,26.2,51.5,133.3,42.5,157.8l-117.4-0.5c0,0-2.8-13.3,1.1-19.7
					c4-6.4,68.3-16.8,71.2-19.8c3-3-37.1-57.9-37.1-66.8C1938.2,1055,1925.8,992,1925.8,992z"/>
			</g>
			<g>
				<g>
					<polygon class="st26" points="1869.8,1117 1727.9,1117 1753.6,1206.3 1895.6,1206.3 					"/>
					<rect x="1754" y="1202.8" class="st10" width="185.8" height="3.5"/>
				</g>
				<path class="st10" d="M1810,1160.2c-0.9-3.1-4.2-5.7-7.3-5.7c-3.1,0-5,2.5-4.1,5.7c0.9,3.1,4.2,5.7,7.3,5.7
					C1809.1,1165.9,1810.9,1163.3,1810,1160.2z"/>
			</g>
		</g>
		<g>
			<g>
				<path class="st15" d="M1345.1,1369.6v37.9c0,7.8-6.4,14.2-14.2,14.2h-223.8c-7.8,0-14.2-6.4-14.2-14.2v-37.9
					c0-7.8,6.4-14.2,14.2-14.2h223.8C1338.7,1355.4,1345.1,1361.8,1345.1,1369.6z"/>
				<path class="st14" d="M1345.1,1400.5v6.9c0,7.8-6.4,14.2-14.2,14.2h-223.8c-7.8,0-14.2-6.4-14.2-14.2v-7.5h248.2
					C1342.5,1400,1343.9,1400.2,1345.1,1400.5z"/>
				<g>
					<path class="st27" d="M1146.8,1421.6l-10.1,38.2c0,0,0,0,0,0l-42,159.1h-4.4l24.3-132c0-0.1,0.1-0.3,0.1-0.4l12-65.3
						L1146.8,1421.6z"/>
				</g>
				<path class="st28" d="M1146.8,1421.6l-10.1,38.2c0,0,0,0,0,0c-0.6,0.3-18.9,9.8-22.1,26.7l12-65.3L1146.8,1421.6z"/>
				<g>
					<path class="st27" d="M1345.1,1618.9h-4.4l-34.2-129.6c0,0,0,0,0,0l-7.8-29.5c0,0,0,0,0,0l-10.1-38.2l20.2-0.3l6.9,37.3
						l5.1,27.9c0,0.1,0.1,0.3,0.1,0.4L1345.1,1618.9z"/>
				</g>
				<path class="st27" d="M1276.9,1471.7C1276.9,1471.7,1276.9,1471.7,1276.9,1471.7C1276.8,1471.5,1276.8,1471.5,1276.9,1471.7z"/>
				<path class="st28" d="M1315.6,1458.6c-3.7,5.4-8.8,15.6-9.1,30.7l-7.8-29.5c0,0,0,0,0,0l-10.1-38.2l20.2-0.3L1315.6,1458.6z"/>
			</g>
			<g id="man_10_">
				<g>
					<path class="st15" d="M1128.4,564.2l-30.7-18.5c-2.5-1.6-4-4.4-3.7-7.4c0.3-3.8,0.5-7.6,0.5-11.5c0-7.2-0.5-14.2-1.6-21.1
						c-0.5-3.2,0.9-6.4,3.7-8l32-19.3c3.4-2,4.7-6.4,2.9-10l-15.1-30.7c-1.7-3.5-5.7-5.1-9.4-3.8l-32.4,11.8
						c-3.1,1.2-6.7,0.2-8.8-2.6c-8.9-11.5-19.7-21.6-31.8-29.8c-2.9-2-4.1-5.8-2.9-9.1l7.2-19.7c1.3-3.8-0.3-8-3.9-9.8l-30.5-14.9
						c-0.6-0.3-1.2-0.5-1.9-0.7c-3.1-0.7-6.4,0.7-8.1,3.6l-13.8,22.9l-3.4,5.6c-6.3-0.9-12.8-1.4-19.3-1.4c-8.8,0-17.4,0.8-25.7,2.4
						c-3.2,0.6-6.4-0.8-8-3.6l-15.6-25.8c-2.1-3.5-6.6-4.8-10.3-3l-23.5,11.5l-6.7,3.3c-3.7,1.8-5.4,6.1-4,9.9l9.8,27.1
						c1.2,3.1,0.2,6.6-2.3,8.7c-7.6,6.2-14.6,13.2-20.7,20.9c-0.6,0.6-1.1,1.3-1.6,1.9c-0.2,0.2-0.4,0.4-0.5,0.6
						c-2.1,2.3-5.5,3-8.4,2l-32-11.6c-0.4-0.2-0.7-0.2-1.1-0.3c-3.4-0.7-7,1-8.6,4.2l-14.9,30.4c-1.8,3.7-0.5,8.1,3,10.2l32,19.3
						c2.7,1.6,4.1,4.7,3.6,7.9c-1.1,6.9-1.6,13.9-1.6,21.2c0,3.8,0.2,7.6,0.5,11.4c0.2,3-1.3,6-3.9,7.5l-30.8,18.6
						c-3.4,2-4.7,6.4-2.9,10l15,30.4c1.8,3.7,6.1,5.4,10,4l25.6-9.3c3.4-1.3,7.2,0,9.3,3c7.9,11.9,17.5,22.5,28.6,31.4
						c2.7,2.1,3.7,5.7,2.5,8.9l-10.5,28.8c-1.4,3.9,0.4,8.2,4,10l30.3,14.9c3.6,1.8,8,0.5,10.1-3l0.8-1.3l16.1-26.6
						c1.7-2.9,5-4.3,8.2-3.7h0c7.9,1.4,15.9,2.1,24.2,2.1c4.4,0,8.8-0.2,13.1-0.6c3-0.3,5.9,1.1,7.5,3.7l15.8,26.2
						c2.1,3.6,6.7,4.9,10.4,3.1l30.2-14.9c0.9-0.4,1.6-1,2.2-1.6c2-2.1,2.7-5.3,1.7-8.1l-7.9-21.6c-0.9-2.7-0.4-5.6,1.4-7.7
						c0.5-0.5,1-1.1,1.6-1.5c15.2-10.2,28.2-23.2,38.4-38.5c1.7-2.6,4.8-3.9,7.8-3.4c0.4,0.1,0.9,0.2,1.3,0.4l25.9,9.4
						c3.8,1.4,7.9-0.3,9.7-3.9l0.4-0.7l14.6-29.6C1133.3,570.8,1132,566.3,1128.4,564.2z M886.3,505.8c1.5-5.3,3.5-10.6,6.2-16
						c5.1-10.2,17.6-22.8,27.9-27.9c1.1-0.5,2.2-1.1,3.3-1.6c67-30.1,131.5,35.7,99.1,102.7c-4.3,8.8-13.7,19-22.9,25.4
						c-2.1,1.4-4.3,2.7-6.3,3.7c-9.3,4.5-18.6,7.2-27.7,8.2C914.2,606.1,871.7,558.6,886.3,505.8z"/>
				</g>
				<g>
					<path class="st29" d="M1174.2,523.5c0.1-2,1.7-24,35-25.1c0,0-16.4,2-19.3,9.2c0,0,11.2-8.9,20.3-6
						c9.1,2.9,14.4,18.8,14.5,24.1c0.1,5.2-5,22.2-10.8,23.6c-2.2,0.5-4.7,0.4-7,0c1.5,2.4,3,5.1,4.5,8
						c13.3,27.3-0.4,54.1-11.7,51.1c-7.2-1.9-9.3,10.4-9.3,10.4l-70.3-56.9C1120.2,561.9,1146,508.5,1174.2,523.5z"/>
					<path class="st30" d="M1149.7,1329.1l14.9,5.6c0,0,64.8-89.9,72.8-169c1.4-14.1,1-27.8-2.1-40.4c0,0,0.6-3.6,1.7-10
						c0.5-3,1.1-6.6,1.9-10.7c2.1-12.1,5-28.6,8.3-47.4c7.6-43.3,17.5-98.6,25.2-139.3l-4-1.3l-43.5-14l-9-28.6l-32.4-8.5
						c0,0-7.2,14.2-13.7,81.1c-1.2,8.8-2.3,18.5-3.1,28.9c-2.5,32-2.7,71.8,3.1,117.2c1.5,11.6,3.4,23.6,5.7,36
						c1.7,9,2,21.4,1.2,35.5C1173.4,1228.6,1149.7,1329.1,1149.7,1329.1z"/>
					<path class="st31" d="M1166.7,975.3l70.4,139.9c0.5-3,1.1-6.6,1.9-10.7c2.1-12.1,5-28.6,8.3-47.4
						c7.6-43.3,17.5-98.6,25.2-139.3l-4-1.3l-43.5-14l-9-28.6l-32.4-8.5c0,0-7.2,14.2-13.7,81.1
						C1168.6,955.1,1167.5,964.8,1166.7,975.3z"/>
					<path class="st30" d="M1197.6,883.2l1.6-14c27.3,7.2,100.2-20.2,100.2-20.2s26.4,23.2,23,78.9c-1.7,27.2-4.8,142.7-8,176.9
						c-1.2,12.4-2.2,21.2-2.6,24.7c0,0,0,0,0,0c-0.1,1.1,0.3,2.1,0.8,3c4.8,8.1,8.7,16.5,11.9,25.1c31.7,84.5-4.9,188.6-4.9,188.6
						l-9.5-3.8c0,0-20.8-115.9-37.8-167c-2.9-8.7-5.6-15.5-8.1-19.6c-7.4-11.9-14.2-31.3-20.4-54.4
						c-11.7-43.6-21.1-100.4-27.4-144.2C1215.6,957.4,1197.6,883.2,1197.6,883.2z"/>
					<path class="st2" d="M1145.5,713.8c8.6,4,18.9,6.7,31.4,7.4c46.9,2.6,57.6-38.6,59.5-65.9c-6.8-2.4-12.7-2.2-16.1-2
						c-3.3,0.2-6.8,0.5-9.7,0.9c-5.7-3-16-17.6-22-41.9l-2,0.9l-33.8,15.9c0,0,3.6,11,6.3,21.6c2.1,8.3,3.6,16.2,2.3,18.5
						c-2.7,1.1-4.3,1.8-4.3,1.8s0,0,0,0C1156.8,671.8,1149.4,690.5,1145.5,713.8z"/>
					<path class="st32" d="M1133.8,744.6c0.4,0.9,0.7,1.9,1.2,2.8c11.9,25.6,33.9,131.6,33.9,131.6c-3.1,19.1,143.2-3.7,143.6-21.1
						c5.2-18.4-18.3-48-31.5-62.8c-1.7-1.9-3.1-3.9-4.4-6c-3.3-5.3-5.3-11.3-6-17.5c-2.6-24.6-1.6-47.7-1.8-61.7l0,0
						c-2.6-1.9-5.1-3.7-7.4-5.4c-3.6-2.6-6.7-5-9-7.5c-2.5-2.7-4.1-5.4-4.3-8.5c-0.1-2.3-0.1-4.7,0.2-7.1c0.1-1.1,0.3-2.3,0.4-3.4
						c1.8-11.9,6.8-22.7,6.8-22.7c-12.6-5.1-35-2.1-35-2.1s0,1.2,0,3.3c0.1,8.2,0,29.2-2.6,33.1c-3.3,4.9-63.2,26.6-66.4,19.9
						c-3.1-6.6,5.4-37.5,5.7-38.7c0,0,0,0,0,0c-20.1,7.9-27.3,14.5-27.3,14.5C1142,693.2,1124.4,719.8,1133.8,744.6z"/>
					<path class="st33" d="M1152.8,629.1c0,0,3.6,11,6.3,21.6c19.8-5.5,25.8-26.3,27.6-37.5L1152.8,629.1z"/>
					<path class="st2" d="M1148.6,640.8c0,0,47.3-11,40.1-40.3c-7.3-29.4-6.1-50.6-36.6-44.8c-30.5,5.8-33.6,18.4-33.6,28.8
						C1118.6,594.8,1136.1,642.9,1148.6,640.8z"/>
					<path class="st29" d="M1115.9,567.7c5.1-10.6,11.1-10.1,14.8-8.2c22.2-20.6,44.1-3.8,44.1-3.8c8.4,20.3,26.6,28.6,26.6,28.6
						s-7.3,7.4-28.3,7.3c-6.4-0.1-12.9-3-18.8-7.1c11.4,11.4,24.7,18.4,24.7,18.4c-26.4-5.1-44.1-35.6-45.9-38.8
						c-2.2,3.3-6.5,10.3-6.9,16.3c-0.5,8.1,2.3,23.7-2.3,24.3C1123.8,604.7,1108.2,583.7,1115.9,567.7z"/>
					<path class="st32" d="M1129.8,685.4c0,0-11.4,19.9-13.1,25c0,0,14.8-0.6,20.8,10.8C1137.5,721.2,1138.9,688.1,1129.8,685.4z"/>
					<path class="st34" d="M1208.2,843.4c28.9-0.3,53.3-30.3,68.2-54.2c-3.3-5.3-5.3-11.3-6-17.5c-2.6-24.6-1.6-47.7-1.8-61.7l0,0
						c-2.6-1.9-5.1-3.7-7.4-5.4c-3.6-2.6-6.7-5-9-7.5C1228.6,737.1,1169.1,843.8,1208.2,843.4z"/>
					<path class="st31" d="M1264.4,1354.1h75.2c0,0,1.8-11.5-2.1-20.1c-3.8-8.3-9.7-12.1-8.2-22.2c-4.8,4.9-12.6,10.4-23.4,9
						c-1.3,2.2-8.6,13.7-13,16.9C1287.8,1341.2,1265.9,1339.9,1264.4,1354.1z"/>
					<path class="st31" d="M1103,1354.1h75.2c0,0,2.8-12-2.1-20.1c-4.4-7.2-2.7-11.3,0.5-17.3c-3.4,1.4-7.8,2.7-12.7,2.4
						c-3.7-0.2-7.7-1.9-11.2-3.9c-3.2,3.7-17.1,19.4-21.4,22.5C1126.4,1341.2,1104.5,1339.9,1103,1354.1z"/>
					<path class="st2" d="M1099.6,860.8l3.5,12.7c0,0,5-0.9,12.9-2.4c2.4-0.4,3.7-0.8,3.7-0.8c6.3-1.2,13.9-2.9,22.1-4.7h0.1
						c14.1-3.4,29.9-7.5,43.3-12c9.4-3.3,17.5-6.8,23-10.3c0.6-0.3,1-0.7,1.6-1.1c13.2-9.6,28.9-37.8,41.1-68.1
						c1.7-4.2,3.3-8.4,4.9-12.4c5.6-15.1,10.2-30.1,12.9-42.9c1.7-7.7,2.8-14.7,3.1-20.4c0.1-2,0.2-4,0.1-5.8
						c-0.2-32.8-16.5-37.3-16.5-37.3c-0.3-0.1-0.7-0.2-1.1-0.3c-2.8-0.4-5.8,1.5-8.8,5.2c-3.8,4.6-7.9,12.2-12.1,21.3
						c-6.4,14.6-13.2,33.4-19.5,52.2c-3.5,10.3-6.9,20.6-10.3,30c-1.9,5.8-3.8,11.2-5.6,16.1c-3.5,9.5-6.7,17.2-9.5,22
						c-1.8,3.2-7,7.6-13.9,12.5c-12,8.7-29.5,19.2-44.7,27.8c-6.3,3.6-11,7.9-16,10.6C1105.7,857.3,1099.6,860.8,1099.6,860.8z"/>
					<path class="st32" d="M1233.4,681.5c21.7-6,38.5,11,38.5,11c-0.3-32.7-16.5-37.2-16.5-37.2
						C1248.8,652.6,1241.2,664,1233.4,681.5z"/>
					<path class="st2" d="M1103.1,873.5c0,0-11.9,18.8-17.4,22.4c-5.5,3.6-13.4,10.7-16.2,9c-2.8-1.7,10.5-19.4,10.3-22.8
						c-0.2-3.5-0.5-6.2-0.5-6.2s-8.4,4.9-13.1,2.2c0,0,3.6-1.8,6.6-3.6c2.9-1.8,5.3-8,11.9-8.6c6.5-0.5,14.9-5.1,14.9-5.1
						L1103.1,873.5z"/>
				</g>
			</g>
		</g>
		<g>
			<rect x="2311.7" y="405.5" class="st7" width="46.9" height="292.4"/>
			<rect x="2390.8" y="324" class="st7" width="46.9" height="373.9"/>
			<rect x="2474.7" y="476.3" class="st7" width="46.9" height="221.7"/>
			<path class="st7" d="M2435.1,268.1h-39.8c-2.3,0-4.1,1.9-4.1,4.1c0,2.3,1.9,4.1,4.1,4.1h39.8c2.3,0,4.1-1.9,4.1-4.1
				C2439.2,270,2437.4,268.1,2435.1,268.1z"/>
			<path class="st7" d="M2404.4,291.3c2.3,0,4.1-1.9,4.1-4.1c0-2.3-1.9-4.1-4.1-4.1h-9.1c-2.3,0-4.1,1.9-4.1,4.1
				c0,2.3,1.9,4.1,4.1,4.1H2404.4z"/>
			<path class="st7" d="M2518,432.6h-39.8c-2.3,0-4.1,1.9-4.1,4.1l0,0c0,2.3,1.9,4.1,4.1,4.1h39.8c2.3,0,4.1-1.9,4.1-4.1l0,0
				C2522.1,434.5,2520.3,432.6,2518,432.6z"/>
			<path class="st7" d="M2478.3,455.8h9.1c2.3,0,4.1-1.9,4.1-4.1c0-2.3-1.9-4.1-4.1-4.1h-9.1c-2.3,0-4.1,1.9-4.1,4.1
				C2474.1,453.9,2476,455.8,2478.3,455.8z"/>
		</g>
	</g>
</g>
</svg>
