<?xml version="1.0" encoding="utf-8"?>
<!-- Generator: Adobe Illustrator 24.2.1, SVG Export Plug-In . SVG Version: 6.00 Build 0)  -->
<svg version="1.1" id="Layer_1" xmlns="http://www.w3.org/2000/svg" xmlns:xlink="http://www.w3.org/1999/xlink" x="0px" y="0px"
	 viewBox="0 0 887 403" style="enable-background:new 0 0 887 403;" xml:space="preserve">
<style type="text/css">
	.st0{fill:#FF9300;}
	.st1{fill:#FCB23D;}
	.st2{fill:#FFFFFF;}
</style>
<g>
	<g>
		<path class="st0" d="M334.82,201.5c0,92.46-74.95,167.41-167.41,167.41C74.95,368.91,0,293.96,0,201.5S74.95,34.09,167.41,34.09
			C259.87,34.09,334.82,109.04,334.82,201.5z"/>
		<circle class="st0" cx="719.59" cy="201.5" r="167.41"/>
		<path class="st1" d="M719.59,336.27c0,36.85-30.15,67-67,67H234.41c-36.85,0-67-30.15-67-67V66.73c0-36.85,30.15-67,67-67h418.19
			c36.85,0,67,30.15,67,67V336.27z"/>
		<g>
			<path class="st2" d="M672.47,244.53c0,26.64-21.8,48.44-48.44,48.44H261.59c-26.64,0-48.44-21.8-48.44-48.44V94.22
				c0-26.64,21.8-48.44,48.44-48.44h362.44c26.64,0,48.44,21.8,48.44,48.44V244.53z"/>
			<g>
				<path class="st2" d="M624.03,298.55H261.59c-29.79,0-54.02-24.23-54.02-54.02V94.22c0-29.79,24.24-54.02,54.02-54.02h362.44
					c29.79,0,54.02,24.23,54.02,54.02v150.31C678.05,274.32,653.82,298.55,624.03,298.55z M261.59,51.36
					c-23.63,0-42.86,19.23-42.86,42.86v150.31c0,23.63,19.22,42.86,42.86,42.86h362.44c23.63,0,42.86-19.23,42.86-42.86V94.22
					c0-23.63-19.22-42.86-42.86-42.86H261.59z"/>
			</g>
		</g>
	</g>
	<path class="st2" d="M143.16,190.45c0-4.09-3.35-7.44-7.44-7.44h-17.14c-4.09,0-7.44-3.34-7.44-7.44v-17.14
		c0-4.09-3.35-7.44-7.44-7.44H81.57c-4.09,0-7.44,3.35-7.44,7.44v17.14c0,4.1-3.35,7.44-7.44,7.44H49.55
		c-4.09,0-7.44,3.35-7.44,7.44v22.11c0,4.1,3.35,7.44,7.44,7.44h17.14c4.1,0,7.44,3.35,7.44,7.44v17.14c0,4.1,3.35,7.45,7.44,7.45
		h22.11c4.1,0,7.44-3.34,7.44-7.45v-17.14c0-4.09,3.35-7.44,7.44-7.44h17.14c4.1,0,7.44-3.34,7.44-7.44V190.45z"/>
	<g>
		<path class="st2" d="M817.36,154.43c0,11-8.92,19.91-19.92,19.91c-11,0-19.91-8.91-19.91-19.91c0-10.99,8.91-19.91,19.91-19.91
			C808.45,134.51,817.36,143.43,817.36,154.43z"/>
		<path class="st2" d="M817.36,248.58c0,10.99-8.92,19.91-19.92,19.91c-11,0-19.91-8.91-19.91-19.91c0-11,8.91-19.93,19.91-19.93
			C808.45,228.66,817.36,237.58,817.36,248.58z"/>
		<path class="st2" d="M844.52,221.41c-11,0-19.92-8.91-19.92-19.91s8.92-19.91,19.92-19.91c11,0,19.91,8.91,19.91,19.91
			S855.52,221.41,844.52,221.41z"/>
		<ellipse class="st2" cx="750.38" cy="201.5" rx="19.91" ry="19.91"/>
	</g>
</g>
</svg>
