<?xml version="1.0" encoding="utf-8"?>
<!-- Generator: Adobe Illustrator 24.2.1, SVG Export Plug-In . SVG Version: 6.00 Build 0)  -->
<svg version="1.1" id="Layer_1" xmlns="http://www.w3.org/2000/svg" xmlns:xlink="http://www.w3.org/1999/xlink" x="0px" y="0px"
	 viewBox="0 0 100 62" style="enable-background:new 0 0 100 62;" xml:space="preserve">
<style type="text/css">
	.st0{fill:#788EC7;}
	.st1{fill:#0056A7;}
	.st2{fill:#FD6D00;}
</style>
<g>
	<path class="st0" d="M43.16,19.05c1.02-2.1,2.74-3.73,4.77-4.42v-4.62h-9.29v8.15l1.4,0.88H43.16z"/>
	<path class="st1" d="M33.7,44.81c-0.15-0.15-0.3-0.3-0.44-0.46c-1.76-2.05-2.58-4.77-2.27-7.48c0.51-4.42,4.07-7.99,8.46-8.48
		c0.92-0.1,1.82-0.08,2.68,0.07v-4.98c0-1.58,0.38-3.09,1.03-4.42h-3.12l-1.4-0.88v-8.15h9.29v4.62c0.34-0.12,0.69-0.21,1.05-0.27
		c4.8-0.77,9.62-1.23,14.45-1.4V1.29c0-0.99-0.8-1.79-1.78-1.79H50.09h-9.04c-0.81,4.46-4.68,7.85-9.35,7.85
		c-4.67,0-8.54-3.39-9.35-7.85h-9.04H1.78C0.8-0.5,0,0.3,0,1.29v12.04c0,0.99,0.8,1.79,1.78,1.79h10.76v29.68H33.7z"/>
	<path class="st2" d="M46.14,45.49c0,0.16,0,0.32,0,0.48c0-0.08,0.02-0.16,0.02-0.24C46.16,45.65,46.14,45.57,46.14,45.49z"/>
	<path class="st1" d="M87.27,48.83c0,0.04,0,0.08,0,0.13h1.52v-1.76C88.6,47.96,88.02,48.58,87.27,48.83z"/>
	<path class="st1" d="M46.14,46.66c0,0.76,0,1.53,0,2.29h1.66c0-0.03,0-0.07,0-0.1C46.85,48.57,46.14,47.69,46.14,46.66z"/>
	<path class="st1" d="M47.8,48.95h0.61c-0.21,0-0.42-0.05-0.61-0.1C47.8,48.88,47.8,48.92,47.8,48.95z"/>
	<path class="st1" d="M86.59,48.95h0.68c0-0.04,0-0.08,0-0.13C87.05,48.9,86.83,48.95,86.59,48.95z"/>
	<path class="st1" d="M88.93,36.01c0-4.18,0-8.36,0-12.54c0-2.47-1.55-4.79-3.48-5.11c-11.87-1.9-23.96-1.9-35.83,0
		c-1.92,0.32-3.48,2.64-3.48,5.11c0,4.18,0,8.36,0,12.54h-0.2v12.95h43.38V36.01H88.93z"/>
	<path class="st0" d="M66.67,44.02c0-1.16-0.94-2.32-2.1-2.52c-5.18-0.85-10.46-0.85-15.65,0c-0.19,0.03-0.38,0.1-0.55,0.19
		c-0.89,0.41-1.55,1.37-1.55,2.34c0,0.21,0,0.43,0,0.64c0,0.08,0.01,0.15,0.02,0.22c-0.01,0.08-0.02,0.15-0.02,0.23
		c0,0.21,0,0.43,0,0.64c0,0.96,0.66,1.77,1.55,2.04c0.18,0.05,0.37,0.09,0.57,0.1c5.2,0,10.41,0,15.62,0
		c1.17-0.02,2.12-0.97,2.12-2.13c0-0.21,0-0.43,0-0.64c0-0.08-0.01-0.15-0.02-0.23c0.01-0.07,0.02-0.15,0.02-0.22
		C66.67,44.45,66.67,44.24,66.67,44.02z"/>
	<path class="st0" d="M88.19,44.02c0-0.17-0.03-0.34-0.07-0.51c-0.17-0.76-0.71-1.44-1.42-1.79c-0.2-0.1-0.4-0.18-0.62-0.22
		c-5.18-0.85-10.46-0.85-15.65,0c-1.16,0.21-2.1,1.37-2.1,2.52c0,0.21,0,0.43,0,0.64c0,0.08,0.01,0.15,0.02,0.22
		c-0.01,0.08-0.02,0.15-0.02,0.23c0,0.21,0,0.43,0,0.64c0,1.16,0.95,2.11,2.12,2.13c5.2,0,10.41,0,15.61,0
		c0.22,0,0.43-0.05,0.64-0.12c0.7-0.23,1.24-0.8,1.42-1.52c0.04-0.16,0.07-0.32,0.07-0.5c0-0.21,0-0.43,0-0.64
		c0-0.08-0.01-0.15-0.02-0.23c0.01-0.07,0.02-0.15,0.02-0.22C88.19,44.45,88.19,44.24,88.19,44.02z"/>
	<path class="st0" d="M99.96,37.34c-0.3-2.57-2.37-4.64-4.92-4.93c-2.95-0.33-5.5,1.64-6.11,4.36c-0.09,0.4-0.14,0.82-0.14,1.25
		c0,0.06,0.01,0.11,0.01,0.17h-0.01v6.08c0.04,0.18,0.07,0.36,0.07,0.55c0,0.23,0,0.46,0,0.69c0,0.08-0.02,0.16-0.02,0.24
		c0.01,0.08,0.02,0.16,0.02,0.24c0,0.23,0,0.46,0,0.69c0,0.18-0.03,0.36-0.07,0.53v1.76h-1.52h-0.68c-5.59,0-11.18,0-16.78,0h-4.62
		c-5.59,0-11.18,0-16.78,0H47.8h-1.66c0-0.76,0-1.53,0-2.29c0-0.23,0-0.46,0-0.69c0-0.16,0-0.32,0-0.48c0-0.23,0-0.46,0-0.69
		c0-2.21,0-4.42,0-6.62h-0.01c0-0.06,0.01-0.11,0.01-0.17c0-3.33-2.87-5.99-6.25-5.61c-2.55,0.29-4.62,2.36-4.92,4.93
		c-0.39,3.37,2.16,6.22,5.4,6.32v10.11c0,3.18,2.56,5.75,5.71,5.75h0.06h0.13h7.78h26.69h8.05h0.06h0.08v0
		c3.12-0.05,5.63-2.6,5.63-5.75V43.65C97.8,43.56,100.35,40.7,99.96,37.34z"/>
	<path class="st1" d="M46.14,59.65v0.03c0,1.56,1.25,2.82,2.8,2.82h2.45c1.55,0,2.8-1.26,2.8-2.82v-0.03c0-0.08-0.06-0.14-0.13-0.14
		h-7.78C46.2,59.51,46.14,59.57,46.14,59.65z"/>
	<path class="st1" d="M80.75,59.81c0,1.48,1.19,2.69,2.67,2.69h2.72c1.47,0,2.67-1.2,2.67-2.69v-0.3h-8.05V59.81z"/>
</g>
</svg>
