<?xml version="1.0" encoding="utf-8"?>
<!-- Generator: Adobe Illustrator 24.2.1, SVG Export Plug-In . SVG Version: 6.00 Build 0)  -->
<svg version="1.1" id="Layer_1" xmlns="http://www.w3.org/2000/svg" xmlns:xlink="http://www.w3.org/1999/xlink" x="0px" y="0px"
	 viewBox="0 0 100 62" style="enable-background:new 0 0 100 62;" xml:space="preserve">
<style type="text/css">
	.st0{fill:#788EC7;}
	.st1{fill:#0056A7;}
</style>
<g>
	<path class="st0" d="M67.06,57.99c0.66,0,1.21-0.54,1.21-1.21V29.94L50,11.68L31.74,29.94v26.84c0,0.67,0.54,1.21,1.21,1.21h7.73
		v-17.8c0-0.22,0.09-0.44,0.24-0.59c0.16-0.16,0.37-0.24,0.59-0.24h16.99c0.22,0,0.44,0.09,0.59,0.24c0.16,0.15,0.25,0.37,0.25,0.59
		v17.8H67.06z"/>
	<path class="st1" d="M27.72,33.96v22.82c0,2.88,2.34,5.22,5.22,5.22h34.11c2.88,0,5.22-2.34,5.22-5.22V33.96l-4.01-4.01v26.84
		c0,0.67-0.54,1.21-1.21,1.21h-7.73v2.62c0,0.22-0.09,0.43-0.25,0.59c-0.15,0.16-0.37,0.25-0.59,0.25H41.51
		c-0.22,0-0.44-0.09-0.59-0.25c-0.16-0.16-0.24-0.37-0.24-0.59v-2.62h-7.73c-0.67,0-1.21-0.54-1.21-1.21V29.94L27.72,33.96z"/>
	<path class="st1" d="M19.29,36.28l3.05,3.05l5.38-5.38l4.02-4.02L50,11.68l18.26,18.26l4.01,4.01l5.38,5.38l3.05-3.05
		c2.17-2.17,2.17-5.7,0-7.88L56.99,4.69L57,4.68l-3.05-3.05C52.86,0.54,51.43,0,50,0c-1.43,0-2.86,0.54-3.95,1.63L43,4.68l0.01,0.01
		L19.29,28.41C17.12,30.58,17.12,34.11,19.29,36.28z"/>
	<path class="st1" d="M41.51,39.35c-0.22,0-0.44,0.09-0.59,0.24c-0.16,0.15-0.24,0.37-0.24,0.59v17.8v2.62
		c0,0.22,0.09,0.43,0.24,0.59c0.16,0.16,0.37,0.25,0.59,0.25h16.99c0.22,0,0.44-0.09,0.59-0.25c0.16-0.16,0.25-0.37,0.25-0.59v-2.62
		v-17.8c0-0.22-0.09-0.44-0.25-0.59c-0.15-0.16-0.37-0.24-0.59-0.24H41.51z"/>
</g>
</svg>
