<?xml version="1.0" encoding="utf-8"?>
<!-- Generator: Adobe Illustrator 24.2.1, SVG Export Plug-In . SVG Version: 6.00 Build 0)  -->
<svg version="1.1" id="Layer_1" xmlns="http://www.w3.org/2000/svg" xmlns:xlink="http://www.w3.org/1999/xlink" x="0px" y="0px"
	 viewBox="0 0 100 62" style="enable-background:new 0 0 100 62;" xml:space="preserve">
<style type="text/css">
	.st0{fill:#0056A7;}
	.st1{fill:#788EC7;}
</style>
<g>
	<g>
		<path class="st0" d="M74.87,17.92L62.05,2.06c-1.04-1.28-3.21-2.2-4.85-2.05L18.95,3.5c-1.64,0.15-3.8,1.32-4.83,2.61L2.37,20.89
			c-1.03,1.29-1.86,3.67-1.86,5.32v20.88c0,1.65,1.34,2.98,2.98,2.98h90.98c1.65,0,2.98-1.34,2.98-2.98v-16.4
			c0-1.65-1.25-3.44-2.81-3.99l-15.1-5.44C78,20.69,75.91,19.2,74.87,17.92z"/>
		<g>
			<path class="st1" d="M37.18,7.83l-17.56,1.6c-0.24,0.06-0.73,0.32-0.82,0.4l-8.67,10.9h25.53L37.18,7.83z"/>
			<path class="st1" d="M38.66,20.72h30.81L57.57,6.02C57.55,6,57.51,5.99,57.49,5.98L40.21,7.56L38.66,20.72z"/>
		</g>
		<path class="st1" d="M48.52,27.68c0,0.83-0.68,1.51-1.51,1.51h-3.85c-0.83,0-1.51-0.68-1.51-1.51l0,0c0-0.84,0.68-1.51,1.51-1.51
			h3.85C47.85,26.16,48.52,26.84,48.52,27.68L48.52,27.68z"/>
		<path class="st1" d="M31.38,50.07c0,6.59-5.34,11.93-11.93,11.93c-6.59,0-11.93-5.34-11.93-11.93s5.34-11.93,11.93-11.93
			C26.04,38.13,31.38,43.48,31.38,50.07z"/>
		<path class="st0" d="M26.16,50.07c0,3.71-3,6.71-6.71,6.71c-3.71,0-6.71-3.01-6.71-6.71c0-3.71,3.01-6.71,6.71-6.71
			C23.16,43.36,26.16,46.36,26.16,50.07z"/>
		<path class="st1" d="M82.54,50.07C82.54,56.66,77.2,62,70.61,62c-6.59,0-11.93-5.34-11.93-11.93s5.34-11.93,11.93-11.93
			C77.2,38.13,82.54,43.48,82.54,50.07z"/>
		<path class="st0" d="M77.32,50.07c0,3.71-3.01,6.71-6.71,6.71c-3.71,0-6.71-3.01-6.71-6.71c0-3.71,3.01-6.71,6.71-6.71
			C74.32,43.36,77.32,46.36,77.32,50.07z"/>
		<path class="st1" d="M69.47,37.4c-0.52,0-0.94-0.42-0.94-0.94V23.18c0-0.52,0.42-0.94,0.94-0.94c0.52,0,0.94,0.42,0.94,0.94v13.28
			C70.41,36.98,69.99,37.4,69.47,37.4z"/>
		<path class="st1" d="M37.18,47.63c-0.52,0-0.94-0.42-0.94-0.94V24.85c0-0.52,0.42-0.94,0.94-0.94s0.94,0.42,0.94,0.94v21.84
			C38.12,47.21,37.7,47.63,37.18,47.63z"/>
	</g>
	<path class="st1" d="M99.48,39.78c0,3.73-2.03,6.75-2.03,6.75s-2.02-3.02-2.02-6.75c0-3.73,2.02-6.75,2.02-6.75
		S99.48,36.06,99.48,39.78z"/>
</g>
</svg>
