<?xml version="1.0" encoding="utf-8"?>
<!-- Generator: Adobe Illustrator 24.2.1, SVG Export Plug-In . SVG Version: 6.00 Build 0)  -->
<svg version="1.1" id="Layer_1" xmlns="http://www.w3.org/2000/svg" xmlns:xlink="http://www.w3.org/1999/xlink" x="0px" y="0px"
	 viewBox="0 0 100 62" style="enable-background:new 0 0 100 62;" xml:space="preserve">
<style type="text/css">
	.st0{fill:#0056A7;}
	.st1{fill:#788EC7;}
</style>
<g>
	<g>
		<path class="st0" d="M24.9,16.11C24.63,10.23,24,0,23.26,0c-0.7,0-1.32,9.51-1.61,15.46h-1.18C20.19,9.51,19.58,0,18.87,0
			c-0.71,0-1.32,9.51-1.61,15.46h-1.18C15.79,9.51,15.18,0,14.48,0c-0.71,0-1.32,9.51-1.61,15.46h-1.18C11.4,9.51,10.79,0,10.08,0
			C9.35,0,8.72,10.23,8.44,16.11h0.01c-0.2,5.21,2.77,9.46,6.67,10.3l-1.47,33.13c0,0-0.28,2.46,3.02,2.46
			c3.02,0,3.02-2.46,3.02-2.46l-1.48-33.18C22.05,25.39,25.1,21.2,24.9,16.11L24.9,16.11z"/>
		<path class="st0" d="M91.56,27.78V7.59c0-4.52-1.42-7.11-3.5-7.11C85.97,0.47,85,2.16,85,4.24v18.39l-1.62,36.45
			c0,0-0.29,2.46,3.02,2.46c3.02,0,3.02-2.46,3.02-2.46L88.4,36.02C90.03,34.91,91.56,32.22,91.56,27.78z"/>
	</g>
	<path class="st0" d="M79.96,31c0,15.2-12.32,27.52-27.53,27.52c-15.2,0-27.52-12.33-27.52-27.52c0-15.2,12.32-27.53,27.52-27.53
		C67.63,3.48,79.96,15.8,79.96,31z"/>
	<g>
		<path class="st1" d="M52.42,53.44c-12.38,0-22.44-10.07-22.44-22.44c0-12.38,10.06-22.45,22.44-22.45
			C64.8,8.55,74.86,18.63,74.86,31C74.86,43.38,64.8,53.44,52.42,53.44z M52.42,9.8c-11.69,0-21.2,9.51-21.2,21.2
			c0,11.69,9.51,21.2,21.2,21.2c11.69,0,21.2-9.51,21.2-21.2C73.62,19.31,64.11,9.8,52.42,9.8z"/>
	</g>
</g>
</svg>
