<?xml version="1.0" encoding="utf-8"?>
<!-- Generator: Adobe Illustrator 24.2.1, SVG Export Plug-In . SVG Version: 6.00 Build 0)  -->
<svg version="1.1" id="Layer_1" xmlns="http://www.w3.org/2000/svg" xmlns:xlink="http://www.w3.org/1999/xlink" x="0px" y="0px"
	 viewBox="0 0 58 66" style="enable-background:new 0 0 58 66;" xml:space="preserve">
<style type="text/css">
	.st0{fill:#307000;}
	.st1{fill:#367F00;}
	.st2{fill:#8BBF0D;}
	.st3{fill:#FFFFFF;}
	.st4{fill:#D5EE54;}
</style>
<g>
	<g>
		<g>
			<g>
				<path class="st0" d="M57.8,42.56L26.84,60.41c-0.34,0.2-0.93,0.17-1.33-0.05L7.32,49.9c-0.39-0.23-0.44-0.57-0.1-0.76
					l30.96-17.85c0.34-0.2,0.93-0.17,1.33,0.05L57.7,41.8C58.09,42.03,58.14,42.37,57.8,42.56z"/>
				<rect x="46.25" y="34.1" class="st0" width="11.77" height="8.13"/>
				<rect x="7" y="41.39" class="st0" width="11.77" height="8.13"/>
				<g>
					<path class="st1" d="M57.8,34.44L26.84,52.28c-0.34,0.2-0.93,0.17-1.33-0.05L7.32,41.77c-0.39-0.23-0.44-0.57-0.1-0.76
						l30.96-17.85c0.34-0.2,0.93-0.17,1.33,0.05L57.7,33.67C58.09,33.9,58.14,34.24,57.8,34.44z"/>
					<path class="st2" d="M52.31,35.86L29.3,49.13c-1.96-1.13-4.93-1.25-6.63-0.27l-9.48-5.45c1.7-0.98,1.48-2.69-0.48-3.81
						l23.02-13.27c1.96,1.13,4.93,1.25,6.63,0.27l9.48,5.45C50.14,33.02,50.35,34.73,52.31,35.86z"/>
					
						<ellipse transform="matrix(0.2227 -0.9749 0.9749 0.2227 -11.5048 61.0144)" class="st1" cx="32.51" cy="37.72" rx="4.92" ry="9.24"/>
					<g>
						
							<ellipse transform="matrix(0.2227 -0.9749 0.9749 0.2227 -23.5818 56.2642)" class="st1" cx="23.49" cy="42.92" rx="1.88" ry="3.52"/>
						
							<ellipse transform="matrix(0.2227 -0.9749 0.9749 0.2227 0.5723 65.7647)" class="st1" cx="41.53" cy="32.52" rx="1.88" ry="3.52"/>
					</g>
					<g>
						<g>
							<path class="st3" d="M32.19,36.99c-1.3,0.32-1.67,0.3-1.92,0.16c-0.24-0.14-0.31-0.42,0.29-0.77
								c0.63-0.36,1.24-0.46,1.5-0.51l0.43-0.07l-0.79-1.04l-0.41,0.07c-0.56,0.09-1.07,0.24-1.56,0.47l-1-0.58l-1.25,0.72
								l1.08,0.62c-0.72,0.7-0.6,1.47,0.34,2.01c1.18,0.68,2.63,0.44,4.01,0.08c1.2-0.3,1.61-0.2,1.86-0.06
								c0.38,0.22,0.26,0.6-0.3,0.92c-0.48,0.28-1.12,0.48-1.75,0.56l-0.48,0.06l0.82,1.03l0.38-0.04c0.6-0.06,1.33-0.28,1.93-0.56
								l1.04,0.6l1.26-0.72l-1.11-0.64c0.85-0.82,0.46-1.64-0.36-2.11C34.89,36.45,33.37,36.7,32.19,36.99z"/>
						</g>
					</g>
				</g>
			</g>
			<polygon class="st4" points="19.78,33.77 39.4,45.05 45.79,41.36 26.18,30.08 			"/>
			<polygon class="st4" points="45.79,41.36 39.4,45.05 39.4,53.17 45.79,49.49 			"/>
		</g>
		<g>
			<g>
				<path class="st0" d="M57.8,33.05L26.84,50.9c-0.34,0.2-0.93,0.17-1.33-0.05L7.32,40.38c-0.39-0.23-0.44-0.57-0.1-0.76
					l30.96-17.85c0.34-0.2,0.93-0.17,1.33,0.05L57.7,32.29C58.09,32.51,58.14,32.86,57.8,33.05z"/>
				<rect x="46.25" y="24.59" class="st0" width="11.77" height="8.13"/>
				<rect x="7" y="31.88" class="st0" width="11.77" height="8.13"/>
				<g>
					<path class="st1" d="M57.8,24.93L26.84,42.77c-0.34,0.2-0.93,0.17-1.33-0.05L7.32,32.26c-0.39-0.23-0.44-0.57-0.1-0.76
						l30.96-17.85c0.34-0.2,0.93-0.17,1.33,0.05L57.7,24.16C58.09,24.39,58.14,24.73,57.8,24.93z"/>
					<path class="st2" d="M52.31,26.35L29.3,39.61c-1.96-1.13-4.93-1.25-6.63-0.27l-9.48-5.45c1.7-0.98,1.48-2.69-0.48-3.81
						l23.02-13.27c1.96,1.13,4.93,1.25,6.63,0.27l9.48,5.45C50.14,23.51,50.35,25.22,52.31,26.35z"/>
					
						<ellipse transform="matrix(0.2227 -0.9749 0.9749 0.2227 -2.2322 53.6217)" class="st1" cx="32.51" cy="28.21" rx="4.92" ry="9.24"/>
					<g>
						<path class="st1" d="M25.57,32.21c1.53,0.88,1.84,2.13,0.69,2.79c-1.14,0.66-3.31,0.48-4.84-0.4
							c-1.53-0.88-1.84-2.13-0.69-2.79C21.87,31.16,24.04,31.34,25.57,32.21z"/>
						<path class="st1" d="M43.6,21.82c1.53,0.88,1.84,2.13,0.69,2.79c-1.14,0.66-3.31,0.48-4.84-0.4
							c-1.53-0.88-1.84-2.13-0.69-2.79C39.91,20.76,42.07,20.94,43.6,21.82z"/>
					</g>
					<g>
						<g>
							<path class="st3" d="M32.19,27.48c-1.3,0.32-1.67,0.3-1.92,0.16c-0.24-0.14-0.31-0.42,0.29-0.77
								c0.63-0.36,1.24-0.46,1.5-0.51l0.43-0.07l-0.79-1.04l-0.41,0.07c-0.56,0.09-1.07,0.24-1.56,0.47l-1-0.58l-1.25,0.72
								l1.08,0.62c-0.72,0.7-0.6,1.47,0.34,2.01c1.18,0.68,2.63,0.44,4.01,0.08c1.2-0.3,1.61-0.2,1.86-0.06
								c0.38,0.22,0.26,0.6-0.3,0.92c-0.48,0.28-1.12,0.48-1.75,0.56l-0.48,0.06l0.82,1.03l0.38-0.04c0.6-0.06,1.33-0.28,1.93-0.56
								l1.04,0.6l1.26-0.72l-1.11-0.64c0.85-0.82,0.46-1.64-0.36-2.11C34.89,26.94,33.37,27.18,32.19,27.48z"/>
						</g>
					</g>
				</g>
			</g>
			<polygon class="st4" points="19.78,24.26 39.4,35.53 45.79,31.85 26.18,20.57 			"/>
			<polygon class="st4" points="45.79,31.85 39.4,35.53 39.4,43.66 45.79,39.97 			"/>
		</g>
	</g>
	<g>
		<g>
			<path class="st0" d="M50.79,23.59L21.16,43.57c-0.32,0.22-0.92,0.24-1.33,0.04L0.95,34.45c-0.41-0.2-0.47-0.54-0.15-0.75
				l29.63-19.97c0.32-0.22,0.92-0.24,1.33-0.04l18.88,9.16C51.05,23.04,51.11,23.37,50.79,23.59z"/>
			
				<rect x="38.95" y="15.54" transform="matrix(0.9975 -0.0701 0.0701 0.9975 -1.2635 3.1904)" class="st0" width="11.77" height="8.13"/>
			
				<rect x="0.3" y="25.56" transform="matrix(0.9975 -0.0701 0.0701 0.9975 -2.0612 0.5064)" class="st0" width="11.77" height="8.13"/>
			<g>
				<path class="st1" d="M50.22,15.49L20.59,35.46c-0.32,0.22-0.92,0.24-1.33,0.04L0.38,26.34c-0.41-0.2-0.47-0.54-0.15-0.75
					L29.86,5.61c0.32-0.22,0.92-0.24,1.33-0.04l18.88,9.16C50.48,14.93,50.54,15.27,50.22,15.49z"/>
				<path class="st2" d="M44.85,17.29L22.82,32.14c-2.04-0.99-5-0.9-6.63,0.19l-9.84-4.77c1.62-1.09,1.29-2.78-0.75-3.77L27.63,8.93
					c2.04,0.99,5,0.9,6.63-0.19l9.84,4.77C42.48,14.61,42.81,16.3,44.85,17.29z"/>
				
					<ellipse transform="matrix(0.1539 -0.9881 0.9881 0.1539 1.0518 42.3004)" class="st1" cx="25.22" cy="20.54" rx="4.92" ry="9.24"/>
				<g>
					<path class="st1" d="M18.58,25.02c1.59,0.77,1.98,1.99,0.89,2.73c-1.1,0.74-3.27,0.71-4.86-0.06
						c-1.59-0.77-1.98-1.99-0.89-2.73C14.82,24.22,16.99,24.25,18.58,25.02z"/>
					<path class="st1" d="M35.84,13.38c1.59,0.77,1.98,1.99,0.89,2.73c-1.1,0.74-3.27,0.71-4.86-0.06
						c-1.59-0.77-1.98-1.99-0.89-2.73C32.08,12.59,34.25,12.61,35.84,13.38z"/>
				</g>
				<g>
					<g>
						<path class="st3" d="M24.85,19.83c-1.27,0.41-1.64,0.42-1.91,0.29c-0.25-0.12-0.34-0.4,0.23-0.79c0.6-0.41,1.2-0.55,1.46-0.61
							l0.42-0.1l-0.86-0.98l-0.4,0.09c-0.55,0.13-1.05,0.32-1.53,0.58l-1.04-0.5l-1.19,0.8l1.12,0.54c-0.67,0.75-0.5,1.51,0.48,1.99
							c1.23,0.6,2.65,0.26,4-0.2c1.18-0.39,1.59-0.31,1.85-0.19c0.4,0.19,0.3,0.58-0.23,0.94c-0.46,0.31-1.08,0.56-1.71,0.68
							l-0.47,0.09l0.89,0.97l0.38-0.07c0.6-0.11,1.3-0.37,1.89-0.7l1.08,0.52l1.2-0.81l-1.15-0.56c0.79-0.88,0.34-1.67-0.5-2.08
							C27.51,19.1,26.01,19.45,24.85,19.83z"/>
					</g>
				</g>
			</g>
		</g>
		<polygon class="st4" points="12.25,17.48 32.61,27.36 38.72,23.23 18.37,13.36 		"/>
		<polygon class="st4" points="38.72,23.23 32.61,27.36 33.18,35.46 39.29,31.34 		"/>
	</g>
</g>
</svg>
