<?xml version="1.0" encoding="utf-8"?>
<!-- Generator: Adobe Illustrator 24.2.1, SVG Export Plug-In . SVG Version: 6.00 Build 0)  -->
<svg version="1.1" id="Layer_1" xmlns="http://www.w3.org/2000/svg" xmlns:xlink="http://www.w3.org/1999/xlink" x="0px" y="0px"
	 viewBox="0 0 58 66" style="enable-background:new 0 0 58 66;" xml:space="preserve">
<style type="text/css">
	.st0{fill:#367F01;}
	.st1{fill:#89BD0E;}
	.st2{fill:#579903;}
	.st3{fill:#FFFFFF;}
	.st4{clip-path:url(#SVGID_1_);}
	.st5{fill:#F88800;}
	.st6{fill:#FDC800;}
	.st7{fill:#FDE501;}
	.st8{fill:#FD9D01;}
</style>
<g>
	<g>
		<path class="st0" d="M19.12,33.55L18.97,5.87c-0.01-2.43,1.94-4.4,4.37-4.42l12.86-0.07c2.43-0.01,4.4,1.94,4.42,4.37l0.14,27.68
			c0.01,2.43-1.94,4.4-4.37,4.42l-12.86,0.07C21.11,37.93,19.13,35.98,19.12,33.55z"/>
		<path class="st1" d="M20.75,27.06l-0.08-14.72c5.06-0.03,9.14-4.15,9.11-9.2l0,0c0.03,5.06,4.15,9.14,9.2,9.11l0.08,14.72
			c-5.06,0.03-9.14,4.15-9.11,9.2h0C29.93,31.11,25.81,27.04,20.75,27.06z"/>
		
			<ellipse transform="matrix(1 -5.172644e-03 5.172644e-03 1 -0.1013 0.1548)" class="st0" cx="29.87" cy="19.65" rx="8.01" ry="6.16"/>
		<g>
			
				<ellipse transform="matrix(1 -5.173259e-03 5.173259e-03 1 -0.0484 0.1544)" class="st0" cx="29.82" cy="9.44" rx="3.05" ry="2.35"/>
			
				<ellipse transform="matrix(1 -5.173259e-03 5.173259e-03 1 -0.1541 0.1552)" class="st0" cx="29.92" cy="29.87" rx="3.05" ry="2.35"/>
		</g>
		<path class="st1" d="M30.75,20.18c0.4-1.05,0.62-1.24,0.91-1.25c0.27,0,0.58,0.24,0.58,0.91c0,0.71-0.23,1.16-0.34,1.35
			l-0.17,0.31l1.43,0.57l0.16-0.3c0.22-0.4,0.35-0.85,0.4-1.35l1.11-0.01l-0.01-1.41l-1.19,0.01c-0.28-1.1-1.09-1.78-2.13-1.78
			c-1.31,0.01-1.87,1.06-2.28,2.2c-0.37,0.98-0.69,1.11-0.96,1.11c-0.42,0-0.72-0.44-0.72-1.07c0-0.54,0.15-1.11,0.42-1.54l0.2-0.33
			l-1.45-0.54l-0.17,0.26c-0.27,0.4-0.46,1.03-0.52,1.65l-1.15,0.01l0.01,1.42l1.22-0.01c0.33,1.29,1.33,1.87,2.23,1.86
			C29.79,22.25,30.39,21.15,30.75,20.18z"/>
	</g>
	<g>
		<path class="st0" d="M17.29,38.14l7.54-34.17c0.09-0.4,0.48-0.65,0.88-0.56l19.7,4.35c0.4,0.09,0.65,0.48,0.56,0.88l-7.54,34.17
			c-0.09,0.4-0.48,0.65-0.88,0.56l-19.7-4.35C17.45,38.93,17.2,38.54,17.29,38.14z"/>
		<path class="st1" d="M19.93,33.94L25.46,8.9c1.99,0.44,3.96-0.82,4.4-2.81l10.67,2.35c-0.44,1.99,0.82,3.96,2.81,4.4l-5.53,25.04
			c-1.99-0.44-3.96,0.82-4.4,2.81l-10.67-2.35C23.18,36.35,21.92,34.38,19.93,33.94z"/>
		
			<ellipse transform="matrix(0.2156 -0.9765 0.9765 0.2156 1.9717 49.2379)" class="st0" cx="31.63" cy="23.39" rx="6.16" ry="8.01"/>
		<g>
			<path class="st0" d="M33.33,15.71c-1.65-0.36-2.76-1.68-2.48-2.95c0.28-1.27,1.84-2,3.49-1.63s2.76,1.68,2.48,2.95
				C36.54,15.34,34.98,16.07,33.33,15.71z"/>
			
				<ellipse transform="matrix(0.2156 -0.9765 0.9765 0.2156 -9.4977 54.9128)" class="st0" cx="29.43" cy="33.37" rx="2.35" ry="3.05"/>
		</g>
		<path class="st1" d="M32.38,24.1c0.63-0.94,0.88-1.08,1.16-1.02c0.26,0.06,0.51,0.36,0.37,1.02c-0.15,0.7-0.48,1.08-0.62,1.24
			l-0.23,0.27l1.27,0.87l0.22-0.25c0.3-0.34,0.53-0.75,0.69-1.23l1.08,0.24l0.3-1.38l-1.16-0.26c-0.03-1.13-0.67-1.98-1.68-2.2
			c-1.28-0.28-2.06,0.62-2.71,1.64c-0.58,0.87-0.92,0.93-1.18,0.87c-0.41-0.09-0.6-0.58-0.47-1.2c0.12-0.53,0.39-1.04,0.75-1.41
			l0.27-0.28l-1.29-0.85l-0.22,0.21c-0.35,0.33-0.68,0.9-0.87,1.5l-1.12-0.25l-0.31,1.39l1.2,0.26c0.03,1.33,0.88,2.11,1.76,2.31
			C30.98,25.91,31.81,24.96,32.38,24.1z"/>
	</g>
	
		<ellipse transform="matrix(0.4267 -0.9044 0.9044 0.4267 -6.1128 45.5784)" class="st0" cx="32.9" cy="27.61" rx="6.16" ry="8.01"/>
	<path class="st0" d="M36.25,20.49c-1.53-0.72-2.31-2.25-1.76-3.43c0.55-1.17,2.24-1.54,3.76-0.82c1.53,0.72,2.31,2.25,1.76,3.43
		C39.46,20.85,37.78,21.21,36.25,20.49z"/>
	
		<ellipse transform="matrix(0.4267 -0.9044 0.9044 0.4267 -16.9681 46.9327)" class="st0" cx="28.54" cy="36.85" rx="2.35" ry="3.05"/>
	<path class="st1" d="M33.46,28.47c0.82-0.77,1.1-0.85,1.36-0.73c0.24,0.11,0.42,0.46,0.13,1.08c-0.3,0.64-0.71,0.94-0.88,1.07
		l-0.29,0.21l1.05,1.13l0.27-0.2c0.37-0.27,0.68-0.61,0.95-1.05l1,0.47l0.6-1.28l-1.08-0.51c0.22-1.11-0.21-2.08-1.15-2.52
		c-1.18-0.56-2.15,0.15-3.01,1c-0.76,0.72-1.11,0.7-1.35,0.59c-0.38-0.18-0.46-0.7-0.19-1.27c0.23-0.49,0.61-0.93,1.05-1.21
		l0.33-0.21l-1.07-1.11l-0.26,0.16c-0.42,0.25-0.86,0.73-1.18,1.27l-1.04-0.49l-0.61,1.29l1.11,0.52c-0.26,1.3,0.39,2.26,1.21,2.64
		C31.7,29.92,32.72,29.18,33.46,28.47z"/>
	<path class="st1" d="M53.24,55.88c-0.2,0.53-0.42,1.05-0.7,1.59c-0.54,1.05-1.24,2.14-2.13,3.25c-5.61,7.03-37.23,7.03-42.84,0
		c-2.35-2.94-3.39-5.66-3.56-8.17c-0.16-2.19,0.34-4.22,1.21-6.07c1.21-2.54,3.12-4.76,4.99-6.63c2.36-2.37,4.66-4.2,5.36-5.44
		c0.54-0.95,0.67-1.77,0.59-2.46c-0.09-0.56-0.32-1.04-0.61-1.43c-0.01-0.01-0.02-0.01-0.02-0.01c-0.76-0.99-1.91-1.44-1.91-1.44
		c-0.22-0.11-0.43-0.23-0.61-0.33c-0.01-0.01-0.02-0.02-0.02-0.02c-4.75-2.74-0.68-3.82,2.92-2.86c2.12,0.56,6.14,2.46,7.79,1.33
		c1.97-1.32,3.78-1.81,5.3-1.87c1.8,0,3.3,0.6,5.31,1.87c1.85,1.19,5.68-0.77,7.78-1.33c3.62-0.95,7.68,0.12,2.94,2.86
		c0,0-0.01,0.01-0.02,0.02c-0.18,0.1-0.39,0.22-0.61,0.33c0,0-1.59,0.62-2.26,2.01c-0.13,0.26-0.23,0.55-0.28,0.87
		c-0.09,0.7,0.05,1.5,0.59,2.47C44.27,37.71,57.27,45.05,53.24,55.88z"/>
	<path class="st2" d="M13.47,26.1c0,0-5.37,0.2,3.93,3.8c0,0,1.59,0.52,2.77,1.51c1.18,0.98,3.44,0,5.41-0.64
		c1.97-0.64,3.69,0.2,5.21,1.33c1.52,1.13,4.72,0.25,5.75-1.13c1.03-1.38,5.14-1,7.63-2.38c2.49-1.38,2.82-1.92,1.87-2.49
		c-0.95-0.57-4.49,0.1-7.21,1.28c-2.72,1.18-4.63,0.57-5.78-0.32c-1.51-1.16-5.26-2.09-8.7,0.35C21.67,29.31,17.34,26.19,13.47,26.1
		z"/>
	<path class="st0" d="M20.17,30.66c1.18,0.98,3.44,0,5.41-0.64c1.97-0.64,3.69,0.2,5.21,1.33c1.52,1.13,4.72,0.25,5.75-1.13
		c1.03-1.38,5.14-1,7.63-2.38c0.3-0.16,0.56-0.32,0.8-0.46l5.18-10.98c0.17-0.37,0.02-0.81-0.35-0.98L31.55,6.82
		c-0.37-0.17-0.81-0.02-0.98,0.35l-10.9,23.11C19.84,30.4,20.01,30.53,20.17,30.66z"/>
	
		<ellipse transform="matrix(0.8943 -0.4474 0.4474 0.8943 -6.8834 12.6511)" class="st0" cx="23.34" cy="20.9" rx="8.01" ry="6.16"/>
	<path class="st1" d="M25.58,30.02c1.97-0.64,3.69,0.2,5.21,1.33c1.52,1.13,4.72,0.25,5.75-1.13c0.84-1.12,3.7-1.08,6.08-1.76
		l4.03-8.54c-1.85-0.87-2.64-3.07-1.76-4.92L35,10.34c-0.87,1.85-3.07,2.64-4.92,1.76l-8.94,18.95
		C22.38,31.21,24.07,30.51,25.58,30.02z"/>
	<path class="st0" d="M17.41,29.15c0,0,1.59,0.52,2.77,1.51c1.18,0.98,3.44,0,5.41-0.64c1.97-0.64,3.69,0.2,5.21,1.33
		c1.52,1.13,4.72,0.25,5.75-1.13c0.48-0.65,1.65-0.9,3-1.14L25.19,0.41c-0.18-0.36-0.63-0.51-0.99-0.33L6.16,9.1
		C5.8,9.29,5.65,9.73,5.83,10.1l9,17.98C15.53,28.4,16.38,28.76,17.41,29.15z"/>
	<path class="st1" d="M17.41,29.15c0,0,1.59,0.52,2.77,1.51c1.18,0.98,3.44,0,5.41-0.64c1.97-0.64,3.69,0.2,5.21,1.33
		c1.1,0.81,3.05,0.58,4.45-0.12c0.12-1.23,0.84-2.37,2.03-2.96L25.79,5.33c-1.82,0.91-4.04,0.17-4.96-1.65l-9.77,4.89
		c0.91,1.83,0.17,4.04-1.65,4.96l7.78,15.54C17.26,29.1,17.33,29.13,17.41,29.15z"/>
	<path class="st1" d="M24.37,20.98c-0.1-1.12,0.01-1.39,0.26-1.52c0.24-0.12,0.63-0.04,0.93,0.56c0.32,0.64,0.3,1.14,0.3,1.36
		l-0.01,0.35l1.54-0.13l0.01-0.34c0.02-0.46-0.06-0.92-0.24-1.39l0.99-0.49l-0.63-1.26l-1.06,0.53c-0.74-0.86-1.77-1.12-2.7-0.65
		c-1.17,0.58-1.21,1.78-1.07,2.98c0.1,1.04-0.13,1.3-0.37,1.43c-0.38,0.19-0.84-0.07-1.12-0.64c-0.24-0.49-0.35-1.06-0.3-1.57
		l0.04-0.39l-1.54,0.16l-0.04,0.3c-0.06,0.48,0.04,1.12,0.27,1.71l-1.03,0.51l0.64,1.27l1.09-0.55c0.86,1.01,2.02,1.08,2.82,0.68
		C24.42,23.27,24.47,22.01,24.37,20.98z"/>
	<ellipse transform="matrix(0.971 -0.2391 0.2391 0.971 -4.8403 7.0347)" class="st0" cx="26.58" cy="23.47" rx="8.01" ry="6.16"/>
	<path class="st0" d="M24.69,15.83c-1.64,0.4-3.22-0.29-3.53-1.55c-0.31-1.26,0.77-2.61,2.4-3.01s3.22,0.29,3.53,1.55
		C27.41,14.08,26.33,15.42,24.69,15.83z"/>
	<path class="st1" d="M27.56,23.78c0.15-1.12,0.31-1.36,0.59-1.42c0.26-0.06,0.62,0.09,0.78,0.75c0.17,0.69,0.04,1.18-0.01,1.39
		l-0.09,0.34l1.53,0.22l0.09-0.33c0.12-0.44,0.14-0.91,0.07-1.41l1.07-0.26l-0.34-1.37l-1.16,0.28c-0.53-1-1.48-1.48-2.48-1.23
		c-1.27,0.31-1.57,1.47-1.71,2.67c-0.13,1.04-0.41,1.24-0.67,1.31c-0.41,0.1-0.8-0.26-0.95-0.87c-0.13-0.53-0.11-1.11,0.05-1.6
		l0.12-0.37l-1.53-0.19l-0.11,0.29c-0.17,0.46-0.21,1.11-0.12,1.73l-1.11,0.27l0.34,1.38l1.19-0.29c0.62,1.18,1.73,1.5,2.6,1.29
		C27.1,26.02,27.43,24.8,27.56,23.78z"/>
	<path class="st0" d="M16.77,28.9c0.21,0.08,0.42,0.17,0.64,0.25c0,0,1.59,0.52,2.77,1.51c1.18,0.98,3.44,0,5.41-0.64
		c1.97-0.64,3.69,0.2,5.21,1.33c1.52,1.13,4.72,0.25,5.75-1.13c0.43-0.58,1.41-0.85,2.59-1.07L32.9,3.89
		c-0.1-0.4-0.5-0.64-0.89-0.54L12.42,8.18c-0.4,0.1-0.64,0.5-0.54,0.89L16.77,28.9z"/>
	<path class="st1" d="M20.17,30.66c1.18,0.98,3.44,0,5.41-0.64c1.97-0.64,3.69,0.2,5.21,1.33c1.52,1.13,4.72,0.25,5.75-1.13
		c0.21-0.28,0.55-0.49,0.97-0.65L32.4,8.83c-1.98,0.49-3.98-0.72-4.47-2.7L17.32,8.74c0.49,1.98-0.72,3.98-2.7,4.47l4.06,16.5
		C19.16,29.95,19.7,30.27,20.17,30.66z"/>
	<path class="st0" d="M20.17,30.66c1.18,0.98,3.44,0,5.41-0.64c1.97-0.64,3.69,0.2,5.21,1.33c1.52,1.13,4.72,0.25,5.75-1.13
		c0.59-0.79,2.18-1,3.9-1.3L40.09,9.01c-0.01-0.41-0.34-0.73-0.75-0.73L19.17,8.64c-0.41,0.01-0.73,0.34-0.73,0.75l0.36,20.37
		C19.25,30,19.74,30.3,20.17,30.66z"/>
	<path class="st1" d="M25.58,30.02c1.97-0.64,3.69,0.2,5.21,1.33c1.52,1.13,4.72,0.25,5.75-1.13c0.39-0.52,1.22-0.79,2.24-1
		L38.5,13.71c-2.04,0.04-3.72-1.59-3.76-3.63l-10.92,0.19c0.04,2.04-1.59,3.72-3.63,3.76l0.3,16.83
		C21.73,31.48,23.78,30.61,25.58,30.02z"/>
	<g>
		<path class="st0" d="M29.44,18.82c-1.69,0.03-3.07-1-3.1-2.29c-0.02-1.3,1.33-2.37,3.01-2.4s3.07,1,3.1,2.29
			S31.12,18.79,29.44,18.82z"/>
	</g>
	<path class="st1" d="M30.47,27.21c0.39-1.06,0.61-1.25,0.89-1.26c0.27,0,0.58,0.23,0.6,0.91c0.01,0.71-0.22,1.16-0.32,1.35
		l-0.16,0.31l1.44,0.55l0.16-0.3c0.21-0.41,0.34-0.85,0.38-1.36l1.11-0.02l-0.03-1.41l-1.19,0.02c-0.29-1.09-1.11-1.77-2.15-1.75
		c-1.31,0.02-1.86,1.09-2.26,2.23c-0.36,0.98-0.68,1.12-0.95,1.13c-0.42,0.01-0.72-0.43-0.73-1.06c-0.01-0.54,0.14-1.11,0.4-1.55
		l0.2-0.33l-1.45-0.52l-0.17,0.26c-0.26,0.41-0.45,1.03-0.5,1.66l-1.15,0.02l0.03,1.42l1.22-0.02c0.34,1.28,1.35,1.85,2.25,1.83
		C29.53,29.29,30.11,28.18,30.47,27.21z"/>
	<g>
		<path class="st3" d="M30,46.88c-1.98-0.68-2.34-1.05-2.34-1.52c0-0.45,0.45-0.97,1.73-0.97c1.34,0,2.18,0.4,2.54,0.57l0.59,0.28
			l1.08-2.39l-0.55-0.27c-0.76-0.37-1.59-0.6-2.54-0.68v-1.85h-2.66v1.99c-2.06,0.46-3.37,1.8-3.37,3.54c0,2.18,1.98,3.13,4.11,3.83
			c1.84,0.62,2.09,1.17,2.09,1.62c0,0.7-0.83,1.19-2.02,1.19c-1.02,0-2.08-0.26-2.9-0.72l-0.62-0.34l-1.03,2.41l0.48,0.29
			c0.76,0.45,1.93,0.78,3.1,0.88v1.92h2.68V54.6c2.43-0.53,3.52-2.2,3.52-3.7C33.89,48.51,31.81,47.49,30,46.88z"/>
	</g>
	<g>
		<defs>
			<path id="SVGID_15_" d="M13.47,25.36c0,0-5.37,0.2,3.93,3.8c0,0,1.59,0.52,2.77,1.51c1.18,0.98,3.44,0,5.41-0.64
				c1.97-0.64,3.69,0.2,5.21,1.33c1.52,1.13,4.72,0.25,5.75-1.13c1.03-1.38,5.14-1,7.63-2.38c2.49-1.38,2.82-1.92,1.87-2.49
				c-0.95-0.57-4.41-13.88-6.43-16.05C34.84,4.19,28.57,6.9,25.13,9.34C22.45,11.25,11.67,16.7,13.47,25.36z"/>
		</defs>
		<clipPath id="SVGID_1_">
			<use xlink:href="#SVGID_15_"  style="overflow:visible;"/>
		</clipPath>
		<g class="st4">
			<g>
				<circle class="st5" cx="18.65" cy="24.48" r="4.75"/>
				<path class="st6" d="M23.46,25.28c-0.67,2.5-3.17,4.01-5.67,3.49c-0.09-0.02-0.17-0.04-0.26-0.06c-0.15-0.04-0.3-0.09-0.45-0.14
					c-0.16-0.06-0.32-0.13-0.47-0.2c-0.33-0.17-0.64-0.37-0.92-0.6c-0.07-0.06-0.14-0.12-0.2-0.18c-0.11-0.1-0.22-0.21-0.32-0.33
					c-1.05-1.18-1.51-2.85-1.07-4.49c0.67-2.5,3.17-4.01,5.67-3.49c0.09,0.02,0.17,0.04,0.26,0.06c0.06,0.02,0.12,0.03,0.18,0.05
					c0.09,0.03,0.17,0.05,0.26,0.09c0.35,0.13,0.68,0.3,0.98,0.5c0.14,0.09,0.28,0.2,0.41,0.3c0.19,0.16,0.37,0.33,0.53,0.51
					C23.44,21.97,23.9,23.64,23.46,25.28z"/>
				
					<ellipse transform="matrix(0.22 -0.9755 0.9755 0.22 -8.7901 37.0564)" class="st5" cx="18.78" cy="24.02" rx="3.99" ry="3.99"/>
				
					<ellipse transform="matrix(0.2588 -0.9659 0.9659 0.2588 -9.4708 36.0186)" class="st7" cx="18.73" cy="24.18" rx="3.83" ry="3.99"/>
				
					<ellipse transform="matrix(0.2588 -0.9659 0.9659 0.2588 -9.2893 35.9433)" class="st8" cx="18.78" cy="24.02" rx="3.81" ry="3.99"/>
				<path class="st5" d="M18.97,23.71c-0.63-0.22-0.74-0.33-0.74-0.48c0-0.14,0.14-0.31,0.55-0.31c0.43,0,0.69,0.13,0.81,0.18
					l0.19,0.09l0.34-0.76l-0.18-0.09c-0.24-0.12-0.51-0.19-0.81-0.22v-0.59h-0.84v0.63c-0.66,0.14-1.07,0.57-1.07,1.12
					c0,0.69,0.63,0.99,1.31,1.22c0.58,0.2,0.66,0.37,0.66,0.51c0,0.22-0.26,0.38-0.64,0.38c-0.32,0-0.66-0.08-0.92-0.23l-0.2-0.11
					l-0.33,0.77l0.15,0.09c0.24,0.14,0.61,0.25,0.99,0.28v0.61h0.85v-0.65c0.77-0.17,1.12-0.7,1.12-1.18
					C20.21,24.23,19.55,23.91,18.97,23.71z"/>
				<path class="st6" d="M19.1,23.56c-0.63-0.22-0.74-0.33-0.74-0.48c0-0.14,0.14-0.31,0.55-0.31c0.43,0,0.69,0.13,0.81,0.18
					l0.19,0.09l0.34-0.76l-0.18-0.09c-0.24-0.12-0.51-0.19-0.81-0.22v-0.59h-0.84v0.63c-0.66,0.14-1.07,0.57-1.07,1.12
					c0,0.69,0.63,0.99,1.31,1.22c0.58,0.2,0.66,0.37,0.66,0.51c0,0.22-0.26,0.38-0.64,0.38c-0.32,0-0.66-0.08-0.92-0.23l-0.2-0.11
					l-0.33,0.77l0.15,0.09c0.24,0.14,0.61,0.25,0.99,0.28v0.61h0.85v-0.65c0.77-0.17,1.12-0.7,1.12-1.18
					C20.33,24.08,19.67,23.75,19.1,23.56z"/>
				<g>
					<path class="st3" d="M19.78,23.87l-0.5,0.87c0.02,0.05,0.03,0.09,0.03,0.13c0,0.15-0.11,0.26-0.3,0.32l-0.65,1.13v0.33H19
						l0.21-0.36v-0.29c0.07-0.02,0.14-0.04,0.2-0.06l0.86-1.49C20.18,24.21,20,24.02,19.78,23.87z"/>
					<path class="st3" d="M17.97,25.99l0.44-0.75c-0.24-0.03-0.47-0.1-0.66-0.21l-0.2-0.11l-0.33,0.77l0.15,0.09
						C17.53,25.86,17.74,25.94,17.97,25.99z"/>
					<path class="st3" d="M18.52,22.84c0.09-0.04,0.21-0.07,0.38-0.07c0.43,0,0.69,0.13,0.81,0.18l0.02,0.01l0.42-0.72l-0.08-0.04
						c-0.24-0.12-0.51-0.19-0.81-0.22v-0.4L18.52,22.84z"/>
					<path class="st3" d="M18.36,23.13l-0.51,0.88c0.23,0.15,0.5,0.26,0.79,0.36c0.08,0.03,0.15,0.06,0.22,0.08l0.46-0.8
						c-0.08-0.03-0.16-0.06-0.23-0.09C18.54,23.37,18.39,23.25,18.36,23.13z"/>
					<path class="st3" d="M19.06,21.39h-0.51l-0.14,0.24v0.39c-0.1,0.02-0.19,0.05-0.27,0.08l-0.76,1.31
						c0.05,0.17,0.14,0.3,0.26,0.42L19.06,21.39z"/>
					<path class="st3" d="M20.21,19.39c-0.06-0.02-0.12-0.04-0.18-0.05c-0.09-0.02-0.18-0.04-0.26-0.06l-0.46,0.79
						c0.15,0.02,0.3,0.05,0.46,0.09L20.21,19.39z"/>
					<path class="st3" d="M20.46,19.48l-0.44,0.76c0.36,0.12,0.69,0.28,0.99,0.48l0.43-0.75C21.14,19.78,20.81,19.61,20.46,19.48z"
						/>
					<path class="st3" d="M21.85,20.28l-0.44,0.76c0.19,0.17,0.36,0.35,0.51,0.55l0.46-0.79C22.22,20.61,22.05,20.44,21.85,20.28z"
						/>
					<path class="st3" d="M15.62,26.46l-0.46,0.79c0.1,0.11,0.21,0.22,0.32,0.33l0.44-0.77C15.82,26.7,15.72,26.59,15.62,26.46z"/>
					<path class="st3" d="M15.69,27.76c0.28,0.23,0.59,0.43,0.92,0.6l0.43-0.74c-0.34-0.16-0.64-0.37-0.91-0.61L15.69,27.76z"/>
					<path class="st3" d="M17.51,27.81l-0.44,0.76c0.15,0.05,0.3,0.1,0.45,0.14c0.09,0.02,0.18,0.04,0.26,0.06l0.46-0.79
						c-0.17-0.02-0.33-0.05-0.5-0.1C17.66,27.86,17.59,27.83,17.51,27.81z"/>
				</g>
			</g>
			<g>
				
					<ellipse transform="matrix(0.3481 -0.9375 0.9375 0.3481 -1.5524 44.5667)" class="st5" cx="31.27" cy="23.4" rx="4.75" ry="4.75"/>
				<path class="st6" d="M36.07,24.2c-0.67,2.5-3.17,4.01-5.67,3.49c-0.09-0.02-0.17-0.04-0.26-0.06c-0.15-0.04-0.3-0.09-0.45-0.14
					c-0.16-0.06-0.32-0.13-0.47-0.2c-0.33-0.17-0.64-0.37-0.92-0.6c-0.07-0.06-0.14-0.12-0.2-0.18c-0.11-0.1-0.22-0.21-0.32-0.33
					c-1.05-1.18-1.51-2.85-1.07-4.49c0.67-2.5,3.17-4.01,5.67-3.49c0.09,0.02,0.17,0.04,0.26,0.06c0.06,0.02,0.12,0.03,0.18,0.05
					c0.09,0.03,0.17,0.05,0.26,0.09c0.35,0.13,0.68,0.3,0.98,0.5c0.14,0.09,0.28,0.2,0.41,0.3c0.19,0.16,0.37,0.33,0.53,0.51
					C36.05,20.89,36.51,22.56,36.07,24.2z"/>
				
					<ellipse transform="matrix(0.6662 -0.7458 0.7458 0.6662 -6.6354 31.0681)" class="st5" cx="31.39" cy="22.95" rx="3.99" ry="3.99"/>
				
					<ellipse transform="matrix(0.2588 -0.9659 0.9659 0.2588 0.9189 47.4026)" class="st7" cx="31.35" cy="23.1" rx="3.83" ry="3.99"/>
				
					<ellipse transform="matrix(0.2588 -0.9659 0.9659 0.2588 1.1016 47.3288)" class="st8" cx="31.39" cy="22.95" rx="3.81" ry="3.99"/>
				<path class="st5" d="M31.59,22.64c-0.63-0.22-0.74-0.33-0.74-0.48c0-0.14,0.14-0.31,0.55-0.31c0.43,0,0.69,0.13,0.81,0.18
					l0.19,0.09l0.34-0.76l-0.18-0.09c-0.24-0.12-0.51-0.19-0.81-0.22v-0.59H30.9v0.63c-0.66,0.14-1.07,0.57-1.07,1.12
					c0,0.69,0.63,0.99,1.31,1.22c0.58,0.2,0.66,0.37,0.66,0.51c0,0.22-0.26,0.38-0.64,0.38c-0.32,0-0.66-0.08-0.92-0.23l-0.2-0.11
					l-0.33,0.77l0.15,0.09c0.24,0.14,0.61,0.25,0.99,0.28v0.61h0.85v-0.65c0.77-0.17,1.12-0.7,1.12-1.18
					C32.82,23.15,32.16,22.83,31.59,22.64z"/>
				<path class="st6" d="M31.71,22.48c-0.63-0.22-0.74-0.33-0.74-0.48c0-0.14,0.14-0.31,0.55-0.31c0.43,0,0.69,0.13,0.81,0.18
					l0.19,0.09l0.34-0.76l-0.18-0.09c-0.24-0.12-0.51-0.19-0.81-0.22v-0.59h-0.84v0.63c-0.66,0.14-1.07,0.57-1.07,1.12
					c0,0.69,0.63,0.99,1.31,1.22c0.58,0.2,0.66,0.37,0.66,0.51c0,0.22-0.26,0.38-0.64,0.38c-0.32,0-0.66-0.08-0.92-0.23l-0.2-0.11
					l-0.33,0.77l0.15,0.09c0.24,0.14,0.61,0.25,0.99,0.28v0.61h0.85v-0.65c0.77-0.17,1.12-0.7,1.12-1.18
					C32.94,23,32.28,22.68,31.71,22.48z"/>
				<g>
					<path class="st3" d="M32.39,22.8l-0.5,0.87c0.02,0.05,0.03,0.09,0.03,0.13c0,0.15-0.11,0.26-0.3,0.32l-0.65,1.13v0.33h0.64
						l0.21-0.36v-0.29c0.07-0.02,0.14-0.04,0.2-0.06l0.86-1.49C32.79,23.13,32.61,22.94,32.39,22.8z"/>
					<path class="st3" d="M30.59,24.91l0.44-0.75c-0.24-0.03-0.47-0.1-0.66-0.21l-0.2-0.11l-0.33,0.77l0.15,0.09
						C30.14,24.79,30.36,24.86,30.59,24.91z"/>
					<path class="st3" d="M31.14,21.76c0.09-0.04,0.21-0.07,0.38-0.07c0.43,0,0.69,0.13,0.81,0.18l0.02,0.01l0.42-0.72l-0.08-0.04
						c-0.24-0.12-0.51-0.19-0.81-0.22v-0.4L31.14,21.76z"/>
					<path class="st3" d="M30.97,22.05l-0.51,0.88c0.23,0.15,0.5,0.26,0.79,0.36c0.08,0.03,0.15,0.06,0.22,0.08l0.46-0.8
						c-0.08-0.03-0.16-0.06-0.23-0.09C31.16,22.29,31,22.18,30.97,22.05z"/>
					<path class="st3" d="M31.67,20.31h-0.51l-0.14,0.24v0.39c-0.1,0.02-0.19,0.05-0.27,0.08l-0.76,1.31
						c0.05,0.17,0.14,0.3,0.26,0.42L31.67,20.31z"/>
					<path class="st3" d="M32.82,18.32c-0.06-0.02-0.12-0.04-0.18-0.05c-0.09-0.02-0.18-0.04-0.26-0.06l-0.46,0.79
						c0.15,0.02,0.3,0.05,0.46,0.09L32.82,18.32z"/>
					<path class="st3" d="M33.08,18.4l-0.44,0.76c0.36,0.12,0.69,0.28,0.99,0.48l0.43-0.75C33.76,18.7,33.43,18.53,33.08,18.4z"/>
					<path class="st3" d="M34.47,19.2l-0.44,0.76c0.19,0.17,0.36,0.35,0.51,0.55L35,19.72C34.84,19.53,34.66,19.36,34.47,19.2z"/>
					<path class="st3" d="M28.23,25.39l-0.46,0.79c0.1,0.11,0.21,0.22,0.32,0.33l0.44-0.77C28.43,25.63,28.33,25.51,28.23,25.39z"/>
					<path class="st3" d="M28.3,26.68c0.28,0.23,0.59,0.43,0.92,0.6l0.43-0.74c-0.34-0.16-0.64-0.37-0.91-0.61L28.3,26.68z"/>
					<path class="st3" d="M30.12,26.73l-0.44,0.76c0.15,0.05,0.3,0.1,0.45,0.14c0.09,0.02,0.18,0.04,0.26,0.06l0.46-0.79
						c-0.17-0.02-0.33-0.05-0.5-0.1C30.28,26.78,30.2,26.75,30.12,26.73z"/>
				</g>
			</g>
			<g>
				
					<ellipse transform="matrix(0.8021 -0.5972 0.5972 0.8021 -10.9355 19.9924)" class="st5" cx="24.7" cy="26.5" rx="4.75" ry="4.75"/>
				<path class="st6" d="M29.5,27.3c-0.67,2.5-3.17,4.01-5.67,3.49c-0.09-0.02-0.17-0.04-0.26-0.06c-0.15-0.04-0.3-0.09-0.45-0.14
					c-0.16-0.06-0.32-0.13-0.47-0.2c-0.33-0.17-0.64-0.37-0.92-0.6c-0.07-0.06-0.14-0.12-0.2-0.18c-0.11-0.1-0.22-0.21-0.32-0.33
					c-1.05-1.18-1.51-2.85-1.07-4.49c0.67-2.5,3.17-4.01,5.67-3.49c0.09,0.02,0.17,0.04,0.26,0.06c0.06,0.02,0.12,0.03,0.18,0.05
					c0.09,0.03,0.17,0.05,0.26,0.09c0.35,0.13,0.68,0.3,0.98,0.5c0.14,0.09,0.28,0.2,0.41,0.3c0.19,0.16,0.37,0.33,0.53,0.51
					C29.48,23.99,29.94,25.66,29.5,27.3z"/>
				
					<ellipse transform="matrix(0.438 -0.899 0.899 0.438 -9.4636 36.9483)" class="st5" cx="24.82" cy="26.04" rx="3.99" ry="3.99"/>
				
					<ellipse transform="matrix(0.2588 -0.9659 0.9659 0.2588 -6.9425 43.3498)" class="st7" cx="24.78" cy="26.2" rx="3.83" ry="3.99"/>
				<path class="st8" d="M28.67,27.08c-0.54,2.03-2.71,3.22-4.84,2.64c-2.13-0.57-3.42-2.68-2.87-4.71
					c0.54-2.03,2.71-3.22,4.84-2.64C27.93,22.94,29.22,25.04,28.67,27.08z"/>
				<path class="st5" d="M25.02,25.73c-0.63-0.22-0.74-0.33-0.74-0.48c0-0.14,0.14-0.31,0.55-0.31c0.43,0,0.69,0.13,0.81,0.18
					l0.19,0.09l0.34-0.76l-0.18-0.09c-0.24-0.12-0.51-0.19-0.81-0.22v-0.59h-0.84v0.63c-0.66,0.14-1.07,0.57-1.07,1.12
					c0,0.69,0.63,0.99,1.31,1.22c0.58,0.2,0.66,0.37,0.66,0.51c0,0.22-0.26,0.38-0.64,0.38c-0.32,0-0.66-0.08-0.92-0.23l-0.2-0.11
					l-0.33,0.77l0.15,0.09c0.24,0.14,0.61,0.25,0.99,0.28v0.61h0.85v-0.65c0.77-0.17,1.12-0.7,1.12-1.18
					C26.25,26.25,25.59,25.93,25.02,25.73z"/>
				<path class="st6" d="M25.14,25.58c-0.63-0.22-0.74-0.33-0.74-0.48c0-0.14,0.14-0.31,0.55-0.31c0.43,0,0.69,0.13,0.81,0.18
					l0.19,0.09l0.34-0.76l-0.18-0.09c-0.24-0.12-0.51-0.19-0.81-0.22v-0.59h-0.84v0.63c-0.66,0.14-1.07,0.57-1.07,1.12
					c0,0.69,0.63,0.99,1.31,1.22c0.58,0.2,0.66,0.37,0.66,0.51c0,0.22-0.26,0.38-0.64,0.38c-0.32,0-0.66-0.08-0.92-0.23l-0.2-0.11
					l-0.33,0.77l0.15,0.09c0.24,0.14,0.61,0.25,0.99,0.28v0.61h0.85v-0.65c0.77-0.17,1.12-0.7,1.12-1.18
					C26.37,26.09,25.71,25.77,25.14,25.58z"/>
				<g>
					<path class="st3" d="M25.82,25.89l-0.5,0.87c0.02,0.05,0.03,0.09,0.03,0.13c0,0.15-0.11,0.26-0.3,0.32l-0.65,1.13v0.33h0.64
						l0.21-0.36v-0.29c0.07-0.02,0.14-0.04,0.2-0.06l0.86-1.49C26.22,26.23,26.04,26.04,25.82,25.89z"/>
					<path class="st3" d="M24.02,28.01l0.44-0.75c-0.24-0.03-0.47-0.1-0.66-0.21l-0.2-0.11l-0.33,0.77l0.15,0.09
						C23.57,27.88,23.79,27.96,24.02,28.01z"/>
					<path class="st3" d="M24.57,24.86c0.09-0.04,0.21-0.07,0.38-0.07c0.43,0,0.69,0.13,0.81,0.18l0.02,0.01l0.42-0.72l-0.08-0.04
						c-0.24-0.12-0.51-0.19-0.81-0.22v-0.4L24.57,24.86z"/>
					<path class="st3" d="M24.4,25.14l-0.51,0.88c0.23,0.15,0.5,0.26,0.79,0.36c0.08,0.03,0.15,0.06,0.22,0.08l0.46-0.8
						c-0.08-0.03-0.16-0.06-0.23-0.09C24.59,25.38,24.43,25.27,24.4,25.14z"/>
					<path class="st3" d="M25.1,23.41h-0.51l-0.14,0.24v0.39c-0.1,0.02-0.19,0.05-0.27,0.08l-0.76,1.31
						c0.05,0.17,0.14,0.3,0.26,0.42L25.1,23.41z"/>
					<path class="st3" d="M26.25,21.41c-0.06-0.02-0.12-0.04-0.18-0.05c-0.09-0.02-0.18-0.04-0.26-0.06l-0.46,0.79
						c0.15,0.02,0.3,0.05,0.46,0.09L26.25,21.41z"/>
					<path class="st3" d="M26.51,21.5l-0.44,0.76c0.36,0.12,0.69,0.28,0.99,0.48L27.49,22C27.18,21.8,26.86,21.63,26.51,21.5z"/>
					<path class="st3" d="M27.9,22.3l-0.44,0.76c0.19,0.17,0.36,0.35,0.51,0.55l0.46-0.79C28.27,22.63,28.09,22.46,27.9,22.3z"/>
					<path class="st3" d="M21.66,28.48l-0.46,0.79c0.1,0.11,0.21,0.22,0.32,0.33l0.44-0.77C21.86,28.72,21.76,28.6,21.66,28.48z"/>
					<path class="st3" d="M21.73,29.78c0.28,0.23,0.59,0.43,0.92,0.6l0.43-0.74c-0.34-0.16-0.64-0.37-0.91-0.61L21.73,29.78z"/>
					<path class="st3" d="M23.55,29.82l-0.44,0.76c0.15,0.05,0.3,0.1,0.45,0.14c0.09,0.02,0.18,0.04,0.26,0.06L24.28,30
						c-0.17-0.02-0.33-0.05-0.5-0.1C23.71,29.88,23.63,29.85,23.55,29.82z"/>
				</g>
			</g>
			<g>
				
					<ellipse transform="matrix(0.0578 -0.9983 0.9983 0.0578 13.8082 59.7115)" class="st5" cx="38.54" cy="22.54" rx="4.75" ry="4.75"/>
				<path class="st6" d="M43.34,23.34c-0.67,2.5-3.17,4.01-5.67,3.49c-0.09-0.02-0.17-0.04-0.26-0.06c-0.15-0.04-0.3-0.09-0.45-0.14
					c-0.16-0.06-0.32-0.13-0.47-0.2c-0.33-0.17-0.64-0.37-0.92-0.6c-0.07-0.06-0.14-0.12-0.2-0.18c-0.11-0.1-0.22-0.21-0.32-0.33
					c-1.05-1.18-1.51-2.85-1.07-4.49c0.67-2.5,3.17-4.01,5.67-3.49c0.09,0.02,0.17,0.04,0.26,0.06c0.06,0.02,0.12,0.03,0.18,0.05
					c0.09,0.03,0.17,0.05,0.26,0.09c0.35,0.13,0.68,0.3,0.98,0.5c0.14,0.09,0.28,0.2,0.41,0.3c0.19,0.16,0.37,0.33,0.53,0.51
					C43.33,20.03,43.78,21.7,43.34,23.34z"/>
				
					<ellipse transform="matrix(0.5968 -0.8024 0.8024 0.5968 -2.1349 39.9257)" class="st5" cx="38.66" cy="22.09" rx="3.99" ry="3.99"/>
				<path class="st7" d="M42.48,23.28c-0.55,2.04-2.72,3.24-4.85,2.67c-2.13-0.57-3.41-2.69-2.86-4.73s2.72-3.24,4.85-2.67
					C41.74,19.11,43.02,21.23,42.48,23.28z"/>
				<path class="st8" d="M42.52,23.12c-0.54,2.03-2.71,3.22-4.84,2.64c-2.13-0.57-3.42-2.68-2.87-4.71
					c0.54-2.03,2.71-3.22,4.84-2.64C41.78,18.98,43.06,21.09,42.52,23.12z"/>
				<path class="st5" d="M38.86,21.78c-0.63-0.22-0.74-0.33-0.74-0.48c0-0.14,0.14-0.31,0.55-0.31c0.43,0,0.69,0.13,0.81,0.18
					l0.19,0.09L40,20.5l-0.18-0.09c-0.24-0.12-0.51-0.19-0.81-0.22v-0.59h-0.84v0.63c-0.66,0.14-1.07,0.57-1.07,1.12
					c0,0.69,0.63,0.99,1.31,1.22c0.58,0.2,0.66,0.37,0.66,0.51c0,0.22-0.26,0.38-0.64,0.38c-0.32,0-0.66-0.08-0.92-0.23l-0.2-0.11
					l-0.33,0.77l0.15,0.09c0.24,0.14,0.61,0.25,0.99,0.28v0.61h0.85v-0.65c0.77-0.17,1.12-0.7,1.12-1.18
					C40.09,22.29,39.43,21.97,38.86,21.78z"/>
				<path class="st6" d="M38.98,21.62c-0.63-0.22-0.74-0.33-0.74-0.48c0-0.14,0.14-0.31,0.55-0.31c0.43,0,0.69,0.13,0.81,0.18
					l0.19,0.09l0.34-0.76l-0.18-0.09c-0.24-0.12-0.51-0.19-0.81-0.22v-0.59h-0.84v0.63c-0.66,0.14-1.07,0.57-1.07,1.12
					c0,0.69,0.63,0.99,1.31,1.22c0.58,0.2,0.66,0.37,0.66,0.51c0,0.22-0.26,0.38-0.64,0.38c-0.32,0-0.66-0.08-0.92-0.23l-0.2-0.11
					l-0.33,0.77l0.15,0.09c0.24,0.14,0.61,0.25,0.99,0.28v0.61h0.85v-0.65c0.77-0.17,1.12-0.7,1.12-1.18
					C40.22,22.14,39.56,21.82,38.98,21.62z"/>
				<g>
					<path class="st3" d="M39.66,21.94l-0.5,0.87c0.02,0.05,0.03,0.09,0.03,0.13c0,0.15-0.11,0.26-0.3,0.32l-0.65,1.13v0.33h0.64
						l0.21-0.36v-0.29c0.07-0.02,0.14-0.04,0.2-0.06l0.86-1.49C40.06,22.27,39.88,22.08,39.66,21.94z"/>
					<path class="st3" d="M37.86,24.05l0.44-0.75c-0.24-0.03-0.47-0.1-0.66-0.21l-0.2-0.11l-0.33,0.77l0.15,0.09
						C37.41,23.93,37.63,24,37.86,24.05z"/>
					<path class="st3" d="M38.41,20.9c0.09-0.04,0.21-0.07,0.38-0.07c0.43,0,0.69,0.13,0.81,0.18l0.02,0.01l0.42-0.72l-0.08-0.04
						c-0.24-0.12-0.51-0.19-0.81-0.22v-0.4L38.41,20.9z"/>
					<path class="st3" d="M38.24,21.19l-0.51,0.88c0.23,0.15,0.5,0.26,0.79,0.36c0.08,0.03,0.15,0.06,0.22,0.08l0.46-0.8
						c-0.08-0.03-0.16-0.06-0.23-0.09C38.43,21.43,38.27,21.32,38.24,21.19z"/>
					<path class="st3" d="M38.94,19.45h-0.51l-0.14,0.24v0.39c-0.1,0.02-0.19,0.05-0.27,0.08l-0.76,1.31
						c0.05,0.17,0.14,0.3,0.26,0.42L38.94,19.45z"/>
					<path class="st3" d="M40.09,17.46c-0.06-0.02-0.12-0.04-0.18-0.05c-0.09-0.02-0.18-0.04-0.26-0.06l-0.46,0.79
						c0.15,0.02,0.3,0.05,0.46,0.09L40.09,17.46z"/>
					<path class="st3" d="M40.35,17.54l-0.44,0.76c0.36,0.12,0.69,0.28,0.99,0.48l0.43-0.75C41.03,17.84,40.7,17.67,40.35,17.54z"/>
					<path class="st3" d="M41.74,18.34L41.3,19.1c0.19,0.17,0.36,0.35,0.51,0.55l0.46-0.79C42.11,18.67,41.93,18.5,41.74,18.34z"/>
					<path class="st3" d="M35.51,24.53l-0.46,0.79c0.1,0.11,0.21,0.22,0.32,0.33l0.44-0.77C35.7,24.77,35.6,24.65,35.51,24.53z"/>
					<path class="st3" d="M35.57,25.82c0.28,0.23,0.59,0.43,0.92,0.6l0.43-0.74c-0.34-0.16-0.64-0.37-0.91-0.61L35.57,25.82z"/>
					<path class="st3" d="M37.39,25.87l-0.44,0.76c0.15,0.05,0.3,0.1,0.45,0.14c0.09,0.02,0.18,0.04,0.26,0.06l0.46-0.79
						c-0.17-0.02-0.33-0.05-0.5-0.1C37.55,25.92,37.47,25.89,37.39,25.87z"/>
				</g>
			</g>
			<g>
				
					<ellipse transform="matrix(0.7446 -0.6675 0.6675 0.7446 -5.8783 20.75)" class="st5" cx="24.18" cy="18.06" rx="4.75" ry="4.75"/>
				<path class="st6" d="M28.98,18.86c-0.67,2.5-3.17,4.01-5.67,3.49c-0.09-0.02-0.17-0.04-0.26-0.06c-0.15-0.04-0.3-0.09-0.45-0.14
					c-0.16-0.06-0.32-0.13-0.47-0.2c-0.33-0.17-0.64-0.37-0.92-0.6c-0.07-0.06-0.14-0.12-0.2-0.18c-0.11-0.1-0.22-0.21-0.32-0.33
					c-1.05-1.18-1.51-2.85-1.07-4.49c0.67-2.5,3.17-4.01,5.67-3.49c0.09,0.02,0.17,0.04,0.26,0.06c0.06,0.02,0.12,0.03,0.18,0.05
					c0.09,0.03,0.17,0.05,0.26,0.09c0.35,0.13,0.68,0.3,0.98,0.5c0.14,0.09,0.28,0.2,0.41,0.3c0.19,0.16,0.37,0.33,0.53,0.51
					C28.96,15.55,29.42,17.22,28.98,18.86z"/>
				
					<ellipse transform="matrix(0.5509 -0.8346 0.8346 0.5509 -3.779 28.1845)" class="st5" cx="24.3" cy="17.6" rx="3.99" ry="3.99"/>
				<path class="st7" d="M28.11,18.79c-0.55,2.04-2.72,3.24-4.85,2.67c-2.13-0.57-3.41-2.69-2.86-4.73
					c0.55-2.04,2.72-3.24,4.85-2.67C27.38,14.63,28.66,16.75,28.11,18.79z"/>
				
					<ellipse transform="matrix(0.2588 -0.9659 0.9659 0.2588 1.0045 36.5158)" class="st8" cx="24.3" cy="17.6" rx="3.81" ry="3.99"/>
				<path class="st5" d="M24.49,17.29c-0.63-0.22-0.74-0.33-0.74-0.48c0-0.14,0.14-0.31,0.55-0.31c0.43,0,0.69,0.13,0.81,0.18
					l0.19,0.09l0.34-0.76l-0.18-0.09c-0.24-0.12-0.51-0.19-0.81-0.22v-0.59h-0.84v0.63c-0.66,0.14-1.07,0.57-1.07,1.12
					c0,0.69,0.63,0.99,1.31,1.22c0.58,0.2,0.66,0.37,0.66,0.51c0,0.22-0.26,0.38-0.64,0.38c-0.32,0-0.66-0.08-0.92-0.23l-0.2-0.11
					l-0.33,0.77l0.15,0.09c0.24,0.14,0.61,0.25,0.99,0.28v0.61h0.85v-0.65c0.77-0.17,1.12-0.7,1.12-1.18
					C25.73,17.81,25.07,17.49,24.49,17.29z"/>
				<path class="st6" d="M24.62,17.14c-0.63-0.22-0.74-0.33-0.74-0.48c0-0.14,0.14-0.31,0.55-0.31c0.43,0,0.69,0.13,0.81,0.18
					l0.19,0.09l0.34-0.76l-0.18-0.09c-0.24-0.12-0.51-0.19-0.81-0.22v-0.59h-0.84v0.63c-0.66,0.14-1.07,0.57-1.07,1.12
					c0,0.69,0.63,0.99,1.31,1.22c0.58,0.2,0.66,0.37,0.66,0.51c0,0.22-0.26,0.38-0.64,0.38c-0.32,0-0.66-0.08-0.92-0.23l-0.2-0.11
					l-0.33,0.77l0.15,0.09c0.24,0.14,0.61,0.25,0.99,0.28v0.61h0.85v-0.65c0.77-0.17,1.12-0.7,1.12-1.18
					C25.85,17.65,25.19,17.33,24.62,17.14z"/>
				<g>
					<path class="st3" d="M25.3,17.45l-0.5,0.87c0.02,0.05,0.03,0.09,0.03,0.13c0,0.15-0.11,0.26-0.3,0.32l-0.65,1.13v0.33h0.64
						l0.21-0.36v-0.29c0.07-0.02,0.14-0.04,0.2-0.06l0.86-1.49C25.7,17.79,25.52,17.6,25.3,17.45z"/>
					<path class="st3" d="M23.49,19.57l0.44-0.75c-0.24-0.03-0.47-0.1-0.66-0.21l-0.2-0.11l-0.33,0.77l0.15,0.09
						C23.05,19.44,23.26,19.52,23.49,19.57z"/>
					<path class="st3" d="M24.05,16.42c0.09-0.04,0.21-0.07,0.38-0.07c0.43,0,0.69,0.13,0.81,0.18l0.02,0.01l0.42-0.72l-0.08-0.04
						c-0.24-0.12-0.51-0.19-0.81-0.22v-0.4L24.05,16.42z"/>
					<path class="st3" d="M23.88,16.7l-0.51,0.88c0.23,0.15,0.5,0.26,0.79,0.36c0.08,0.03,0.15,0.06,0.22,0.08l0.46-0.8
						c-0.08-0.03-0.16-0.06-0.23-0.09C24.06,16.95,23.91,16.83,23.88,16.7z"/>
					<path class="st3" d="M24.58,14.97h-0.51l-0.14,0.24v0.39c-0.1,0.02-0.19,0.05-0.27,0.08L22.9,17c0.05,0.17,0.14,0.3,0.26,0.42
						L24.58,14.97z"/>
					<path class="st3" d="M25.73,12.97c-0.06-0.02-0.12-0.04-0.18-0.05c-0.09-0.02-0.18-0.04-0.26-0.06l-0.46,0.79
						c0.15,0.02,0.3,0.05,0.46,0.09L25.73,12.97z"/>
					<path class="st3" d="M25.98,13.06l-0.44,0.76c0.36,0.12,0.69,0.28,0.99,0.48l0.43-0.75C26.66,13.36,26.34,13.19,25.98,13.06z"
						/>
					<path class="st3" d="M27.37,13.86l-0.44,0.76c0.19,0.17,0.36,0.35,0.51,0.55l0.46-0.79C27.75,14.19,27.57,14.02,27.37,13.86z"
						/>
					<path class="st3" d="M21.14,20.04l-0.46,0.79c0.1,0.11,0.21,0.22,0.32,0.33l0.44-0.77C21.34,20.28,21.24,20.17,21.14,20.04z"/>
					<path class="st3" d="M21.21,21.34c0.28,0.23,0.59,0.43,0.92,0.6l0.43-0.74c-0.34-0.16-0.64-0.37-0.91-0.61L21.21,21.34z"/>
					<path class="st3" d="M23.03,21.38l-0.44,0.76c0.15,0.05,0.3,0.1,0.45,0.14c0.09,0.02,0.18,0.04,0.26,0.06l0.46-0.79
						c-0.17-0.02-0.33-0.05-0.5-0.1C23.18,21.44,23.11,21.41,23.03,21.38z"/>
				</g>
			</g>
			<g>
				
					<ellipse transform="matrix(0.9993 -0.0366 0.0366 0.9993 -0.4401 1.2436)" class="st5" cx="33.74" cy="12.64" rx="4.75" ry="4.75"/>
				<path class="st6" d="M38.54,13.44c-0.67,2.5-3.17,4.01-5.67,3.49c-0.09-0.02-0.17-0.04-0.26-0.06c-0.15-0.04-0.3-0.09-0.45-0.14
					c-0.16-0.06-0.32-0.13-0.47-0.2c-0.33-0.17-0.64-0.37-0.92-0.6c-0.07-0.06-0.14-0.12-0.2-0.18c-0.11-0.1-0.22-0.21-0.32-0.33
					c-1.05-1.18-1.51-2.85-1.07-4.49c0.67-2.5,3.17-4.01,5.67-3.49c0.09,0.02,0.17,0.04,0.26,0.06c0.06,0.02,0.12,0.03,0.18,0.05
					c0.09,0.03,0.17,0.05,0.26,0.09c0.35,0.13,0.68,0.3,0.98,0.5c0.14,0.09,0.28,0.2,0.41,0.3c0.19,0.16,0.37,0.33,0.53,0.51
					C38.52,10.13,38.98,11.8,38.54,13.44z"/>
				<circle class="st5" cx="33.86" cy="12.19" r="3.99"/>
				
					<ellipse transform="matrix(0.2588 -0.9659 0.9659 0.2588 13.1416 41.8103)" class="st7" cx="33.82" cy="12.34" rx="3.83" ry="3.99"/>
				
					<ellipse transform="matrix(0.2588 -0.9659 0.9659 0.2588 13.3243 41.7359)" class="st8" cx="33.86" cy="12.19" rx="3.81" ry="3.99"/>
				<path class="st5" d="M34.06,11.87c-0.63-0.22-0.74-0.33-0.74-0.48c0-0.14,0.14-0.31,0.55-0.31c0.43,0,0.69,0.13,0.81,0.18
					l0.19,0.09l0.34-0.76l-0.18-0.09c-0.24-0.12-0.51-0.19-0.81-0.22V9.71h-0.84v0.63c-0.66,0.14-1.07,0.57-1.07,1.12
					c0,0.69,0.63,0.99,1.31,1.22c0.58,0.2,0.66,0.37,0.66,0.51c0,0.22-0.26,0.38-0.64,0.38c-0.32,0-0.66-0.08-0.92-0.23l-0.2-0.11
					L32.18,14l0.15,0.09c0.24,0.14,0.61,0.25,0.99,0.28v0.61h0.85v-0.65c0.77-0.17,1.12-0.7,1.12-1.18
					C35.29,12.39,34.63,12.07,34.06,11.87z"/>
				<path class="st6" d="M34.18,11.72c-0.63-0.22-0.74-0.33-0.74-0.48c0-0.14,0.14-0.31,0.55-0.31c0.43,0,0.69,0.13,0.81,0.18
					l0.19,0.09l0.34-0.76l-0.18-0.09c-0.24-0.12-0.51-0.19-0.81-0.22V9.55h-0.84v0.63c-0.66,0.14-1.07,0.57-1.07,1.12
					c0,0.69,0.63,0.99,1.31,1.22c0.58,0.2,0.66,0.37,0.66,0.51c0,0.22-0.26,0.38-0.64,0.38c-0.32,0-0.66-0.08-0.92-0.23l-0.2-0.11
					l-0.33,0.77l0.15,0.09c0.24,0.14,0.61,0.25,0.99,0.28v0.61h0.85v-0.65c0.77-0.17,1.12-0.7,1.12-1.18
					C35.41,12.24,34.75,11.91,34.18,11.72z"/>
				<g>
					<path class="st3" d="M34.86,12.04l-0.5,0.87c0.02,0.05,0.03,0.09,0.03,0.13c0,0.15-0.11,0.26-0.3,0.32l-0.65,1.13v0.33h0.64
						l0.21-0.36v-0.29c0.07-0.02,0.14-0.04,0.2-0.06l0.86-1.49C35.26,12.37,35.08,12.18,34.86,12.04z"/>
					<path class="st3" d="M33.06,14.15l0.44-0.75c-0.24-0.03-0.47-0.1-0.66-0.21l-0.2-0.11l-0.33,0.77l0.15,0.09
						C32.61,14.03,32.82,14.1,33.06,14.15z"/>
					<path class="st3" d="M33.61,11c0.09-0.04,0.21-0.07,0.38-0.07c0.43,0,0.69,0.13,0.81,0.18l0.02,0.01l0.42-0.72l-0.08-0.04
						c-0.24-0.12-0.51-0.19-0.81-0.22v-0.4L33.61,11z"/>
					<path class="st3" d="M33.44,11.29l-0.51,0.88c0.23,0.15,0.5,0.26,0.79,0.36c0.08,0.03,0.15,0.06,0.22,0.08l0.46-0.8
						c-0.08-0.03-0.16-0.06-0.23-0.09C33.62,11.53,33.47,11.41,33.44,11.29z"/>
					<path class="st3" d="M34.14,9.55h-0.51L33.49,9.8v0.39c-0.1,0.02-0.19,0.05-0.27,0.08l-0.76,1.31c0.05,0.17,0.14,0.3,0.26,0.42
						L34.14,9.55z"/>
					<path class="st3" d="M35.29,7.56c-0.06-0.02-0.12-0.04-0.18-0.05c-0.09-0.02-0.18-0.04-0.26-0.06l-0.46,0.79
						c0.15,0.02,0.3,0.05,0.46,0.09L35.29,7.56z"/>
					<path class="st3" d="M35.55,7.64L35.11,8.4c0.36,0.12,0.69,0.28,0.99,0.48l0.43-0.75C36.22,7.94,35.9,7.77,35.55,7.64z"/>
					<path class="st3" d="M36.94,8.44L36.5,9.2c0.19,0.17,0.36,0.35,0.51,0.55l0.46-0.79C37.31,8.77,37.13,8.6,36.94,8.44z"/>
					<path class="st3" d="M30.7,14.62l-0.46,0.79c0.1,0.11,0.21,0.22,0.32,0.33l0.44-0.77C30.9,14.86,30.8,14.75,30.7,14.62z"/>
					<path class="st3" d="M30.77,15.92c0.28,0.23,0.59,0.43,0.92,0.6l0.43-0.74c-0.34-0.16-0.64-0.37-0.91-0.61L30.77,15.92z"/>
					<path class="st3" d="M32.59,15.97l-0.44,0.76c0.15,0.05,0.3,0.1,0.45,0.14c0.09,0.02,0.18,0.04,0.26,0.06l0.46-0.79
						c-0.17-0.02-0.33-0.05-0.5-0.1C32.74,16.02,32.67,15.99,32.59,15.97z"/>
				</g>
			</g>
			<g>
				
					<ellipse transform="matrix(0.9117 -0.4109 0.4109 0.9117 -9.1551 17.8594)" class="st5" cx="36.97" cy="30.23" rx="4.75" ry="4.75"/>
				<path class="st6" d="M41.77,31.03c-0.67,2.5-3.17,4.01-5.67,3.49c-0.09-0.02-0.17-0.04-0.26-0.06c-0.15-0.04-0.3-0.09-0.45-0.14
					c-0.16-0.06-0.32-0.13-0.47-0.2c-0.33-0.17-0.64-0.37-0.92-0.6c-0.07-0.06-0.14-0.12-0.2-0.18c-0.11-0.1-0.22-0.21-0.32-0.33
					c-1.05-1.18-1.51-2.85-1.07-4.49c0.67-2.5,3.17-4.01,5.67-3.49c0.09,0.02,0.17,0.04,0.26,0.06c0.06,0.02,0.12,0.03,0.18,0.05
					c0.09,0.03,0.17,0.05,0.26,0.09c0.35,0.13,0.68,0.3,0.98,0.5c0.14,0.09,0.28,0.2,0.41,0.3c0.19,0.16,0.37,0.33,0.53,0.51
					C41.76,27.72,42.21,29.39,41.77,31.03z"/>
				
					<ellipse transform="matrix(0.7608 -0.649 0.649 0.7608 -10.4514 31.1979)" class="st5" cx="37.09" cy="29.78" rx="3.99" ry="3.99"/>
				<path class="st7" d="M40.91,30.97c-0.55,2.04-2.72,3.24-4.85,2.67c-2.13-0.57-3.41-2.69-2.86-4.73
					c0.55-2.04,2.72-3.24,4.85-2.67C40.17,26.8,41.46,28.92,40.91,30.97z"/>
				
					<ellipse transform="matrix(0.2588 -0.9659 0.9659 0.2588 -1.269 57.8979)" class="st8" cx="37.09" cy="29.78" rx="3.81" ry="3.99"/>
				<path class="st5" d="M37.29,29.46c-0.63-0.22-0.74-0.33-0.74-0.48c0-0.14,0.14-0.31,0.55-0.31c0.43,0,0.69,0.13,0.81,0.18
					l0.19,0.09l0.34-0.76l-0.18-0.09c-0.24-0.12-0.51-0.19-0.81-0.22V27.3H36.6v0.63c-0.66,0.14-1.07,0.57-1.07,1.12
					c0,0.69,0.63,0.99,1.31,1.22c0.58,0.2,0.66,0.37,0.66,0.51c0,0.22-0.26,0.38-0.64,0.38c-0.32,0-0.66-0.08-0.92-0.23l-0.2-0.11
					l-0.33,0.77l0.15,0.09c0.24,0.14,0.61,0.25,0.99,0.28v0.61h0.85v-0.65c0.77-0.17,1.12-0.7,1.12-1.18
					C38.53,29.98,37.87,29.66,37.29,29.46z"/>
				<path class="st6" d="M37.41,29.31c-0.63-0.22-0.74-0.33-0.74-0.48c0-0.14,0.14-0.31,0.55-0.31c0.43,0,0.69,0.13,0.81,0.18
					l0.19,0.09l0.34-0.76l-0.18-0.09c-0.24-0.12-0.51-0.19-0.81-0.22v-0.59h-0.84v0.63c-0.66,0.14-1.07,0.57-1.07,1.12
					c0,0.69,0.63,0.99,1.31,1.22c0.58,0.2,0.66,0.37,0.66,0.51c0,0.22-0.26,0.38-0.64,0.38c-0.32,0-0.66-0.08-0.92-0.23l-0.2-0.11
					l-0.33,0.77l0.15,0.09c0.24,0.14,0.61,0.25,0.99,0.28v0.61h0.85v-0.65c0.77-0.17,1.12-0.7,1.12-1.18
					C38.65,29.83,37.99,29.5,37.41,29.31z"/>
				<g>
					<path class="st3" d="M38.1,29.63l-0.5,0.87c0.02,0.05,0.03,0.09,0.03,0.13c0,0.15-0.11,0.26-0.3,0.32l-0.65,1.13v0.33h0.64
						l0.21-0.36v-0.29c0.07-0.02,0.14-0.04,0.2-0.06l0.86-1.49C38.5,29.96,38.31,29.77,38.1,29.63z"/>
					<path class="st3" d="M36.29,31.74l0.44-0.75c-0.24-0.03-0.47-0.1-0.66-0.21l-0.2-0.11l-0.33,0.77l0.15,0.09
						C35.85,31.62,36.06,31.69,36.29,31.74z"/>
					<path class="st3" d="M36.84,28.59c0.09-0.04,0.21-0.07,0.38-0.07c0.43,0,0.69,0.13,0.81,0.18l0.02,0.01l0.42-0.72l-0.08-0.04
						c-0.24-0.12-0.51-0.19-0.81-0.22v-0.4L36.84,28.59z"/>
					<path class="st3" d="M36.68,28.88l-0.51,0.88c0.23,0.15,0.5,0.26,0.79,0.36c0.08,0.03,0.15,0.06,0.22,0.08l0.46-0.8
						c-0.08-0.03-0.16-0.06-0.23-0.09C36.86,29.12,36.71,29,36.68,28.88z"/>
					<path class="st3" d="M37.37,27.14h-0.51l-0.14,0.24v0.39c-0.1,0.02-0.19,0.05-0.27,0.08l-0.76,1.31
						c0.05,0.17,0.14,0.3,0.26,0.42L37.37,27.14z"/>
					<path class="st3" d="M38.53,25.15c-0.06-0.02-0.12-0.04-0.18-0.05c-0.09-0.02-0.18-0.04-0.26-0.06l-0.46,0.79
						c0.15,0.02,0.3,0.05,0.46,0.09L38.53,25.15z"/>
					<path class="st3" d="M38.78,25.23l-0.44,0.76c0.36,0.12,0.69,0.28,0.99,0.48l0.43-0.75C39.46,25.53,39.13,25.36,38.78,25.23z"
						/>
					<path class="st3" d="M40.17,26.03l-0.44,0.76c0.19,0.17,0.36,0.35,0.51,0.55l0.46-0.79C40.54,26.36,40.36,26.19,40.17,26.03z"
						/>
					<path class="st3" d="M33.94,32.22l-0.46,0.79c0.1,0.11,0.21,0.22,0.32,0.33l0.44-0.77C34.13,32.45,34.03,32.34,33.94,32.22z"/>
					<path class="st3" d="M34,33.51c0.28,0.23,0.59,0.43,0.92,0.6l0.43-0.74c-0.34-0.16-0.64-0.37-0.91-0.61L34,33.51z"/>
					<path class="st3" d="M35.83,33.56l-0.44,0.76c0.15,0.05,0.3,0.1,0.45,0.14c0.09,0.02,0.18,0.04,0.26,0.06l0.46-0.79
						c-0.17-0.02-0.33-0.05-0.5-0.1C35.98,33.61,35.9,33.58,35.83,33.56z"/>
				</g>
			</g>
			<g>
				<circle class="st5" cx="30.64" cy="32.01" r="4.75"/>
				<path class="st6" d="M35.44,32.82c-0.67,2.5-3.17,4.01-5.67,3.49c-0.09-0.02-0.17-0.04-0.26-0.06c-0.15-0.04-0.3-0.09-0.45-0.14
					c-0.16-0.06-0.32-0.13-0.47-0.2c-0.33-0.17-0.64-0.37-0.92-0.6c-0.07-0.06-0.14-0.12-0.2-0.18c-0.11-0.1-0.22-0.21-0.32-0.33
					c-1.05-1.18-1.51-2.85-1.07-4.49c0.67-2.5,3.17-4.01,5.67-3.49c0.09,0.02,0.17,0.04,0.26,0.06c0.06,0.02,0.12,0.03,0.18,0.05
					c0.09,0.03,0.17,0.05,0.26,0.09c0.35,0.13,0.68,0.3,0.98,0.5c0.14,0.09,0.28,0.2,0.41,0.3c0.19,0.16,0.37,0.33,0.53,0.51
					C35.42,29.51,35.88,31.18,35.44,32.82z"/>
				
					<ellipse transform="matrix(0.3684 -0.9297 0.9297 0.3684 -9.9137 48.5296)" class="st5" cx="30.76" cy="31.56" rx="3.99" ry="3.99"/>
				
					<ellipse transform="matrix(0.2588 -0.9659 0.9659 0.2588 -7.8682 53.1801)" class="st7" cx="30.72" cy="31.72" rx="3.83" ry="3.99"/>
				
					<ellipse transform="matrix(0.2588 -0.9659 0.9659 0.2588 -7.6878 53.1027)" class="st8" cx="30.76" cy="31.56" rx="3.81" ry="3.99"/>
				<path class="st5" d="M30.96,31.25c-0.63-0.22-0.74-0.33-0.74-0.48c0-0.14,0.14-0.31,0.55-0.31c0.43,0,0.69,0.13,0.81,0.18
					l0.19,0.09l0.34-0.76l-0.18-0.09c-0.24-0.12-0.51-0.19-0.81-0.22v-0.59h-0.84v0.63c-0.66,0.14-1.07,0.57-1.07,1.12
					c0,0.69,0.63,0.99,1.31,1.22c0.58,0.2,0.66,0.37,0.66,0.51c0,0.22-0.26,0.38-0.64,0.38c-0.32,0-0.66-0.08-0.92-0.23l-0.2-0.11
					l-0.33,0.77l0.15,0.09c0.24,0.14,0.61,0.25,0.99,0.28v0.61h0.85V33.7c0.77-0.17,1.12-0.7,1.12-1.18
					C32.19,31.77,31.53,31.45,30.96,31.25z"/>
				<path class="st6" d="M31.08,31.09c-0.63-0.22-0.74-0.33-0.74-0.48c0-0.14,0.14-0.31,0.55-0.31c0.43,0,0.69,0.13,0.81,0.18
					l0.19,0.09l0.34-0.76l-0.18-0.09c-0.24-0.12-0.51-0.19-0.81-0.22v-0.59h-0.84v0.63c-0.66,0.14-1.07,0.57-1.07,1.12
					c0,0.69,0.63,0.99,1.31,1.22c0.58,0.2,0.66,0.37,0.66,0.51c0,0.22-0.26,0.38-0.64,0.38c-0.32,0-0.66-0.08-0.92-0.23l-0.2-0.11
					l-0.33,0.77l0.15,0.09c0.24,0.14,0.61,0.25,0.99,0.28v0.61h0.85v-0.65c0.77-0.17,1.12-0.7,1.12-1.18
					C32.31,31.61,31.65,31.29,31.08,31.09z"/>
				<g>
					<path class="st3" d="M31.76,31.41l-0.5,0.87c0.02,0.05,0.03,0.09,0.03,0.13c0,0.15-0.11,0.26-0.3,0.32l-0.65,1.13v0.33h0.64
						l0.21-0.36v-0.29c0.07-0.02,0.14-0.04,0.2-0.06L32.25,32C32.16,31.74,31.98,31.56,31.76,31.41z"/>
					<path class="st3" d="M29.96,33.53l0.44-0.75c-0.24-0.03-0.47-0.1-0.66-0.21l-0.2-0.11l-0.33,0.77l0.15,0.09
						C29.51,33.4,29.73,33.47,29.96,33.53z"/>
					<path class="st3" d="M30.51,30.38c0.09-0.04,0.21-0.07,0.38-0.07c0.43,0,0.69,0.13,0.81,0.18l0.02,0.01l0.42-0.72l-0.08-0.04
						c-0.24-0.12-0.51-0.19-0.81-0.22v-0.4L30.51,30.38z"/>
					<path class="st3" d="M30.34,30.66l-0.51,0.88c0.23,0.15,0.5,0.26,0.79,0.36c0.08,0.03,0.15,0.06,0.22,0.08l0.46-0.8
						c-0.08-0.03-0.16-0.06-0.23-0.09C30.53,30.9,30.37,30.79,30.34,30.66z"/>
					<path class="st3" d="M31.04,28.93h-0.51l-0.14,0.24v0.39c-0.1,0.02-0.19,0.05-0.27,0.08l-0.76,1.31
						c0.05,0.17,0.14,0.3,0.26,0.42L31.04,28.93z"/>
					<path class="st3" d="M32.19,26.93c-0.06-0.02-0.12-0.04-0.18-0.05c-0.09-0.02-0.18-0.04-0.26-0.06l-0.46,0.79
						c0.15,0.02,0.3,0.05,0.46,0.09L32.19,26.93z"/>
					<path class="st3" d="M32.45,27.02l-0.44,0.76c0.36,0.12,0.69,0.28,0.99,0.48l0.43-0.75C33.13,27.31,32.8,27.15,32.45,27.02z"/>
					<path class="st3" d="M33.84,27.82l-0.44,0.76c0.19,0.17,0.36,0.35,0.51,0.55l0.46-0.79C34.21,28.15,34.03,27.97,33.84,27.82z"
						/>
					<path class="st3" d="M27.6,34l-0.46,0.79c0.1,0.11,0.21,0.22,0.32,0.33l0.44-0.77C27.8,34.24,27.7,34.12,27.6,34z"/>
					<path class="st3" d="M27.67,35.29c0.28,0.23,0.59,0.43,0.92,0.6l0.43-0.74c-0.34-0.16-0.64-0.37-0.91-0.61L27.67,35.29z"/>
					<path class="st3" d="M29.49,35.34l-0.44,0.76c0.15,0.05,0.3,0.1,0.45,0.14c0.09,0.02,0.18,0.04,0.26,0.06l0.46-0.79
						c-0.17-0.02-0.33-0.05-0.5-0.1C29.65,35.4,29.57,35.37,29.49,35.34z"/>
				</g>
			</g>
		</g>
	</g>
	<path class="st2" d="M52.55,57.47c-0.54,1.05-1.24,2.14-2.13,3.25c-5.61,7.03-37.23,7.03-42.84,0c-2.35-2.94-3.39-5.66-3.56-8.17
		C9.69,60.62,37.56,67.37,52.55,57.47z"/>
	<path class="st2" d="M42.11,31.08c-0.13,0.26-0.23,0.55-0.28,0.87c-0.92,0.39-2.91,0.94-4.21,1.22c-1.84,0.4-2.54,2.49-4.96,2.3
		c-2.9-0.23-3.69-1.41-6.05-1.17c-0.98,0.1-2.88,0.85-5.01,0.13c-0.39-0.13-1.4-1.39-3.6-1.54c-1.02-0.07-1.17-0.58-1.84-0.92
		c-0.09-0.56-0.32-1.04-0.61-1.43c0.28,0.1,3.18,3.24,8.24,2.85c1.84-0.14,3.86-0.03,6,0.37c1.48,0.27,3.16-0.06,4.82-0.58
		C36.49,32.58,38.04,31.85,42.11,31.08z"/>
</g>
</svg>
