<?xml version="1.0" encoding="utf-8"?>
<!-- Generator: Adobe Illustrator 24.2.1, SVG Export Plug-In . SVG Version: 6.00 Build 0)  -->
<svg version="1.1" id="Layer_1" xmlns="http://www.w3.org/2000/svg" xmlns:xlink="http://www.w3.org/1999/xlink" x="0px" y="0px"
	 viewBox="0 0 40 31" style="enable-background:new 0 0 40 31;" xml:space="preserve">
<style type="text/css">
	.st0{fill:none;}
	.st1{fill:#FCB23D;}
	.st2{fill:#FFFFFF;}
</style>
<g>
	<path class="st0" d="M11.78,7.13C9,7.37,6.94,9.8,7.18,12.57c0.24,2.76,2.7,4.81,5.48,4.57c2.78-0.24,4.84-2.67,4.6-5.44
		C17.02,8.93,14.57,6.89,11.78,7.13z"/>
	<path class="st0" d="M28.9,18.75c-1.57,0.96-2.12,3.07-1.21,4.66c0.97,1.7,3.15,2.27,4.83,1.28c1.66-0.98,2.22-3.11,1.23-4.76
		C32.76,18.27,30.57,17.73,28.9,18.75z"/>
	<path class="st1" d="M23.85,16.03c0.31-0.91,0.52-1.87,0.6-2.86l-1.99-0.96c0-0.32-0.01-0.64-0.04-0.97
		c-0.01-0.11-0.02-0.22-0.04-0.33l1.87-1.17c-0.19-0.97-0.5-1.91-0.92-2.78l-2.21,0.16c-0.22-0.38-0.46-0.74-0.72-1.09l1.03-1.94
		c-0.65-0.73-1.39-1.39-2.19-1.95l-1.83,1.23c-0.38-0.22-0.77-0.42-1.17-0.59L16.15,0.6c-0.92-0.31-1.89-0.51-2.88-0.6l-0.96,1.98
		c-0.32,0-0.65,0.01-0.97,0.04C11.22,2.02,11.11,2.04,11,2.05L9.82,0.19C8.83,0.39,7.9,0.69,7.02,1.1l0.16,2.19
		C6.8,3.51,6.43,3.75,6.08,4.01L4.12,2.99c-0.74,0.65-1.4,1.38-1.96,2.18L3.4,6.98c-0.22,0.37-0.42,0.76-0.6,1.16L0.6,8.23
		C0.29,9.14,0.08,10.1,0,11.09l1.99,0.96c0,0.32,0.01,0.64,0.04,0.97c0.01,0.11,0.02,0.22,0.04,0.33l-1.87,1.17
		c0.2,0.97,0.5,1.91,0.92,2.78l2.21-0.16c0.22,0.38,0.46,0.74,0.72,1.09l-1.03,1.94c0.65,0.74,1.39,1.39,2.2,1.95l1.83-1.23
		C7.41,21.1,7.8,21.3,8.2,21.47l0.09,2.19c0.92,0.31,1.89,0.51,2.88,0.6l0.97-1.97c0.32,0,0.65-0.01,0.97-0.04
		c0.11-0.01,0.22-0.02,0.33-0.04l1.18,1.86c0.98-0.2,1.92-0.5,2.8-0.91l-0.16-2.19c0.38-0.22,0.75-0.45,1.1-0.71l1.96,1.02
		c0.74-0.65,1.4-1.38,1.96-2.18l-1.24-1.82c0.22-0.37,0.42-0.76,0.59-1.16L23.85,16.03z M12.22,19.29c-3.98,0-7.21-3.21-7.21-7.16
		c0-3.95,3.24-7.16,7.21-7.16c3.98,0,7.21,3.21,7.21,7.16C19.44,16.08,16.2,19.29,12.22,19.29z"/>
	<path class="st1" d="M5.53,12.13c0,3.66,3,6.65,6.7,6.65c3.69,0,6.7-2.98,6.7-6.65c0-3.66-3-6.65-6.7-6.65
		C8.53,5.48,5.53,8.47,5.53,12.13z M17.26,11.69c0.24,2.76-1.82,5.2-4.6,5.44c-2.78,0.24-5.24-1.8-5.48-4.57
		C6.94,9.8,9,7.37,11.78,7.13C14.57,6.89,17.02,8.93,17.26,11.69z"/>
	<path class="st1" d="M24.99,21.68c-0.07,3.14,2.45,5.75,5.62,5.81c3.16,0.07,5.79-2.44,5.86-5.58c0.07-3.14-2.45-5.75-5.62-5.81
		C27.69,16.04,25.06,18.54,24.99,21.68z M33.75,19.94c0.98,1.65,0.43,3.78-1.23,4.76c-1.69,0.99-3.87,0.42-4.83-1.28
		c-0.91-1.6-0.36-3.7,1.21-4.66C30.57,17.73,32.76,18.27,33.75,19.94z"/>
	<path class="st1" d="M39.96,22.7c0.06-0.66,0.06-1.33-0.02-2l-1.56-0.37c-0.08-0.41-0.2-0.81-0.34-1.21l1.14-1.12
		c-0.14-0.3-0.29-0.6-0.47-0.89c-0.17-0.29-0.36-0.57-0.56-0.83l-1.54,0.46c-0.28-0.32-0.58-0.61-0.9-0.88l0.43-1.54
		c-0.55-0.39-1.14-0.72-1.75-0.98l-1.11,1.16c-0.4-0.14-0.81-0.24-1.22-0.31l-0.41-1.55c-0.67-0.06-1.34-0.06-2.01,0.02l-0.38,1.55
		c-0.41,0.08-0.82,0.19-1.22,0.34l-1.13-1.13c-0.3,0.14-0.6,0.29-0.9,0.46c-0.29,0.17-0.57,0.36-0.84,0.55l0.46,1.53
		c-0.32,0.28-0.62,0.58-0.89,0.9l-1.55-0.42c-0.39,0.55-0.72,1.13-0.99,1.74l1.17,1.1c-0.14,0.4-0.24,0.8-0.31,1.21l-1.56,0.41
		c-0.07,0.66-0.06,1.33,0.02,2l1.56,0.37c0.08,0.41,0.19,0.81,0.34,1.21l-1.14,1.12c0.14,0.3,0.29,0.6,0.46,0.89
		c0.17,0.29,0.36,0.57,0.56,0.83l1.54-0.46c0.28,0.32,0.58,0.61,0.9,0.88l-0.42,1.54c0.55,0.39,1.14,0.72,1.75,0.98l1.11-1.16
		c0.4,0.14,0.8,0.24,1.22,0.31l0.41,1.55c0.67,0.06,1.34,0.06,2.01-0.02l0.37-1.55c0.41-0.08,0.82-0.19,1.22-0.34l1.13,1.14
		c0.3-0.13,0.6-0.29,0.89-0.46c0.29-0.17,0.57-0.36,0.84-0.56l-0.46-1.53c0.32-0.28,0.62-0.58,0.89-0.9l1.55,0.42
		c0.39-0.55,0.73-1.13,0.99-1.74l-1.17-1.1c0.14-0.39,0.24-0.8,0.31-1.21L39.96,22.7z M30.61,27.74c-3.3-0.07-5.93-2.79-5.86-6.07
		c0.07-3.28,2.81-5.89,6.11-5.82c3.3,0.07,5.93,2.79,5.86,6.07C36.65,25.2,33.91,27.81,30.61,27.74z"/>
	<path class="st2" d="M5.01,12.13c0,3.95,3.24,7.16,7.21,7.16c3.98,0,7.21-3.21,7.21-7.16c0-3.95-3.24-7.16-7.21-7.16
		C8.25,4.97,5.01,8.18,5.01,12.13z M18.92,12.13c0,3.66-3,6.65-6.7,6.65c-3.69,0-6.7-2.98-6.7-6.65c0-3.66,3-6.65,6.7-6.65
		C15.92,5.48,18.92,8.47,18.92,12.13z"/>
	<path class="st2" d="M24.74,21.68c-0.07,3.28,2.56,6,5.86,6.07c3.3,0.07,6.04-2.54,6.11-5.82c0.07-3.28-2.56-6-5.86-6.07
		C27.55,15.79,24.81,18.4,24.74,21.68z M36.47,21.92c-0.07,3.14-2.69,5.64-5.86,5.58c-3.16-0.07-5.69-2.67-5.62-5.81
		c0.07-3.14,2.69-5.64,5.86-5.58C34.02,16.17,36.54,18.78,36.47,21.92z"/>
</g>
</svg>
