<?xml version="1.0" encoding="utf-8"?>
<!-- Generator: Adobe Illustrator 24.2.1, SVG Export Plug-In . SVG Version: 6.00 Build 0)  -->
<svg version="1.1" id="Layer_1" xmlns="http://www.w3.org/2000/svg" xmlns:xlink="http://www.w3.org/1999/xlink" x="0px" y="0px"
	 viewBox="0 0 100 62" style="enable-background:new 0 0 100 62;" xml:space="preserve">
<style type="text/css">
	.st0{fill:#788EC7;}
	.st1{fill:#0056A7;}
</style>
<g>
	<g>
		<g>
			<rect x="39.13" y="4.16" class="st0" width="2.61" height="5.76"/>
			<rect x="58.26" y="4.17" class="st0" width="2.61" height="5.76"/>
		</g>
		<path class="st1" d="M63.17,3.34c0,1.07-0.87,1.48-1.94,1.48H38.76c-1.07,0-1.93-0.41-1.93-1.48l0,0c0-1.07,0.9-1.67,1.93-1.92
			C41.65,0.7,45.55,0,50,0c4.88,0,7.98,0.83,11.24,1.41C62.29,1.6,63.17,2.27,63.17,3.34L63.17,3.34z"/>
	</g>
	<path class="st1" d="M77.96,10.71c1.58,0.19,3.18,1.84,3.51,3.68c2.46,14.11,2.46,28.22,0,42.33c-0.33,1.83-1.93,3.48-3.51,3.67
		c-18.63,2.14-37.27,2.14-55.91,0c-1.58-0.19-3.18-1.85-3.51-3.67c-2.45-14.11-2.45-28.22,0-42.33c0.33-1.83,1.93-3.49,3.51-3.68
		C40.68,8.56,59.32,8.56,77.96,10.71z"/>
	<g>
		<polygon class="st0" points="33.94,61.46 27.12,60.9 27.12,10.19 33.94,9.62 		"/>
		<g>
			<path class="st1" d="M34.61,46.7h-8.17v-4.9h8.17V46.7z M27.26,45.88h6.54v-3.27h-6.54V45.88z"/>
		</g>
	</g>
	<g>
		<polygon class="st0" points="66.15,61.45 72.96,60.9 72.96,10.18 66.15,9.62 		"/>
		<g>
			<path class="st1" d="M65.47,41.79h8.17v4.9h-8.17V41.79z M72.83,42.61h-6.54v3.27h6.54V42.61z"/>
		</g>
	</g>
	<g>
		<path class="st0" d="M81.9,17.05c-0.13-0.89-0.28-1.77-0.43-2.66c-0.33-1.83-1.93-3.49-3.51-3.68c-0.37-0.04-0.74-0.08-1.11-0.12
			c-0.56,0.72-0.89,1.62-0.89,2.6c0,2.34,1.9,4.23,4.23,4.23C80.8,17.41,81.37,17.28,81.9,17.05z"/>
		<path class="st0" d="M18.53,14.39c-0.15,0.89-0.3,1.77-0.43,2.66c0.53,0.23,1.1,0.37,1.72,0.37c2.33,0,4.23-1.89,4.23-4.23
			c0-0.98-0.33-1.88-0.9-2.6c-0.37,0.04-0.74,0.08-1.11,0.12C20.46,10.9,18.86,12.55,18.53,14.39z"/>
		<path class="st0" d="M81.9,54.05c-0.53-0.23-1.1-0.37-1.71-0.37c-2.34,0-4.23,1.89-4.23,4.23c0,0.98,0.33,1.88,0.89,2.6
			c0.37-0.05,0.74-0.08,1.11-0.12c1.58-0.19,3.18-1.85,3.51-3.67C81.62,55.83,81.76,54.94,81.9,54.05z"/>
		<path class="st0" d="M19.82,53.69c-0.61,0-1.19,0.13-1.72,0.37c0.13,0.89,0.28,1.78,0.43,2.66c0.33,1.83,1.93,3.48,3.51,3.67
			c0.37,0.04,0.74,0.08,1.11,0.12c0.56-0.72,0.9-1.62,0.9-2.6C24.04,55.58,22.15,53.69,19.82,53.69z"/>
	</g>
</g>
</svg>
