<?xml version="1.0" encoding="utf-8"?>
<!-- Generator: Adobe Illustrator 24.2.1, SVG Export Plug-In . SVG Version: 6.00 Build 0)  -->
<svg version="1.1" id="Layer_1" xmlns="http://www.w3.org/2000/svg" xmlns:xlink="http://www.w3.org/1999/xlink" x="0px" y="0px"
	 viewBox="0 0 100 62" style="enable-background:new 0 0 100 62;" xml:space="preserve">
<style type="text/css">
	.st0{fill:#788EC7;}
	.st1{fill:#0056A7;}
</style>
<g>
	<path class="st0" d="M51.81,9.36c0-5.16-4.2-9.36-9.35-9.36c-3.78,0-7.05,2.26-8.52,5.5C32.47,2.26,29.2,0,25.42,0
		c-5.16,0-9.35,4.2-9.35,9.36c0,1.09,0.19,2.13,0.53,3.1c0.39,1.11,0.98,2.12,1.73,2.99c0.32,0.37,0.67,0.72,1.05,1.04l14.27,14.17
		c0.09,0.09,0.21,0.13,0.32,0.13c0.12,0,0.23-0.04,0.32-0.13l14.8-14.7l0,0c0.96-0.96,1.71-2.13,2.18-3.43
		C51.61,11.53,51.81,10.47,51.81,9.36z"/>
	<path class="st1" d="M90.77,35.69l0.03-0.07c-5.89,0-9.5-3.59-13.84-6.62c-3.15-2.2-6.68-4.1-11.76-4.1
		c-2.28,0-4.22,0.02-5.87,0.07H47.34c-1.75,0-3.17,1.42-3.17,3.18c0,1.75,1.42,3.18,3.17,3.18h6.79h4.46c2.27,0.37,4,2.33,4,4.71
		c0,1.8-1.01,3.35-2.48,4.16c-0.36,0.1-2.08,0.55-4.38,1.16c-1.48,0.36-2.89,0.73-4.21,1.12l-0.28,0.07
		c-4.94,1.31-10.27,2.71-11.23,2.94c-0.64,0.03-1.22,0.01-1.74-0.12L20.56,33.86l-3.21-2.32l0,0.01c-0.15-0.1-0.32-0.19-0.48-0.27
		c-0.24-0.12-0.48-0.23-0.74-0.31c-0.2-0.06-0.41-0.1-0.63-0.14c-0.23-0.03-0.46-0.06-0.7-0.06c-0.32,0-0.63,0.03-0.92,0.09
		c-2.62,0.23-4.68,2.4-4.68,5.08c0,1.42,0.59,2.68,1.52,3.61l0,0l0.02,0.02c0.37,0.36,0.79,0.67,1.26,0.91l1.22,0.89l27.79,20.15
		l0,0c0.11,0.04,0.23,0.09,0.34,0.13c0.63,0.21,1.29,0.36,1.98,0.36c0.41,0,0.81-0.04,1.19-0.12l0.14-0.04
		c9.41-2.4,28.87-7.34,37.97-9.58c0.22-0.08,0.44-0.16,0.65-0.24c2.32-0.58,5.49-1.28,7.48-1.28v-1.33l0.03,0l-0.03-1.83V36.09
		V35.69z"/>
</g>
</svg>
