<?xml version="1.0" encoding="utf-8"?>
<!-- Generator: Adobe Illustrator 24.2.1, SVG Export Plug-In . SVG Version: 6.00 Build 0)  -->
<svg version="1.1" id="Layer_1" xmlns="http://www.w3.org/2000/svg" xmlns:xlink="http://www.w3.org/1999/xlink" x="0px" y="0px"
	 viewBox="0 0 100 62" style="enable-background:new 0 0 100 62;" xml:space="preserve">
<style type="text/css">
	.st0{fill-rule:evenodd;clip-rule:evenodd;fill:#788EC7;}
	.st1{fill-rule:evenodd;clip-rule:evenodd;fill:#0056A7;}
</style>
<g>
	<path class="st0" d="M73.37,8.38C71.53,25.6,67.34,43.6,53.5,54.38c-1.11,0.88-2.27,1.7-3.51,2.47c-1.23-0.77-2.4-1.59-3.51-2.47
		C32.67,43.59,28.47,25.6,26.63,8.38c6.93-2.37,12.11-3.35,19.85-3.77c1.11-0.06,2.27-0.11,3.51-0.15c1.23,0.04,2.4,0.1,3.51,0.15
		C61.26,5.03,66.44,6.01,73.37,8.38z"/>
	<path class="st1" d="M50,62C29.49,50.84,23.92,28.11,21.86,5.37C32.27,1.5,38.63,0.36,50,0c11.37,0.36,17.73,1.5,28.14,5.37
		C76.08,28.11,70.51,50.84,50,62z M50,4.45c-9.82,0.32-15.44,1.22-23.37,3.93C28.6,26.97,33.35,46.48,50,56.85
		C66.65,46.48,71.4,26.97,73.37,8.38C65.44,5.67,59.82,4.77,50,4.45z"/>
	<path class="st1" d="M53.5,4.61v49.77c-1.11,0.88-2.27,1.7-3.51,2.47c-1.23-0.77-2.4-1.59-3.51-2.47V4.61
		c1.11-0.06,2.27-0.11,3.51-0.15C51.23,4.5,52.39,4.55,53.5,4.61z"/>
	<path class="st1" d="M28.28,9.45l-1.64-1.07c0,0-0.01,0-0.01,0C28.6,26.97,33.35,46.48,50,56.85v-1.81
		C34.34,44.73,30.09,25.51,28.28,9.45z"/>
	<path class="st1" d="M73.36,8.38l-1.64,1.07C69.91,25.51,65.66,44.73,50,55.04v1.81C66.65,46.48,71.4,26.97,73.36,8.38
		C73.36,8.38,73.36,8.38,73.36,8.38z"/>
	<path class="st1" d="M50,4.45c-9.82,0.32-15.44,1.22-23.36,3.93l1.64,1.07c0,0,0-0.01,0-0.01C35.36,7.11,40.66,6.28,50,5.98
		c9.34,0.3,14.64,1.13,21.72,3.46c0,0,0,0.01,0,0.01l1.64-1.07C65.44,5.67,59.82,4.77,50,4.45z"/>
</g>
</svg>
