<?xml version="1.0" encoding="utf-8"?>
<!-- Generator: Adobe Illustrator 24.2.3, SVG Export Plug-In . SVG Version: 6.00 Build 0)  -->
<svg version="1.1" id="Layer_1" xmlns="http://www.w3.org/2000/svg" xmlns:xlink="http://www.w3.org/1999/xlink" x="0px" y="0px"
	 viewBox="0 0 100 62" style="enable-background:new 0 0 100 62;" xml:space="preserve">
<style type="text/css">
	.st0{fill-rule:evenodd;clip-rule:evenodd;fill:#FCB23D;}
	.st1{fill-rule:evenodd;clip-rule:evenodd;fill:#FFFFFF;}
</style>
<g>
	<path class="st0" d="M73.4,8.4c-1.8,17.2-6,35.2-19.9,46c-1.1,0.9-2.3,1.7-3.5,2.5c-1.2-0.8-2.4-1.6-3.5-2.5
		c-13.8-10.8-18-28.8-19.9-46C33.6,6,38.7,5,46.5,4.6c1.1-0.1,2.3-0.1,3.5-0.2c1.2,0,2.4,0.1,3.5,0.2C61.3,5,66.4,6,73.4,8.4z"/>
	<path class="st1" d="M50,62C29.5,50.8,23.9,28.1,21.9,5.4C32.3,1.5,38.6,0.4,50,0c11.4,0.4,17.7,1.5,28.1,5.4
		C76.1,28.1,70.5,50.8,50,62z M50,4.4c-9.8,0.3-15.4,1.2-23.4,3.9c2,18.6,6.7,38.1,23.4,48.5C66.7,46.5,71.4,27,73.4,8.4
		C65.4,5.7,59.8,4.8,50,4.4z"/>
	<path class="st1" d="M53.5,4.6v49.8c-1.1,0.9-2.3,1.7-3.5,2.5c-1.2-0.8-2.4-1.6-3.5-2.5V4.6c1.1-0.1,2.3-0.1,3.5-0.2
		C51.2,4.5,52.4,4.6,53.5,4.6z"/>
	<path class="st1" d="M28.3,9.4l-1.6-1.1h0c2,18.6,6.7,38.1,23.4,48.5V55C34.3,44.7,30.1,25.5,28.3,9.4z"/>
	<path class="st1" d="M73.4,8.4l-1.6,1.1C69.9,25.5,65.7,44.7,50,55v1.8C66.7,46.5,71.4,27,73.4,8.4L73.4,8.4z"/>
	<path class="st1" d="M50,4.4c-9.8,0.3-15.4,1.2-23.4,3.9l1.6,1.1v0C35.4,7.1,40.7,6.3,50,6c9.3,0.3,14.6,1.1,21.7,3.5v0l1.6-1.1
		C65.4,5.7,59.8,4.8,50,4.4z"/>
</g>
</svg>
