<?xml version="1.0" encoding="utf-8"?>
<!-- Generator: Adobe Illustrator 24.2.3, SVG Export Plug-In . SVG Version: 6.00 Build 0)  -->
<svg version="1.1" id="Слой_2" xmlns="http://www.w3.org/2000/svg" xmlns:xlink="http://www.w3.org/1999/xlink" x="0px" y="0px"
	 viewBox="0 0 3545 1627.7" style="enable-background:new 0 0 3545 1627.7;" xml:space="preserve">
<style type="text/css">
	.st0{opacity:0.28;fill:#EBF3FA;enable-background:new    ;}
	.st1{fill:#367F00;}
	.st2{fill:#8BBF0D;}
	.st3{fill:#EBF3FA;}
	.st4{fill:#DBE2EA;}
	.st5{fill:#2C3A64;}
	.st6{fill:#2B478B;}
	.st7{fill:#233862;}
	.st8{fill:#764938;}
	.st9{fill:#F99746;}
	.st10{fill:#573325;}
	.st11{fill:#ED7D2B;}
	.st12{fill:#F04E31;}
	.st13{fill:#D0442A;}
	.st14{fill:#EE9849;}
	.st15{fill:#FFB93E;}
	.st16{fill:#F58220;}
	.st17{fill:#F9DDBF;}
	.st18{fill:#DBAF8F;}
	.st19{fill:#EFCBAB;}
	.st20{fill:#D8E8FD;}
	.st21{fill:#FCECDB;}
	.st22{fill:#FFA412;}
	.st23{fill:#FFAF28;}
	.st24{fill:#2E3552;}
	.st25{fill:#885739;}
	.st26{fill:#C65447;}
	.st27{fill:#FFB27D;}
	.st28{fill:#E58638;}
	.st29{fill:#5D3A21;}
	.st30{fill:#421C12;}
</style>
<g>
	<path class="st0" d="M405.8,1626.8c0,0-639.6-435.8-312.8-927c277-416.3,773.5-310.2,1033.9-137.4
		c110.9,73.6,432,191.6,704.5-241.5c336.7-535.1,1608-420.1,1373.5,489c-113.5,440,521.9,378,288,817.8L405.8,1626.8z"/>
	<g>
		<g>
			<path class="st1" d="M1925.9,802l435.7-678.2c5.6-8.7,17.2-11.2,25.9-5.6L2729.7,338c8.7,5.6,11.2,17.2,5.6,25.9l-435.7,678.2
				c-5.6,8.7-17.2,11.2-25.9,5.6l-342.3-219.8C1922.8,822.3,1920.3,810.7,1925.9,802z"/>
			<path class="st2" d="M2009.5,735.2l326-507.6c37.4,24,87.2,13.2,111.2-24.2l180.7,116.1c-24,37.4-13.2,87.2,24.2,111.2
				l-326,507.6c-37.4-24-87.2-13.2-111.2,24.2l-180.7-116.1C2057.8,809,2046.9,759.2,2009.5,735.2z"/>
			
				<ellipse transform="matrix(0.5404 -0.8414 0.8414 0.5404 580.6063 2228.8242)" class="st1" cx="2330.6" cy="582.9" rx="142.5" ry="164.5"/>
			<g>
				
					<ellipse transform="matrix(0.5404 -0.8414 0.8414 0.5404 806.618 2244.9033)" class="st1" cx="2458.4" cy="384.1" rx="54.3" ry="62.7"/>
				
					<ellipse transform="matrix(0.5404 -0.8414 0.8414 0.5404 354.5824 2212.7319)" class="st1" cx="2202.9" cy="781.8" rx="54.3" ry="62.7"/>
			</g>
			<path class="st2" d="M2339.2,603.1c20.2-15.9,26.4-17.2,31.3-14c4.6,3,7,11.1-1.5,24.3c-8.9,13.9-18.6,19.9-22.8,22.4l-6.8,4.2
				l17.5,27l6.5-3.9c8.8-5.4,16.7-12.5,23.9-21.8l19.1,12.3l17.7-27.5l-20.6-13.2c9-24.4,3.7-46.8-14.2-58.3
				c-22.6-14.5-45.5-0.3-66.9,17.1c-18.7,14.9-25.9,13.8-30.6,10.9c-7.3-4.7-6.8-16.5,1.1-28.8c6.8-10.6,16.5-19.8,26.7-25.2
				l7.7-4.1l-18.1-26.7l-6.1,3.1c-9.7,4.8-20.9,14.8-29.7,26.2l-19.8-12.7l-17.8,27.7l21.1,13.6c-10.6,28.7-0.6,51.1,14.9,61.1
				C2296.5,632.5,2320.8,617.7,2339.2,603.1z"/>
		</g>
		<g>
			<path class="st1" d="M1939.8,726.1l787.8-170.9c10.1-2.2,20.1,4.2,22.3,14.3l86.3,397.5c2.2,10.1-4.2,20.1-14.3,22.3L2034,1160.3
				c-10.1,2.2-20.1-4.2-22.3-14.3l-86.3-397.5C1923.3,738.3,1929.7,728.3,1939.8,726.1z"/>
			<path class="st2" d="M2046.2,738l589.5-127.9c9.4,43.5,52.3,71,95.8,61.6l45.5,209.9c-43.5,9.4-71,52.3-61.6,95.8l-589.5,127.9
				c-9.4-43.5-52.3-71-95.8-61.6l-45.5-209.9C2028.1,824.4,2055.7,781.5,2046.2,738z"/>
			
				<ellipse transform="matrix(0.9773 -0.212 0.212 0.9773 -127.7245 524.3043)" class="st1" cx="2380.9" cy="857.7" rx="142.5" ry="164.5"/>
			<g>
				
					<ellipse transform="matrix(0.9773 -0.212 0.212 0.9773 -111.8471 572.1361)" class="st1" cx="2611.8" cy="807.6" rx="54.3" ry="62.7"/>
				
					<ellipse transform="matrix(0.9773 -0.212 0.212 0.9773 -143.6003 476.4687)" class="st1" cx="2149.9" cy="907.8" rx="54.3" ry="62.7"/>
			</g>
			<path class="st2" d="M2372.6,878c25.5,3.1,30.8,6.5,32,12.2c1.2,5.4-2.9,12.8-18.2,16.1c-16.1,3.5-27.2,0.9-31.9-0.3l-7.8-1.8
				l-6.8,31.5l7.4,1.8c10,2.5,20.7,3,32.3,1.6l4.8,22.2l31.9-6.9l-5.2-23.9c23.6-10.9,35.8-30.4,31.2-51.3
				c-5.7-26.2-31.9-32.5-59.4-35.3c-23.7-2.7-28.1-8.6-29.3-14c-1.8-8.4,6.9-16.5,21.1-19.6c12.3-2.7,25.7-2.3,36.7,1.1l8.3,2.5
				l6.1-31.7l-6.5-2.2c-10.3-3.5-25.2-4.3-39.6-2.5l-5-23l-32.2,7l5.3,24.5c-27.8,12.7-36.6,35.6-32.7,53.7
				C2321.6,868.5,2349.3,875.3,2372.6,878z"/>
		</g>
		<g>
			<path class="st1" d="M1842.3,1399.2L1280,821.7c-7.2-7.4-7.1-19.3,0.4-26.5l291.4-283.8c7.4-7.2,19.3-7.1,26.5,0.4l562.3,577.6
				c7.2,7.4,7.1,19.3-0.4,26.5l-291.4,283.8C1861.4,1406.8,1849.5,1406.7,1842.3,1399.2z"/>
			<path class="st2" d="M1796.1,1302.7l-420.8-432.2c31.9-31,32.5-82,1.5-113.8l153.9-149.8c31,31.9,82,32.5,113.8,1.5l420.8,432.2
				c-31.9,31-32.5,82-1.5,113.8l-153.9,149.8C1878.9,1272.3,1827.9,1271.7,1796.1,1302.7z"/>
			
				<ellipse transform="matrix(0.7165 -0.6976 0.6976 0.7165 -178.8313 1470.9429)" class="st1" cx="1720.3" cy="955.5" rx="164.5" ry="142.5"/>
			<g>
				
					<ellipse transform="matrix(0.7165 -0.6976 0.6976 0.7165 -107.4498 1307.9164)" class="st1" cx="1555.4" cy="786.2" rx="62.7" ry="54.3"/>
				
					<ellipse transform="matrix(0.7165 -0.6976 0.6976 0.7165 -250.2258 1633.9749)" class="st1" cx="1885.1" cy="1124.8" rx="62.7" ry="54.3"/>
			</g>
			<path class="st2" d="M1741.9,951.7c-10.9-23.3-10.8-29.6-6.6-33.7c3.9-3.8,12.4-4.3,23.3,6.9c11.5,11.8,15.2,22.6,16.7,27.2
				l2.6,7.6l30.3-10.9l-2.4-7.2c-3.2-9.8-8.4-19.1-15.8-28.2l16.3-15.8l-22.8-23.4l-17.5,17c-21.7-14.3-44.8-14.2-60,0.7
				c-19.2,18.7-10.6,44.3,1.5,69.1c10.3,21.5,7.6,28.4,3.7,32.2c-6.2,6-17.6,2.9-27.8-7.5c-8.8-9-15.5-20.6-18.5-31.7l-2.3-8.4
				l-30.1,11.6l1.6,6.7c2.5,10.6,9.7,23.7,18.9,34.9l-16.9,16.4l23,23.6l18-17.5c25.5,16.8,49.6,12.2,62.8-0.7
				C1760.8,1000,1751.9,972.9,1741.9,951.7z"/>
		</g>
		<g>
			
				<rect x="1043.6" y="424.3" transform="matrix(0.7254 -0.6883 0.6883 0.7254 -92.9974 1038.3805)" class="st3" width="422.8" height="422.8"/>
			
				<rect x="1334.9" y="308.1" transform="matrix(0.7254 -0.6883 0.6883 0.7254 20.6132 1090.7665)" class="st4" width="85.2" height="422.8"/>
		</g>
		<g>
			<path class="st5" d="M837.9,927l-61.3,49.7c0,0-1.8-10.8-8.1-9.1c-9.8,2.6-21.8-20.8-10.2-44.6c1.3-2.6,2.6-4.9,3.9-7
				c-2,0.3-4.2,0.5-6.1,0c-5-1.3-9.5-16-9.4-20.6c0.1-4.6,4.7-18.5,12.7-21c7.9-2.5,17.7,5.3,17.7,5.3c-2.5-6.3-16.8-8-16.8-8
				c29.1,1,30.5,20.1,30.6,21.9C815.4,880.4,837.9,927,837.9,927z"/>
			<path class="st6" d="M788.6,1452.6c-0.6-12.4-0.4-23.1,1.1-31c2-10.8,3.7-21.2,5-31.4c5.1-39.7,4.9-74.3,2.7-102.3
				c-0.7-9.2-1.7-17.6-2.7-25.3c-5.7-58.4-12-70.8-12-70.8l-28.3,7.5l-7.9,24.9l-38,12.3l-3.5,1.1c6.7,35.5,15.3,83.8,22,121.6
				c2.9,16.4,5.4,30.8,7.3,41.4c0.6,3.6,1.2,6.7,1.6,9.3c1,5.6,1.5,8.7,1.5,8.7c-2.7,11-3.1,23-1.9,35.3
				c7,69.1,63.6,147.6,63.6,147.6l13-4.8C812.2,1596.9,791.5,1509.1,788.6,1452.6z"/>
			<path class="st7" d="M794.7,1262.7c-5.7-58.4-12-70.8-12-70.8l-28.3,7.5l-7.9,24.9l-38,12.3l-3.5,1.1
				c6.7,35.5,15.3,83.8,22,121.6c2.9,16.4,5.4,30.8,7.3,41.4c0.6,3.6,1.2,6.7,1.6,9.3l61.4-122.1
				C796.6,1278.8,795.7,1270.3,794.7,1262.7z"/>
			<path class="st6" d="M753.9,1272.3c-5.5,38.3-13.7,87.8-23.9,125.9c-5.4,20.2-11.4,37.1-17.8,47.5c-2.2,3.6-4.6,9.5-7.1,17.1
				c-14.8,44.7-33,145.8-33,145.8l-8.3,3.3c0,0-32-90.9-4.3-164.7c2.8-7.5,6.3-14.9,10.4-21.9c0.5-0.8,0.8-1.7,0.7-2.6c0,0,0,0,0,0
				c-0.4-3.1-1.3-10.8-2.3-21.6c-2.8-29.8-5.5-130.7-7-154.4c-3-48.6,20.1-68.9,20.1-68.9s63.7,24,87.5,17.7l1.4,12.2
				C770.3,1207.6,754.7,1272.3,753.9,1272.3z"/>
			<path class="st8" d="M919.4,1157.8c-16.9-7.5-38.1-17.6-42.7-22.7c-10.7-11.9-23.7-52-35.8-78.4c-1.1-2.5-2.2-4.8-3.3-7.1
				c-0.1-0.2-0.2-0.5-0.4-0.7c-0.6-1.1-1.1-2.1-1.6-3c0-0.1-0.1-0.2-0.2-0.3c-2.3-4.3-4.6-7.8-6.8-10.1v-0.1c-2.7-2.9-5.2-4-7.6-3.1
				c0,0-4.6,2.4-9.4,8c-0.6,0.5-1,1.1-1.4,1.7c-2.9,3.6-5.6,8.5-7.3,14.6c-1.3,4.6-2,10-1.7,16.2c0.4,10.2,5.4,22.9,12.6,35.7
				c0.3,0.6,0.6,1.2,1,1.8c13.8,24.2,35,48.3,47.9,56.2c8.5,5.2,29.8,8.4,47.7,10.2c11.9,1.3,22.5,1.9,26.8,2.2
				c1.4,0.1,2.2,0.1,2.2,0.1l1.8-11.9C941.4,1167.1,931.5,1163.1,919.4,1157.8z"/>
			<path class="st8" d="M805.7,1022.2C805.7,1022.2,805.7,1022.2,805.7,1022.2c0,0-1.4-0.6-3.7-1.6c-1.1-1.9,0.2-8.9,2-16.1
				c2.3-9.2,5.5-18.8,5.5-18.8l-29.6-13.9l-1.8-0.8c-5.2,21.3-14.2,34-19.2,36.6c-2.5-0.3-5.5-0.6-8.4-0.8c-3-0.2-8.1-0.4-14.1,1.8
				c1.7,23.8,11,59.7,52,57.5c10.9-0.6,20-3,27.4-6.4C812.5,1039.4,806,1023,805.7,1022.2z"/>
			<path class="st9" d="M829.5,1034.9c0,0-6.3-5.8-23.8-12.7c0,0,0,0,0,0c0.3,1,7.7,28,5,33.8c-2.8,5.9-55.1-13.1-58-17.4
				c-2.3-3.5-2.3-21.8-2.3-28.9c0-1.8,0-2.9,0-2.9s-19.5-2.6-30.5,1.8c0,0,4.3,9.4,5.9,19.8c0.2,1,0.3,2,0.4,3
				c0.2,2.1,0.3,4.2,0.2,6.2c-0.2,2.7-1.6,5.1-3.8,7.4c-2,2.1-4.8,4.3-7.9,6.5c-2,1.5-4.2,3-6.5,4.7l0,0
				c-0.2,12.2,0.7,32.4-1.6,53.8c-0.6,5.4-2.4,10.7-5.2,15.3c-1.1,1.8-2.4,3.6-3.9,5.2c-11.5,12.9-32,38.8-27.5,54.8
				c0.3,15.1,128.1,35.1,125.4,18.4c0,0,19.2-92.5,29.6-114.9c0.4-0.8,0.7-1.6,1-2.4C834.3,1064.9,819,1041.7,829.5,1034.9z"/>
			<path class="st10" d="M779.9,971.8c1.6,9.7,6.8,27.9,24.1,32.7c2.3-9.2,5.5-18.8,5.5-18.8L779.9,971.8z"/>
			<path class="st8" d="M839.4,946.7c0-9.1-2.6-20.1-29.3-25.1s-25.6,13.5-32,39.1c-6.4,25.7,35,35.2,35,35.2
				C824,997.7,839.4,955.8,839.4,946.7z"/>
			<path class="st5" d="M834.8,964.4c-4-0.5-1.6-14.2-2-21.2c-0.3-5.2-4-11.3-6-14.2c-1.6,2.8-17,29.5-40.1,33.9
				c0,0,11.6-6.1,21.6-16.1c-5.2,3.6-10.8,6.1-16.4,6.2c-18.4,0.1-24.7-6.4-24.7-6.4s15.9-7.2,23.2-24.9c0,0,19-14.7,38.5,3.3
				c3.3-1.7,8.5-2.1,12.9,7.2C848.4,946.1,834.8,964.4,834.8,964.4z"/>
			<path class="st9" d="M822.8,1066.1c5.2-9.9,18.1-9.4,18.1-9.4c-1.5-4.5-11.4-21.8-11.4-21.8
				C821.6,1037.2,822.8,1066.1,822.8,1066.1z"/>
			<path class="st11" d="M722.7,1045.1c-2,2.1-4.8,4.3-7.9,6.5c-2,1.5-4.2,3-6.5,4.7l0,0c-0.2,12.2,0.7,32.4-1.6,53.8
				c-0.6,5.4-2.4,10.7-5.2,15.3c13,20.9,34.4,47.1,59.6,47.4C795.3,1173.1,743.3,1080,722.7,1045.1z"/>
			<path class="st7" d="M687.3,1604.3c-3.9-2.8-10.2-12.9-11.4-14.8c-9.5,1.3-16.3-3.5-20.5-7.8c1.2,8.8-3.9,12.1-7.2,19.4
				c-3.4,7.6-1.9,17.6-1.9,17.6H712C710.7,1606.3,691.6,1607.4,687.3,1604.3z"/>
			<path class="st7" d="M828.2,1604.3c-3.8-2.7-15.9-16.4-18.7-19.6c-3,1.8-6.5,3.2-9.8,3.4c-4.2,0.2-8.1-0.9-11-2.1
				c2.8,5.2,4.3,8.8,0.5,15.1c-4.3,7.1-1.9,17.6-1.9,17.6H853C851.6,1606.3,832.5,1607.4,828.2,1604.3z"/>
			<path class="st8" d="M843.6,1181.1c-4.3-2.4-8.4-6.1-14-9.3c-13.3-7.5-28.6-16.7-39-24.3c-6-4.3-10.5-8.2-12.1-10.9
				c-2.5-4.2-5.2-10.9-8.3-19.2c-1.6-4.3-3.3-9.1-4.9-14.1c-3-8.3-5.9-17.2-9-26.2c-5.5-16.4-11.4-32.8-17.1-45.6
				c-3.7-8-7.2-14.6-10.6-18.6c-2.7-3.3-5.2-4.9-7.7-4.5c-0.4,0.1-0.7,0.2-1,0.3c0,0-14.2,3.9-14.4,32.5c-0.1,1.6,0,3.3,0.1,5
				c0.2,5,1.2,11.1,2.7,17.9c2.4,11.2,6.3,24.3,11.2,37.5c1.4,3.6,2.8,7.2,4.2,10.8c10.6,26.4,24.4,51.1,35.9,59.5
				c0.5,0.4,0.9,0.7,1.4,1c4.8,3.1,11.9,6.1,20.1,9c11.6,3.9,25.4,7.5,37.8,10.5h0.1c7.2,1.6,13.8,3.1,19.3,4.1c0,0,1.2,0.3,3.3,0.7
				c6.9,1.3,11.2,2.1,11.2,2.1l3-11.1C855.9,1188,850.6,1184.9,843.6,1181.1z"/>
			<path class="st9" d="M720,1008.6c0,0-14.2,3.9-14.4,32.5c0,0,14.6-14.8,33.6-9.6C732.3,1016.2,725.7,1006.3,720,1008.6z"/>
			<path class="st8" d="M855.9,1188c0,0,7.4,4,13,4.4s7.8,5.9,10.4,7.5c2.5,1.6,5.7,3.2,5.7,3.2c-4.1,2.4-11.4-1.9-11.4-1.9
				s-0.3,2.4-0.5,5.4c-0.2,3,11.4,18.4,9,19.9c-2.4,1.5-9.3-4.7-14.1-7.8c-4.8-3.2-15.2-19.6-15.2-19.6L855.9,1188z"/>
		</g>
		<g>
			
				<rect x="863" y="732.2" transform="matrix(0.9782 -0.2076 0.2076 0.9782 -172.5022 243.6241)" class="st12" width="422.8" height="422.8"/>
			
				<rect x="828" y="735.9" transform="matrix(0.9782 -0.2076 0.2076 0.9782 -138.9792 232.7505)" class="st13" width="422.8" height="85.2"/>
		</g>
		<g>
			<g>
				<path class="st14" d="M1896.9,366.6l-6.8-5.6c-7.2-6-8.2-16.7-2.2-24l47.1-56.8c6-7.2,16.7-8.2,24-2.2l9.7,8
					c1.4,1.2,1.6,3.3,0.4,4.7c-1.2,1.4-3.3,1.6-4.7,0.4l-9.7-8c-4.4-3.6-10.9-3-14.6,1.4l-47.1,56.8c-3.6,4.4-3,10.9,1.4,14.6
					l6.8,5.6c4.4,3.6,10.9,3,14.6-1.4l31.2-37.7c1.2-1.4,3.3-1.6,4.7-0.4c1.4,1.2,1.6,3.3,0.4,4.7l-31.2,37.7
					C1914.9,371.6,1904.1,372.6,1896.9,366.6z"/>
			</g>
			<g>
				<path class="st14" d="M1851.7,427l-12.1-10.1c-11.3-9.3-12.3-26.7-2.3-38.8l70.8-85.3c1.2-1.4,3.3-1.6,4.7-0.4
					c1.4,1.2,1.6,3.3,0.4,4.7l-70.8,85.3c-7.7,9.2-7,22.4,1.4,29.4l12.1,10.1c8.4,7,21.5,5.2,29.2-4.1l80.6-97.2
					c7.7-9.2,7-22.4-1.4-29.4c-1.4-1.2-1.6-3.3-0.4-4.7c1.2-1.4,3.3-1.6,4.7-0.4c11.3,9.3,12.3,26.7,2.3,38.8l-80.6,97.2
					C1880.3,434.1,1863,436.3,1851.7,427z"/>
			</g>
		</g>
		<g>
			<g>
				<path class="st15" d="M1087.7,462.7l-7.5,4.6c-8,4.9-18.5,2.3-23.4-5.7l-38.2-63.1c-4.9-8-2.3-18.5,5.7-23.4l10.8-6.5
					c1.6-1,3.6-0.5,4.6,1.1c1,1.6,0.5,3.6-1.1,4.6l-10.8,6.5c-4.9,3-6.4,9.3-3.5,14.2l38.2,63.1c3,4.9,9.3,6.4,14.2,3.5l7.5-4.6
					c4.9-3,6.4-9.3,3.5-14.2l-25.4-41.9c-1-1.6-0.5-3.6,1.1-4.6c1.6-1,3.6-0.5,4.6,1.1l25.4,41.9
					C1098.3,447.3,1095.7,457.8,1087.7,462.7z"/>
			</g>
			<g>
				<path class="st15" d="M1130,525.2l-13.5,8.2c-12.5,7.6-29.3,2.8-37.4-10.6l-57.5-94.8c-1-1.6-0.5-3.6,1.1-4.6
					c1.6-1,3.6-0.5,4.6,1.1l57.5,94.8c6.2,10.3,18.9,14,28.3,8.3l13.5-8.2c9.4-5.7,11.9-18.6,5.7-28.9l-65.4-108
					c-6.2-10.3-18.9-14-28.3-8.3c-1.6,1-3.6,0.5-4.6-1.1c-1-1.6-0.5-3.6,1.1-4.6c12.5-7.6,29.3-2.8,37.4,10.6l65.4,108
					C1146.1,500.5,1142.5,517.6,1130,525.2z"/>
			</g>
		</g>
		<g>
			<path class="st16" d="M2946,1619.8h-639.9c-6.5,0-11.9-5.3-11.9-11.9V985c0-6.5,5.3-11.9,11.9-11.9H2946
				c6.5,0,11.9,5.3,11.9,11.9v622.9C2957.9,1614.4,2952.6,1619.8,2946,1619.8z"/>
			<path class="st17" d="M2919.6,1602.8h-640.4c-6.4,0-11.6-5.2-11.6-11.6V995.3c0-6.4,5.2-11.6,11.6-11.6h640.4
				c6.4,0,11.6,5.2,11.6,11.6v595.8C2931.2,1597.5,2926,1602.8,2919.6,1602.8z"/>
			<path class="st16" d="M2877.8,986.7v619.4c0,7.5-6.2,13.7-13.7,13.7h-636.3c-7.5,0-13.7-6.1-13.7-13.7V986.7
				c0-7.5,6.1-13.7,13.7-13.7h636.3C2871.6,973.1,2877.8,979.2,2877.8,986.7z"/>
			<rect x="2754.1" y="973.1" class="st12" width="41.2" height="646.7"/>
		</g>
		<g>
			<rect x="1707.5" y="550.1" class="st18" width="775.6" height="1069.7"/>
			<rect x="1687.5" y="550.1" class="st19" width="775.6" height="1069.7"/>
			<rect x="1740.7" y="623.5" class="st3" width="669.2" height="923"/>
			<path class="st16" d="M2210.1,655.1h-269.5c-6.9,0-12.5-5.6-12.5-12.5v-92.4c0-6.9,5.6-12.5,12.5-12.5h269.5
				c6.9,0,12.5,5.6,12.5,12.5v92.4C2222.7,649.4,2217,655.1,2210.1,655.1z"/>
			<g>
				<g>
					<rect x="1740.7" y="665.4" class="st20" width="669.2" height="2.8"/>
					<rect x="1740.7" y="713.9" class="st20" width="669.2" height="2.8"/>
					<rect x="1740.7" y="762.4" class="st20" width="669.2" height="2.8"/>
					<rect x="1740.7" y="810.9" class="st20" width="669.2" height="2.8"/>
					<rect x="1740.7" y="859.4" class="st20" width="669.2" height="2.8"/>
					<rect x="1740.7" y="907.9" class="st20" width="669.2" height="2.8"/>
					<rect x="1740.7" y="956.4" class="st20" width="669.2" height="2.8"/>
					<rect x="1740.7" y="1004.9" class="st20" width="669.2" height="2.8"/>
					<rect x="1740.7" y="1053.4" class="st20" width="669.2" height="2.8"/>
				</g>
				<g>
					<rect x="1740.7" y="1106.2" class="st20" width="669.2" height="2.8"/>
					<rect x="1740.7" y="1154.7" class="st20" width="669.2" height="2.8"/>
					<rect x="1740.7" y="1203.2" class="st20" width="669.2" height="2.8"/>
					<rect x="1740.7" y="1251.7" class="st20" width="669.2" height="2.8"/>
					<rect x="1740.7" y="1300.2" class="st20" width="669.2" height="2.8"/>
					<rect x="1740.7" y="1348.7" class="st20" width="669.2" height="2.8"/>
					<rect x="1740.7" y="1397.2" class="st20" width="669.2" height="2.8"/>
					<rect x="1740.7" y="1445.7" class="st20" width="669.2" height="2.8"/>
					<rect x="1740.7" y="1494.2" class="st20" width="669.2" height="2.8"/>
				</g>
			</g>
		</g>
		<g>
			<rect x="877" y="1251.7" class="st21" width="629.1" height="368.2"/>
			<g>
				<g>
					<path class="st14" d="M910.6,1280.3h-43.2c-2,0-3.7-1.7-3.7-3.7v-2.9c0-2,1.7-3.7,3.7-3.7h43.2c2,0,3.7,1.7,3.7,3.7v2.9
						C914.3,1278.6,912.6,1280.3,910.6,1280.3z"/>
					<path class="st14" d="M910.6,1300.1h-43.2c-2,0-3.7-1.7-3.7-3.7v-2.9c0-2,1.7-3.7,3.7-3.7h43.2c2,0,3.7,1.7,3.7,3.7v2.9
						C914.3,1298.4,912.6,1300.1,910.6,1300.1z"/>
				</g>
				<g>
					<path class="st14" d="M910.6,1353.4h-43.2c-2,0-3.7-1.7-3.7-3.7v-2.9c0-2,1.7-3.7,3.7-3.7h43.2c2,0,3.7,1.7,3.7,3.7v2.9
						C914.3,1351.7,912.6,1353.4,910.6,1353.4z"/>
					<path class="st14" d="M910.6,1373.2h-43.2c-2,0-3.7-1.7-3.7-3.7v-2.9c0-2,1.7-3.7,3.7-3.7h43.2c2,0,3.7,1.7,3.7,3.7v2.9
						C914.3,1371.5,912.6,1373.2,910.6,1373.2z"/>
				</g>
				<g>
					<path class="st14" d="M910.6,1426.5h-43.2c-2,0-3.7-1.7-3.7-3.7v-2.9c0-2,1.7-3.7,3.7-3.7h43.2c2,0,3.7,1.7,3.7,3.7v2.9
						C914.3,1424.8,912.6,1426.5,910.6,1426.5z"/>
					<path class="st14" d="M910.6,1446.3h-43.2c-2,0-3.7-1.7-3.7-3.7v-2.9c0-2,1.7-3.7,3.7-3.7h43.2c2,0,3.7,1.7,3.7,3.7v2.9
						C914.3,1444.6,912.6,1446.3,910.6,1446.3z"/>
				</g>
				<g>
					<path class="st14" d="M910.6,1499.6h-43.2c-2,0-3.7-1.7-3.7-3.7v-2.9c0-2,1.7-3.7,3.7-3.7h43.2c2,0,3.7,1.7,3.7,3.7v2.9
						C914.3,1498,912.6,1499.6,910.6,1499.6z"/>
					<path class="st14" d="M910.6,1519.4h-43.2c-2,0-3.7-1.7-3.7-3.7v-2.9c0-2,1.7-3.7,3.7-3.7h43.2c2,0,3.7,1.7,3.7,3.7v2.9
						C914.3,1517.7,912.6,1519.4,910.6,1519.4z"/>
				</g>
				<g>
					<path class="st14" d="M910.6,1572.8h-43.2c-2,0-3.7-1.7-3.7-3.7v-2.9c0-2,1.7-3.7,3.7-3.7h43.2c2,0,3.7,1.7,3.7,3.7v2.9
						C914.3,1571.1,912.6,1572.8,910.6,1572.8z"/>
					<path class="st14" d="M910.6,1592.5h-43.2c-2,0-3.7-1.7-3.7-3.7v-2.9c0-2,1.7-3.7,3.7-3.7h43.2c2,0,3.7,1.7,3.7,3.7v2.9
						C914.3,1590.9,912.6,1592.5,910.6,1592.5z"/>
				</g>
			</g>
		</g>
		<g>
			<polygon class="st22" points="1711.4,1197 1711.4,1619.9 1288.6,1619.9 1288.6,1491.4 1288.6,1276.9 1288.6,1197 			"/>
			<path class="st15" d="M1764.7,1197v79.9c0,0,2.4,148,7.7,198.5c10,95.4,39.2,144.4,39.2,144.4h-423.9c0,0-35.9-53.4-45.7-138.1
				c-5.9-50.9,0-204.8,0-204.8V1197H1764.7z"/>
			<rect x="1341.9" y="1197" class="st23" width="422.8" height="79.9"/>
		</g>
		<path class="st24" d="M3212.1,1626.8H210.7c-1.6,0-2.9-1.3-2.9-2.9v-2c0-1.6,1.3-2.9,2.9-2.9h3001.4c1.6,0,2.9,1.3,2.9,2.9v2
			C3215.1,1625.4,3213.8,1626.8,3212.1,1626.8z"/>
		<g>
			<path class="st25" d="M1960.8,1052.3l-4.8-9c0,0,2.4-16.1-17.8-26.3c0,0-7.4-3-11.5,3c-3.8,5.5,7.3,4.5,6.7,14
				c-0.6,9.5,3.9,15,10.2,18.1l5.2,6L1960.8,1052.3z"/>
			<path class="st7" d="M2151.3,1030.7c0,0-17.3,85-112.6,112.7c-29.7,8.7-97.3-89.2-97.3-89.2s2.4-9,17.3-7
				c0,0,65.8,43.5,74.1,48.3c7.3,4.2,55.7-54,77.7-63.3C2132.4,1022.8,2151.3,1030.7,2151.3,1030.7z"/>
			<g>
				
					<rect x="1931.8" y="984.8" transform="matrix(0.1518 -0.9884 0.9884 0.1518 628.4032 2791.3916)" class="st26" width="17.8" height="89.5"/>
				<polygon class="st27" points="1875.9,1019.6 1895.1,1031.5 1897.8,1014 				"/>
				<path class="st27" d="M1995.7,1034.2l-1.1,7.1c-0.5,3-3.2,5-6.2,4.6l-4.9-0.8l2.7-17.6l5.2,0.8
					C1994.3,1028.8,1996.2,1031.4,1995.7,1034.2z"/>
			</g>
			<g>
				<path class="st7" d="M2265,1564.8c0,0,11.8,10.8,9.5,18.4c-2.3,7.7-13,12.8-14.4,22.1c-1.4,9.4-7.2,14.5-12.4,14.5
					c-5.2,0-24.7,0-24.7,0s-3.8-6.6,5.4-8.6c9.2-2,12.7-13,12.1-23.2c-0.6-10.2,0.9-23.8,0.9-23.8l19.6-4.5L2265,1564.8z"/>
				<path class="st7" d="M2120,1592.7c0,0,2.1,24.5-3.1,27.1l-66.4-0.1c0,0,0-7.7,10.7-9.4c10.7-1.7,29.4-7.9,32.6-21.9
					C2097,1574.5,2120,1592.7,2120,1592.7z"/>
				<path class="st14" d="M2064,1246c0,0,3.5,43,7.6,94.7c5.6,70.3,12.3,156.6,13,172.9c1.2,28.4,5.8,73.8,5.8,73.8
					s10.9,10.8,32.9,6.2c0,0,19.5-64.8,25.1-133.4c0.1-1.1,0.2-2.3,0.3-3.4c5.2-69.8,13.3-216.8,13.3-216.8L2064,1246z"/>
				<path class="st28" d="M2064,1246c0,0,3.5,43,7.6,94.7l76.7,119.5c0.1-1.1,0.2-2.3,0.3-3.4c5.2-69.8,13.3-216.8,13.3-216.8
					L2064,1246z"/>
				<path class="st14" d="M2079.9,1251.1c0,0,63.1,155.8,104.6,229c41.5,73.2,54.5,93.7,54.5,93.7s23.8-9.4,25.9-15.8
					c0,0-15.9-141.4-43.7-175.8c-15.7-19.5-34.2-77.9-35-98.3c-0.9-20.4-5.6-60.9-5.6-60.9L2079.9,1251.1z"/>
			</g>
			<path class="st25" d="M2163,1010.9c0,0-42.7,20.6-67.3,13c0,0,6.1-7.6,16.7-13.3c-0.9-4.9-1.5-9.2-1.9-12.9c-1-8.4-1-13.1-1-13.1
				l16.5-13l15.6-12.4C2140.3,994.1,2163,1010.9,2163,1010.9z"/>
			<path class="st6" d="M2061.3,1249.5c0.8,0.7,1.6,1,2.6,1c9.3-0.2,36.3,4.9,59.1,2.6c19.3-1.9,36.4-7.5,54.6-15.5
				c2.5-1.1,8.1-4.1,8-6.7c-0.1-3-0.4-7.2-0.8-12.6c-0.8-10.7-1.8-25.8-2.2-43.7c-0.3-13.3-0.1-28.1,0.9-43.8
				c0.1-1.1,0.1-2.1,0.2-3.2c0.3-5.8,0.4-11.6,0.4-17.2c0.1-18.3-1.2-35.7-3.9-51.3c-4.7-27-13.4-48.2-26.2-57.6
				c-1.7-1.3-12.3,3.8-22.2,8.6c-9,4.4-18,4.9-26.5,3.2l-8.5,7.5c-10.3,9.4-21.7,22.4-26.7,42c-4.2,16.6-6.6,46.6-8,77.8
				c-0.7,14.2-1.1,28.3-1.3,41.9v0.5c-0.1,1.4-0.1,2.8-0.1,4.2C2060.1,1221.5,2060.6,1249.1,2061.3,1249.5z"/>
			<path class="st29" d="M2141.8,972.5c0,0-10.8,19.7-31.3,25.2c-1-8.4-1-13.1-1-13.1l16.5-13L2141.8,972.5z"/>
			<path class="st25" d="M2101.9,984c0,0,40.7,6.7,44.6-18.4c3.8-25,11.7-41.1-14.2-46.4c-25.9-5.3-32.4,3.5-35.7,11.5
				C2093.2,938.8,2091.4,981.6,2101.9,984z"/>
			<path class="st30" d="M2157.3,910c-5.3-5.4-16.5-9.3-47.8-6.9c-41.2,3.2-27.6,29.6-22.3,32.7c5.3,3.1,18.7-5.5,28.7-4.7
				c9.9,0.8,11.8,15.1,15.2,17.1c3.4,2,2-1.5,6.6-3.6c4.6-2.1,5,5.5,3.7,10.4c-1.3,4.9,4.9,11.4,4.9,11.4s0,0,6.3-6.8
				c6.3-6.8,12.3-35.7,9.4-41.8C2161.8,917.3,2159.9,912.7,2157.3,910z"/>
			<path class="st25" d="M1955.9,1042.8c0,0,1.4-5.5-2.4-8s-7.4-9.3-9-8.3c-3.4,1.9,1.8,7.8,0.9,15.2
				C1945,1044.2,1951,1050.9,1955.9,1042.8z"/>
			<path class="st7" d="M2182.6,1174.7c-0.3-13.3-0.1-28.1,0.9-43.8c0.1-1.1,0.1-2.1,0.2-3.2c-3.9-19.2-9.7-36.2-18.4-36.8
				C2165.2,1090.9,2139.5,1131.2,2182.6,1174.7z"/>
			<path class="st25" d="M2216.6,1244.3c0,0-2.1,20.8-4.5,24.8c-2.3,3.9-12.4,16.5-16.6,19c-4.3,2.5,2.6-16.6,1.7-20.3
				c-0.9-3.7-3.5,6.8-5.4,7c-1.9,0.2-1.4-9.2-1.5-12.6c-0.1-3.4,9.1-11.9,12.4-19.2C2206,1235.6,2216.6,1244.3,2216.6,1244.3z"/>
			<path class="st6" d="M2153.9,1001.3c0,0,25.8,12.2,38.1,31c19.2,29.1,41.4,135.2,41.8,145c0.4,9.8-16.2,79.2-16.2,79.2
				s-16.9-1.1-21.2-9.6c0,0,3.4-71.3,1.2-75.8s-70.3-95.6-62.7-115C2142.6,1036.5,2153.9,1001.3,2153.9,1001.3z"/>
		</g>
	</g>
</g>
</svg>
