<?xml version="1.0" encoding="utf-8"?>
<!-- Generator: Adobe Illustrator 24.2.3, SVG Export Plug-In . SVG Version: 6.00 Build 0)  -->
<svg version="1.1" id="Layer_1" xmlns="http://www.w3.org/2000/svg" xmlns:xlink="http://www.w3.org/1999/xlink" x="0px" y="0px"
	 viewBox="0 0 100 62" style="enable-background:new 0 0 100 62;" xml:space="preserve">
<style type="text/css">
	.st0{fill:#FCB23D;}
	.st1{fill:#FFFFFF;}
</style>
<g>
	<g>
		<path class="st0" d="M24.9,16.1C24.6,10.2,24,0,23.3,0c-0.7,0-1.3,9.5-1.6,15.5h-1.2C20.2,9.5,19.6,0,18.9,0s-1.3,9.5-1.6,15.5
			h-1.2C15.8,9.5,15.2,0,14.5,0c-0.7,0-1.3,9.5-1.6,15.5h-1.2C11.4,9.5,10.8,0,10.1,0C9.4,0,8.7,10.2,8.4,16.1h0
			c-0.2,5.2,2.8,9.5,6.7,10.3l-1.5,33.1c0,0-0.3,2.5,3,2.5c3,0,3-2.5,3-2.5l-1.5-33.2C22,25.4,25.1,21.2,24.9,16.1L24.9,16.1z"/>
		<path class="st0" d="M91.6,27.8V7.6c0-4.5-1.4-7.1-3.5-7.1C86,0.5,85,2.2,85,4.2v18.4l-1.6,36.5c0,0-0.3,2.5,3,2.5
			c3,0,3-2.5,3-2.5l-1-23.1C90,34.9,91.6,32.2,91.6,27.8z"/>
	</g>
	<path class="st0" d="M80,31c0,15.2-12.3,27.5-27.5,27.5c-15.2,0-27.5-12.3-27.5-27.5c0-15.2,12.3-27.5,27.5-27.5
		C67.6,3.5,80,15.8,80,31z"/>
	<g>
		<path class="st1" d="M52.4,53.4C40,53.4,30,43.4,30,31C30,18.6,40,8.5,52.4,8.5c12.4,0,22.4,10.1,22.4,22.5
			C74.9,43.4,64.8,53.4,52.4,53.4z M52.4,9.8c-11.7,0-21.2,9.5-21.2,21.2s9.5,21.2,21.2,21.2S73.6,42.7,73.6,31
			C73.6,19.3,64.1,9.8,52.4,9.8z"/>
	</g>
</g>
</svg>
