<?xml version="1.0" encoding="utf-8"?>
<!-- Generator: Adobe Illustrator 24.2.1, SVG Export Plug-In . SVG Version: 6.00 Build 0)  -->
<svg version="1.1" id="Layer_1" xmlns="http://www.w3.org/2000/svg" xmlns:xlink="http://www.w3.org/1999/xlink" x="0px" y="0px"
	 viewBox="0 0 58 66" style="enable-background:new 0 0 58 66;" xml:space="preserve">
<style type="text/css">
	.st0{fill:#FA8A00;}
	.st1{fill:#FFCA00;}
	.st2{fill:#FFE700;}
	.st3{fill:#FF9F00;}
	.st4{fill:#FFFFFF;}
</style>
<g>
	<g>
		<g>
			<g>
				<g>
					<g>
						<rect x="33.01" y="38.7" class="st0" width="2.76" height="3.95"/>
						<rect x="0.62" y="38.7" class="st0" width="2.76" height="3.95"/>
					</g>
					<ellipse class="st0" cx="18.19" cy="42.65" rx="17.57" ry="9.62"/>
					<ellipse class="st1" cx="18.19" cy="38.7" rx="17.57" ry="9.62"/>
					<ellipse class="st0" cx="18.19" cy="38.7" rx="14.2" ry="6.76"/>
					<ellipse class="st2" cx="18.19" cy="38.88" rx="14.2" ry="6.58"/>
					<ellipse class="st3" cx="18.19" cy="38.64" rx="14.21" ry="6.33"/>
					<path class="st1" d="M17,37.58c-2.09,1.12-2.74,1.26-3.24,1.12c-0.47-0.13-0.69-0.58,0.22-1.41c0.93-0.85,1.91-1.27,2.32-1.45
						l0.67-0.29l-1.69-1.26l-0.64,0.26c-0.88,0.36-1.68,0.81-2.43,1.37l-1.84-0.48L8.42,37.1l2.02,0.55
						c-1.09,1.51-0.67,2.81,1.19,3.34c2.39,0.67,4.88-0.47,7.12-1.75c1.89-1.06,2.64-1.07,3.13-0.95c0.76,0.2,0.78,0.9,0.01,1.72
						c-0.67,0.72-1.68,1.41-2.77,1.87l-0.83,0.35l2.05,1.57l0.67-0.28c1.05-0.44,2.21-1.22,3.09-2.05l2.22,0.6l1.63-1.94l-2.32-0.61
						c0.86-1.79-0.31-2.95-1.92-3.35C21.22,35.56,18.85,36.58,17,37.58z"/>
					<g>
						<path class="st4" d="M25.64,39.53c0.62-1.3,0.17-2.26-0.73-2.84l-2.47,2.37c-0.04,0.28-0.22,0.61-0.55,0.96
							c-0.51,0.55-1.23,1.08-2.02,1.51l-1.11,1.07l1.58,1.22l0.67-0.28c0.45-0.19,0.92-0.45,1.39-0.74l3.36-3.23L25.64,39.53z"/>
						<path class="st4" d="M17,37.58c-1.53,0.82-2.28,1.11-2.77,1.15l-2.39,2.3c2.32,0.55,4.74-0.54,6.92-1.79
							c0.66-0.37,1.17-0.61,1.59-0.76l2.54-2.44C20.7,35.79,18.64,36.7,17,37.58z"/>
						<path class="st4" d="M13.98,37.29c0.47-0.43,0.96-0.75,1.37-0.99l1.15-1.1l-1.22-0.9l-0.32,0.13l-5.09,4.89
							c0.04,0.54,0.37,1,0.96,1.33l2.54-2.44C13.39,37.98,13.56,37.68,13.98,37.29z"/>
					</g>
					<g>
						<path class="st4" d="M19.83,32l2.72-2.61c0,0,0,0,0,0c-0.71-0.1-1.41-0.17-2.12-0.22l-2.9,2.78
							C18.3,31.93,19.06,31.95,19.83,32z"/>
						<path class="st4" d="M19.67,45.42c-1.24,0.06-2.51,0.05-3.79-0.05l-2.66,2.55c0.14,0.02,0.28,0.05,0.43,0.08
							c0.52,0.08,1.03,0.13,1.55,0.18c0.5,0.05,0.99,0.08,1.49,0.1c0,0,0.01,0,0.01,0L19.67,45.42z"/>
						<path class="st4" d="M7.98,43.39c-0.54-0.26-1.03-0.55-1.46-0.85l-2.16,2.07c0,0,0,0,0,0c0.44,0.31,0.91,0.61,1.42,0.89h0
							L7.98,43.39z"/>
						<path class="st4" d="M10.99,47.47l2.5-2.4c-1.71-0.29-3.24-0.72-4.55-1.25L6.7,45.97c0,0,0,0,0,0
							C7.97,46.57,9.41,47.08,10.99,47.47z"/>
						<path class="st4" d="M27.94,33.78c0.93,0.42,1.72,0.89,2.38,1.41l2.17-2.09c-0.34-0.26-0.71-0.51-1.1-0.76c0,0,0,0,0,0
							c-0.39-0.24-0.8-0.47-1.23-0.69L27.94,33.78z"/>
						<path class="st4" d="M21.87,32.17c1.51,0.19,2.89,0.5,4.13,0.88l2.31-2.22c-1.37-0.53-2.89-0.95-4.55-1.26l-2.62,2.51
							C21.38,32.12,21.62,32.14,21.87,32.17z"/>
					</g>
				</g>
				<g>
					<g>
						<rect x="33.01" y="33.63" class="st0" width="2.76" height="3.95"/>
						<rect x="0.62" y="33.63" class="st0" width="2.76" height="3.95"/>
					</g>
					<ellipse class="st0" cx="18.19" cy="37.58" rx="17.57" ry="9.62"/>
					<ellipse class="st1" cx="18.19" cy="33.63" rx="17.57" ry="9.62"/>
					<ellipse class="st0" cx="18.19" cy="33.63" rx="14.2" ry="6.76"/>
					<ellipse class="st2" cx="18.19" cy="33.81" rx="14.2" ry="6.58"/>
					<ellipse class="st3" cx="18.19" cy="33.56" rx="14.21" ry="6.33"/>
					<path class="st1" d="M17,32.5c-2.09,1.12-2.74,1.26-3.24,1.12c-0.47-0.13-0.69-0.58,0.22-1.41c0.93-0.85,1.91-1.27,2.32-1.45
						l0.67-0.29l-1.69-1.26l-0.64,0.26c-0.88,0.36-1.68,0.81-2.43,1.37l-1.84-0.48l-1.95,1.66l2.02,0.55
						c-1.09,1.51-0.67,2.81,1.19,3.34c2.39,0.67,4.88-0.47,7.12-1.75c1.89-1.06,2.64-1.07,3.13-0.95c0.76,0.2,0.78,0.9,0.01,1.72
						c-0.67,0.72-1.68,1.41-2.77,1.87l-0.83,0.35l2.05,1.57l0.67-0.28c1.05-0.44,2.21-1.22,3.09-2.05l2.22,0.6l1.63-1.94l-2.32-0.61
						c0.86-1.79-0.31-2.95-1.92-3.35C21.22,30.48,18.85,31.51,17,32.5z"/>
					<g>
						<path class="st4" d="M25.64,34.46c0.62-1.3,0.17-2.26-0.73-2.84l-2.47,2.37c-0.04,0.28-0.22,0.61-0.55,0.96
							c-0.51,0.55-1.23,1.08-2.02,1.51l-1.11,1.07l1.58,1.22l0.67-0.28c0.45-0.19,0.92-0.45,1.39-0.74l3.36-3.23L25.64,34.46z"/>
						<path class="st4" d="M17,32.5c-1.53,0.82-2.28,1.11-2.77,1.15l-2.39,2.3c2.32,0.55,4.74-0.54,6.92-1.79
							c0.66-0.37,1.17-0.61,1.59-0.76l2.54-2.44C20.7,30.72,18.64,31.62,17,32.5z"/>
						<path class="st4" d="M13.98,32.22c0.47-0.43,0.96-0.75,1.37-0.99l1.15-1.1l-1.22-0.9l-0.32,0.13l-5.09,4.89
							c0.04,0.54,0.37,1,0.96,1.33l2.54-2.44C13.39,32.91,13.56,32.61,13.98,32.22z"/>
					</g>
					<g>
						<path class="st4" d="M19.83,26.92l2.72-2.61c0,0,0,0,0,0c-0.71-0.1-1.41-0.17-2.12-0.22l-2.9,2.78
							C18.3,26.86,19.06,26.88,19.83,26.92z"/>
						<path class="st4" d="M19.67,40.34c-1.24,0.06-2.51,0.05-3.79-0.05l-2.66,2.55c0.14,0.02,0.28,0.05,0.43,0.08
							c0.52,0.08,1.03,0.13,1.55,0.18c0.5,0.05,0.99,0.08,1.49,0.1c0,0,0.01,0,0.01,0L19.67,40.34z"/>
						<path class="st4" d="M7.98,38.31c-0.54-0.26-1.03-0.55-1.46-0.85l-2.16,2.07c0,0,0,0,0,0c0.44,0.31,0.91,0.61,1.42,0.89h0
							L7.98,38.31z"/>
						<path class="st4" d="M10.99,42.4l2.5-2.4c-1.71-0.29-3.24-0.72-4.55-1.25L6.7,40.9c0,0,0,0,0,0
							C7.97,41.5,9.41,42.01,10.99,42.4z"/>
						<path class="st4" d="M27.94,28.71c0.93,0.42,1.72,0.89,2.38,1.41l2.17-2.09c-0.34-0.26-0.71-0.51-1.1-0.76c0,0,0,0,0,0
							c-0.39-0.24-0.8-0.47-1.23-0.69L27.94,28.71z"/>
						<path class="st4" d="M21.87,27.1c1.51,0.19,2.89,0.5,4.13,0.88l2.31-2.22c-1.37-0.53-2.89-0.95-4.55-1.26l-2.62,2.51
							C21.38,27.05,21.62,27.07,21.87,27.1z"/>
					</g>
				</g>
				<g>
					<g>
						<rect x="33.01" y="28.51" class="st0" width="2.76" height="3.95"/>
						<rect x="0.62" y="28.51" class="st0" width="2.76" height="3.95"/>
					</g>
					<ellipse class="st0" cx="18.19" cy="32.46" rx="17.57" ry="9.62"/>
					<ellipse class="st1" cx="18.19" cy="28.51" rx="17.57" ry="9.62"/>
					<ellipse class="st0" cx="18.19" cy="28.51" rx="14.2" ry="6.76"/>
					<ellipse class="st2" cx="18.19" cy="28.7" rx="14.2" ry="6.58"/>
					<ellipse class="st3" cx="18.19" cy="28.45" rx="14.21" ry="6.33"/>
					<path class="st1" d="M17,27.39c-2.09,1.12-2.74,1.26-3.24,1.12c-0.47-0.13-0.69-0.58,0.22-1.41c0.93-0.85,1.91-1.27,2.32-1.45
						l0.67-0.29l-1.69-1.26l-0.64,0.26c-0.88,0.36-1.68,0.81-2.43,1.37l-1.84-0.48l-1.95,1.66l2.02,0.55
						c-1.09,1.51-0.67,2.81,1.19,3.34c2.39,0.67,4.88-0.47,7.12-1.75c1.89-1.06,2.64-1.07,3.13-0.95c0.76,0.2,0.78,0.9,0.01,1.72
						c-0.67,0.72-1.68,1.41-2.77,1.87l-0.83,0.35l2.05,1.57l0.67-0.28c1.05-0.44,2.21-1.22,3.09-2.05l2.22,0.6l1.63-1.94l-2.32-0.61
						c0.86-1.79-0.31-2.95-1.92-3.35C21.22,25.37,18.85,26.4,17,27.39z"/>
					<g>
						<path class="st4" d="M25.64,29.34c0.62-1.3,0.17-2.26-0.73-2.84l-2.47,2.37c-0.04,0.28-0.22,0.61-0.55,0.96
							c-0.51,0.55-1.23,1.08-2.02,1.51l-1.11,1.07l1.58,1.22l0.67-0.28c0.45-0.19,0.92-0.45,1.39-0.74l3.36-3.23L25.64,29.34z"/>
						<path class="st4" d="M17,27.39c-1.53,0.82-2.28,1.11-2.77,1.15l-2.39,2.3c2.32,0.55,4.74-0.54,6.92-1.79
							c0.66-0.37,1.17-0.61,1.59-0.76l2.54-2.44C20.7,25.61,18.64,26.51,17,27.39z"/>
						<path class="st4" d="M13.98,27.1c0.47-0.43,0.96-0.75,1.37-0.99l1.15-1.1l-1.22-0.9l-0.32,0.13l-5.09,4.89
							c0.04,0.54,0.37,1,0.96,1.33l2.54-2.44C13.39,27.79,13.56,27.49,13.98,27.1z"/>
					</g>
					<g>
						<path class="st4" d="M19.83,21.81l2.72-2.61c0,0,0,0,0,0c-0.71-0.1-1.41-0.17-2.12-0.22l-2.9,2.78
							C18.3,21.74,19.06,21.76,19.83,21.81z"/>
						<path class="st4" d="M19.67,35.23c-1.24,0.06-2.51,0.05-3.79-0.05l-2.66,2.55c0.14,0.02,0.28,0.05,0.43,0.08
							c0.52,0.08,1.03,0.13,1.55,0.18c0.5,0.05,0.99,0.08,1.49,0.1c0,0,0.01,0,0.01,0L19.67,35.23z"/>
						<path class="st4" d="M7.98,33.2c-0.54-0.26-1.03-0.55-1.46-0.85l-2.16,2.07c0,0,0,0,0,0c0.44,0.31,0.91,0.61,1.42,0.89h0
							L7.98,33.2z"/>
						<path class="st4" d="M10.99,37.28l2.5-2.4c-1.71-0.29-3.24-0.72-4.55-1.25L6.7,35.78c0,0,0,0,0,0
							C7.97,36.38,9.41,36.89,10.99,37.28z"/>
						<path class="st4" d="M27.94,23.59c0.93,0.42,1.72,0.89,2.38,1.41l2.17-2.09c-0.34-0.26-0.71-0.51-1.1-0.76c0,0,0,0,0,0
							c-0.39-0.24-0.8-0.47-1.23-0.69L27.94,23.59z"/>
						<path class="st4" d="M21.87,21.98c1.51,0.19,2.89,0.5,4.13,0.88l2.31-2.22c-1.37-0.53-2.89-0.95-4.55-1.26l-2.62,2.51
							C21.38,21.93,21.62,21.95,21.87,21.98z"/>
					</g>
				</g>
			</g>
			<g>
				<g>
					<g>
						<rect x="33.01" y="23.42" class="st0" width="2.76" height="3.95"/>
						<rect x="0.62" y="23.42" class="st0" width="2.76" height="3.95"/>
					</g>
					<ellipse class="st0" cx="18.19" cy="27.37" rx="17.57" ry="9.62"/>
					<ellipse class="st1" cx="18.19" cy="23.42" rx="17.57" ry="9.62"/>
					<ellipse class="st0" cx="18.19" cy="23.42" rx="14.2" ry="6.76"/>
					<ellipse class="st2" cx="18.19" cy="23.6" rx="14.2" ry="6.58"/>
					<ellipse class="st3" cx="18.19" cy="23.36" rx="14.21" ry="6.33"/>
					<path class="st1" d="M17,22.3c-2.09,1.12-2.74,1.26-3.24,1.12c-0.47-0.13-0.69-0.58,0.22-1.41c0.93-0.85,1.91-1.27,2.32-1.45
						l0.67-0.29l-1.69-1.26l-0.64,0.26c-0.88,0.36-1.68,0.81-2.43,1.37l-1.84-0.48l-1.95,1.66l2.02,0.55
						c-1.09,1.51-0.67,2.81,1.19,3.34c2.39,0.67,4.88-0.47,7.12-1.75c1.89-1.06,2.64-1.07,3.13-0.95c0.76,0.2,0.78,0.9,0.01,1.72
						c-0.67,0.72-1.68,1.41-2.77,1.87l-0.83,0.35l2.05,1.57l0.67-0.28c1.05-0.44,2.21-1.22,3.09-2.05l2.22,0.6l1.63-1.94l-2.32-0.61
						c0.86-1.79-0.31-2.95-1.92-3.35C21.22,20.28,18.85,21.3,17,22.3z"/>
					<g>
						<path class="st4" d="M25.64,24.25c0.62-1.3,0.17-2.26-0.73-2.84l-2.47,2.37c-0.04,0.28-0.22,0.61-0.55,0.96
							c-0.51,0.55-1.23,1.08-2.02,1.51l-1.11,1.07l1.58,1.22l0.67-0.28c0.45-0.19,0.92-0.45,1.39-0.74l3.36-3.23L25.64,24.25z"/>
						<path class="st4" d="M17,22.3c-1.53,0.82-2.28,1.11-2.77,1.15l-2.39,2.3c2.32,0.55,4.74-0.54,6.92-1.79
							c0.66-0.37,1.17-0.61,1.59-0.76l2.54-2.44C20.7,20.51,18.64,21.41,17,22.3z"/>
						<path class="st4" d="M13.98,22.01c0.47-0.43,0.96-0.75,1.37-0.99l1.15-1.1l-1.22-0.9l-0.32,0.13l-5.09,4.89
							c0.04,0.54,0.37,1,0.96,1.33l2.54-2.44C13.39,22.7,13.56,22.4,13.98,22.01z"/>
					</g>
					<g>
						<path class="st4" d="M19.83,16.71l2.72-2.61c0,0,0,0,0,0c-0.71-0.1-1.41-0.17-2.12-0.22l-2.9,2.78
							C18.3,16.65,19.06,16.67,19.83,16.71z"/>
						<path class="st4" d="M19.67,30.14c-1.24,0.06-2.51,0.05-3.79-0.05l-2.66,2.55c0.14,0.02,0.28,0.05,0.43,0.08
							c0.52,0.08,1.03,0.13,1.55,0.18c0.5,0.05,0.99,0.08,1.49,0.1c0,0,0.01,0,0.01,0L19.67,30.14z"/>
						<path class="st4" d="M7.98,28.11c-0.54-0.26-1.03-0.55-1.46-0.85l-2.16,2.07c0,0,0,0,0,0c0.44,0.31,0.91,0.61,1.42,0.89h0
							L7.98,28.11z"/>
						<path class="st4" d="M10.99,32.19l2.5-2.4c-1.71-0.29-3.24-0.72-4.55-1.25L6.7,30.69c0,0,0,0,0,0
							C7.97,31.29,9.41,31.8,10.99,32.19z"/>
						<path class="st4" d="M27.94,18.5c0.93,0.42,1.72,0.89,2.38,1.41l2.17-2.09c-0.34-0.26-0.71-0.51-1.1-0.76c0,0,0,0,0,0
							c-0.39-0.24-0.8-0.47-1.23-0.69L27.94,18.5z"/>
						<path class="st4" d="M21.87,16.89c1.51,0.19,2.89,0.5,4.13,0.88l2.31-2.22c-1.37-0.53-2.89-0.95-4.55-1.26l-2.62,2.51
							C21.38,16.84,21.62,16.86,21.87,16.89z"/>
					</g>
				</g>
				<g>
					<g>
						<rect x="33.01" y="18.35" class="st0" width="2.76" height="3.95"/>
						<rect x="0.62" y="18.35" class="st0" width="2.76" height="3.95"/>
					</g>
					<ellipse class="st0" cx="18.19" cy="22.3" rx="17.57" ry="9.62"/>
					<ellipse class="st1" cx="18.19" cy="18.35" rx="17.57" ry="9.62"/>
					<ellipse class="st0" cx="18.19" cy="18.35" rx="14.2" ry="6.76"/>
					<ellipse class="st2" cx="18.19" cy="18.53" rx="14.2" ry="6.58"/>
					<ellipse class="st3" cx="18.19" cy="18.28" rx="14.21" ry="6.33"/>
					<path class="st1" d="M17,17.22c-2.09,1.12-2.74,1.26-3.24,1.12c-0.47-0.13-0.69-0.58,0.22-1.41c0.93-0.85,1.91-1.27,2.32-1.45
						l0.67-0.29l-1.69-1.26l-0.64,0.26c-0.88,0.36-1.68,0.81-2.43,1.37l-1.84-0.48l-1.95,1.66l2.02,0.55
						c-1.09,1.51-0.67,2.81,1.19,3.34c2.39,0.67,4.88-0.47,7.12-1.75c1.89-1.06,2.64-1.07,3.13-0.95c0.76,0.2,0.78,0.9,0.01,1.72
						c-0.67,0.72-1.68,1.41-2.77,1.87l-0.83,0.35l2.05,1.57l0.67-0.28c1.05-0.44,2.21-1.22,3.09-2.05l2.22,0.6l1.63-1.94l-2.32-0.61
						c0.86-1.79-0.31-2.95-1.92-3.35C21.22,15.2,18.85,16.23,17,17.22z"/>
					<g>
						<path class="st4" d="M25.64,19.18c0.62-1.3,0.17-2.26-0.73-2.84l-2.47,2.37c-0.04,0.28-0.22,0.61-0.55,0.96
							c-0.51,0.55-1.23,1.08-2.02,1.51l-1.11,1.07l1.58,1.22l0.67-0.28c0.45-0.19,0.92-0.45,1.39-0.74l3.36-3.23L25.64,19.18z"/>
						<path class="st4" d="M17,17.22c-1.53,0.82-2.28,1.11-2.77,1.15l-2.39,2.3c2.32,0.55,4.74-0.54,6.92-1.79
							c0.66-0.37,1.17-0.61,1.59-0.76l2.54-2.44C20.7,15.44,18.64,16.34,17,17.22z"/>
						<path class="st4" d="M13.98,16.93c0.47-0.43,0.96-0.75,1.37-0.99l1.15-1.1l-1.22-0.9l-0.32,0.13l-5.09,4.89
							c0.04,0.54,0.37,1,0.96,1.33l2.54-2.44C13.39,17.63,13.56,17.33,13.98,16.93z"/>
					</g>
					<g>
						<path class="st4" d="M19.83,11.64l2.72-2.61c0,0,0,0,0,0c-0.71-0.1-1.41-0.17-2.12-0.22l-2.9,2.78
							C18.3,11.58,19.06,11.6,19.83,11.64z"/>
						<path class="st4" d="M19.67,25.06c-1.24,0.06-2.51,0.05-3.79-0.05l-2.66,2.55c0.14,0.02,0.28,0.05,0.43,0.08
							c0.52,0.08,1.03,0.13,1.55,0.18c0.5,0.05,0.99,0.08,1.49,0.1c0,0,0.01,0,0.01,0L19.67,25.06z"/>
						<path class="st4" d="M7.98,23.03c-0.54-0.26-1.03-0.55-1.46-0.85l-2.16,2.07c0,0,0,0,0,0c0.44,0.31,0.91,0.61,1.42,0.89h0
							L7.98,23.03z"/>
						<path class="st4" d="M10.99,27.11l2.5-2.4c-1.71-0.29-3.24-0.72-4.55-1.25L6.7,25.61c0,0,0,0,0,0
							C7.97,26.22,9.41,26.73,10.99,27.11z"/>
						<path class="st4" d="M27.94,13.43c0.93,0.42,1.72,0.89,2.38,1.41l2.17-2.09c-0.34-0.26-0.71-0.51-1.1-0.76c0,0,0,0,0,0
							c-0.39-0.24-0.8-0.47-1.23-0.69L27.94,13.43z"/>
						<path class="st4" d="M21.87,11.82c1.51,0.19,2.89,0.5,4.13,0.88l2.31-2.22c-1.37-0.53-2.89-0.95-4.55-1.26l-2.62,2.51
							C21.38,11.77,21.62,11.79,21.87,11.82z"/>
					</g>
				</g>
				<g>
					<g>
						<rect x="33.01" y="13.23" class="st0" width="2.76" height="3.95"/>
						<rect x="0.62" y="13.23" class="st0" width="2.76" height="3.95"/>
					</g>
					<ellipse class="st0" cx="18.19" cy="17.18" rx="17.57" ry="9.62"/>
					<ellipse class="st1" cx="18.19" cy="13.23" rx="17.57" ry="9.62"/>
					<ellipse class="st0" cx="18.19" cy="13.23" rx="14.2" ry="6.76"/>
					<ellipse class="st2" cx="18.19" cy="13.41" rx="14.2" ry="6.58"/>
					<ellipse class="st3" cx="18.19" cy="13.17" rx="14.21" ry="6.33"/>
					<path class="st1" d="M17,12.11c-2.09,1.12-2.74,1.26-3.24,1.12c-0.47-0.13-0.69-0.58,0.22-1.41c0.93-0.85,1.91-1.27,2.32-1.45
						l0.67-0.29l-1.69-1.26l-0.64,0.26c-0.88,0.36-1.68,0.81-2.43,1.37l-1.84-0.48l-1.95,1.66l2.02,0.55
						c-1.09,1.51-0.67,2.81,1.19,3.34c2.39,0.67,4.88-0.47,7.12-1.75c1.89-1.06,2.64-1.07,3.13-0.95c0.76,0.2,0.78,0.9,0.01,1.72
						c-0.67,0.72-1.68,1.41-2.77,1.87l-0.83,0.35l2.05,1.57l0.67-0.28c1.05-0.44,2.21-1.22,3.09-2.05l2.22,0.6l1.63-1.94l-2.32-0.61
						c0.86-1.79-0.31-2.95-1.92-3.35C21.22,10.09,18.85,11.11,17,12.11z"/>
					<g>
						<path class="st4" d="M25.64,14.06c0.62-1.3,0.17-2.26-0.73-2.84l-2.47,2.37c-0.04,0.28-0.22,0.61-0.55,0.96
							c-0.51,0.55-1.23,1.08-2.02,1.51l-1.11,1.07l1.58,1.22l0.67-0.28c0.45-0.19,0.92-0.45,1.39-0.74l3.36-3.23L25.64,14.06z"/>
						<path class="st4" d="M17,12.11c-1.53,0.82-2.28,1.11-2.77,1.15l-2.39,2.3c2.32,0.55,4.74-0.54,6.92-1.79
							c0.66-0.37,1.17-0.61,1.59-0.76l2.54-2.44C20.7,10.32,18.64,11.23,17,12.11z"/>
						<path class="st4" d="M13.98,11.82c0.47-0.43,0.96-0.75,1.37-0.99l1.15-1.1l-1.22-0.9l-0.32,0.13l-5.09,4.89
							c0.04,0.54,0.37,1,0.96,1.33l2.54-2.44C13.39,12.51,13.56,12.21,13.98,11.82z"/>
					</g>
					<g>
						<path class="st4" d="M19.83,6.53l2.72-2.61c0,0,0,0,0,0c-0.71-0.1-1.41-0.17-2.12-0.22l-2.9,2.78
							C18.3,6.46,19.06,6.48,19.83,6.53z"/>
						<path class="st4" d="M19.67,19.95c-1.24,0.06-2.51,0.05-3.79-0.05l-2.66,2.55c0.14,0.02,0.28,0.05,0.43,0.08
							c0.52,0.08,1.03,0.13,1.55,0.18c0.5,0.05,0.99,0.08,1.49,0.1c0,0,0.01,0,0.01,0L19.67,19.95z"/>
						<path class="st4" d="M7.98,17.92c-0.54-0.26-1.03-0.55-1.46-0.85l-2.16,2.07c0,0,0,0,0,0c0.44,0.31,0.91,0.61,1.42,0.89h0
							L7.98,17.92z"/>
						<path class="st4" d="M10.99,22l2.5-2.4c-1.71-0.29-3.24-0.72-4.55-1.25L6.7,20.5c0,0,0,0,0,0C7.97,21.1,9.41,21.61,10.99,22z"
							/>
						<path class="st4" d="M27.94,8.31c0.93,0.42,1.72,0.89,2.38,1.41l2.17-2.09c-0.34-0.26-0.71-0.51-1.1-0.76c0,0,0,0,0,0
							C31,6.64,30.58,6.4,30.15,6.18L27.94,8.31z"/>
						<path class="st4" d="M21.87,6.7c1.51,0.19,2.89,0.5,4.13,0.88l2.31-2.22c-1.37-0.53-2.89-0.95-4.55-1.26l-2.62,2.51
							C21.38,6.65,21.62,6.67,21.87,6.7z"/>
					</g>
				</g>
			</g>
		</g>
		<g>
			<g>
				<g>
					<rect x="54.74" y="45.29" class="st0" width="2.76" height="3.95"/>
					<rect x="22.35" y="45.29" class="st0" width="2.76" height="3.95"/>
				</g>
				<ellipse class="st0" cx="39.92" cy="49.23" rx="17.57" ry="9.62"/>
				<ellipse class="st1" cx="39.92" cy="45.29" rx="17.57" ry="9.62"/>
				<ellipse class="st0" cx="39.92" cy="45.29" rx="14.2" ry="6.76"/>
				<ellipse class="st2" cx="39.92" cy="45.47" rx="14.2" ry="6.58"/>
				<ellipse class="st3" cx="39.92" cy="45.22" rx="14.21" ry="6.33"/>
				<path class="st1" d="M38.74,44.16c-2.09,1.12-2.74,1.26-3.24,1.12c-0.47-0.13-0.69-0.58,0.22-1.41
					c0.93-0.85,1.91-1.27,2.32-1.45l0.67-0.29l-1.69-1.26l-0.64,0.26c-0.88,0.36-1.68,0.81-2.43,1.37l-1.84-0.48l-1.95,1.66
					l2.02,0.55c-1.09,1.51-0.67,2.81,1.19,3.34c2.39,0.67,4.88-0.47,7.12-1.75c1.89-1.06,2.64-1.07,3.13-0.95
					c0.76,0.2,0.78,0.9,0.01,1.72c-0.67,0.72-1.68,1.41-2.77,1.87l-0.83,0.35l2.05,1.57l0.67-0.28c1.05-0.44,2.21-1.22,3.09-2.05
					l2.22,0.6l1.63-1.94l-2.32-0.61c0.86-1.79-0.31-2.95-1.92-3.35C42.95,42.14,40.58,43.17,38.74,44.16z"/>
				<g>
					<path class="st4" d="M47.37,46.12c0.62-1.3,0.17-2.26-0.73-2.84l-2.47,2.37c-0.04,0.28-0.22,0.61-0.55,0.96
						c-0.51,0.55-1.23,1.08-2.02,1.51l-1.11,1.07l1.58,1.22l0.67-0.28c0.45-0.19,0.92-0.45,1.39-0.74l3.36-3.23L47.37,46.12z"/>
					<path class="st4" d="M38.74,44.16c-1.53,0.82-2.28,1.11-2.77,1.15l-2.39,2.3c2.32,0.55,4.74-0.54,6.92-1.79
						c0.66-0.37,1.17-0.61,1.59-0.76l2.54-2.44C42.43,42.38,40.37,43.28,38.74,44.16z"/>
					<path class="st4" d="M35.71,43.87c0.47-0.43,0.96-0.75,1.37-0.99l1.15-1.1l-1.22-0.9l-0.32,0.13L31.6,45.9
						c0.04,0.54,0.37,1,0.96,1.33l2.54-2.44C35.12,44.57,35.29,44.26,35.71,43.87z"/>
				</g>
				<g>
					<path class="st4" d="M41.57,38.58l2.72-2.61c0,0,0,0,0,0c-0.71-0.1-1.41-0.17-2.12-0.22l-2.9,2.78
						C40.03,38.52,40.8,38.54,41.57,38.58z"/>
					<path class="st4" d="M41.4,52c-1.24,0.06-2.51,0.05-3.79-0.05l-2.66,2.55c0.14,0.02,0.28,0.05,0.43,0.08
						c0.52,0.08,1.03,0.13,1.55,0.18c0.5,0.05,0.99,0.08,1.49,0.1c0,0,0.01,0,0.01,0L41.4,52z"/>
					<path class="st4" d="M29.71,49.97c-0.54-0.26-1.03-0.55-1.46-0.85l-2.16,2.07c0,0,0,0,0,0c0.44,0.31,0.91,0.61,1.42,0.89h0
						L29.71,49.97z"/>
					<path class="st4" d="M32.73,54.05l2.5-2.4c-1.71-0.29-3.24-0.72-4.55-1.25l-2.24,2.15c0,0,0,0,0,0
						C29.7,53.16,31.14,53.66,32.73,54.05z"/>
					<path class="st4" d="M49.67,40.37c0.93,0.42,1.72,0.89,2.38,1.41l2.17-2.09c-0.34-0.26-0.71-0.51-1.1-0.76c0,0,0,0,0,0
						c-0.39-0.24-0.8-0.47-1.23-0.69L49.67,40.37z"/>
					<path class="st4" d="M43.6,38.76c1.51,0.19,2.89,0.5,4.13,0.88l2.31-2.22c-1.37-0.53-2.89-0.95-4.55-1.26l-2.62,2.51
						C43.11,38.71,43.36,38.73,43.6,38.76z"/>
				</g>
			</g>
			<g>
				<g>
					<rect x="54.74" y="40.21" class="st0" width="2.76" height="3.95"/>
					<rect x="22.35" y="40.21" class="st0" width="2.76" height="3.95"/>
				</g>
				<ellipse class="st0" cx="39.92" cy="44.16" rx="17.57" ry="9.62"/>
				<ellipse class="st1" cx="39.92" cy="40.21" rx="17.57" ry="9.62"/>
				<ellipse class="st0" cx="39.92" cy="40.21" rx="14.2" ry="6.76"/>
				<ellipse class="st2" cx="39.92" cy="40.4" rx="14.2" ry="6.58"/>
				<ellipse class="st3" cx="39.92" cy="40.15" rx="14.21" ry="6.33"/>
				<path class="st1" d="M38.74,39.09c-2.09,1.12-2.74,1.26-3.24,1.12c-0.47-0.13-0.69-0.58,0.22-1.41
					c0.93-0.85,1.91-1.27,2.32-1.45l0.67-0.29l-1.69-1.26l-0.64,0.26c-0.88,0.36-1.68,0.81-2.43,1.37l-1.84-0.48l-1.95,1.66
					l2.02,0.55c-1.09,1.51-0.67,2.81,1.19,3.34c2.39,0.67,4.88-0.47,7.12-1.75c1.89-1.06,2.64-1.07,3.13-0.95
					c0.76,0.2,0.78,0.9,0.01,1.72c-0.67,0.72-1.68,1.41-2.77,1.87l-0.83,0.35l2.05,1.57l0.67-0.28c1.05-0.44,2.21-1.22,3.09-2.05
					l2.22,0.6l1.63-1.94l-2.32-0.61c0.86-1.79-0.31-2.95-1.92-3.35C42.95,37.07,40.58,38.1,38.74,39.09z"/>
				<g>
					<path class="st4" d="M47.37,41.05c0.62-1.3,0.17-2.26-0.73-2.84l-2.47,2.37c-0.04,0.28-0.22,0.61-0.55,0.96
						c-0.51,0.55-1.23,1.08-2.02,1.51l-1.11,1.07l1.58,1.22l0.67-0.28c0.45-0.19,0.92-0.45,1.39-0.74l3.36-3.23L47.37,41.05z"/>
					<path class="st4" d="M38.74,39.09c-1.53,0.82-2.28,1.11-2.77,1.15l-2.39,2.3c2.32,0.55,4.74-0.54,6.92-1.79
						c0.66-0.37,1.17-0.61,1.59-0.76l2.54-2.44C42.43,37.31,40.37,38.21,38.74,39.09z"/>
					<path class="st4" d="M35.71,38.8c0.47-0.43,0.96-0.75,1.37-0.99l1.15-1.1l-1.22-0.9l-0.32,0.13l-5.09,4.89
						c0.04,0.54,0.37,1,0.96,1.33l2.54-2.44C35.12,39.49,35.29,39.19,35.71,38.8z"/>
				</g>
				<g>
					<path class="st4" d="M41.57,33.51l2.72-2.61c0,0,0,0,0,0c-0.71-0.1-1.41-0.17-2.12-0.22l-2.9,2.78
						C40.03,33.45,40.8,33.46,41.57,33.51z"/>
					<path class="st4" d="M41.4,46.93c-1.24,0.06-2.51,0.05-3.79-0.05l-2.66,2.55c0.14,0.02,0.28,0.05,0.43,0.08
						c0.52,0.08,1.03,0.13,1.55,0.18c0.5,0.05,0.99,0.08,1.49,0.1c0,0,0.01,0,0.01,0L41.4,46.93z"/>
					<path class="st4" d="M29.71,44.9c-0.54-0.26-1.03-0.55-1.46-0.85l-2.16,2.07c0,0,0,0,0,0c0.44,0.31,0.91,0.61,1.42,0.89h0
						L29.71,44.9z"/>
					<path class="st4" d="M32.73,48.98l2.5-2.4c-1.71-0.29-3.24-0.72-4.55-1.25l-2.24,2.15c0,0,0,0,0,0
						C29.7,48.08,31.14,48.59,32.73,48.98z"/>
					<path class="st4" d="M49.67,35.3c0.93,0.42,1.72,0.89,2.38,1.41l2.17-2.09c-0.34-0.26-0.71-0.51-1.1-0.76c0,0,0,0,0,0
						c-0.39-0.24-0.8-0.47-1.23-0.69L49.67,35.3z"/>
					<path class="st4" d="M43.6,33.68c1.51,0.19,2.89,0.5,4.13,0.88l2.31-2.22c-1.37-0.53-2.89-0.95-4.55-1.26l-2.62,2.51
						C43.11,33.63,43.36,33.65,43.6,33.68z"/>
				</g>
			</g>
			<g>
				<g>
					<rect x="54.74" y="35.1" class="st0" width="2.76" height="3.95"/>
					<rect x="22.35" y="35.1" class="st0" width="2.76" height="3.95"/>
				</g>
				<ellipse class="st0" cx="39.92" cy="39.05" rx="17.57" ry="9.62"/>
				<ellipse class="st1" cx="39.92" cy="35.1" rx="17.57" ry="9.62"/>
				<ellipse class="st0" cx="39.92" cy="35.1" rx="14.2" ry="6.76"/>
				<ellipse class="st2" cx="39.92" cy="35.28" rx="14.2" ry="6.58"/>
				<ellipse class="st3" cx="39.92" cy="35.03" rx="14.21" ry="6.33"/>
				<path class="st1" d="M38.74,33.97c-2.09,1.12-2.74,1.26-3.24,1.12c-0.47-0.13-0.69-0.58,0.22-1.41
					c0.93-0.85,1.91-1.27,2.32-1.45l0.67-0.29l-1.69-1.26l-0.64,0.26c-0.88,0.36-1.68,0.81-2.43,1.37l-1.84-0.48l-1.95,1.66
					l2.02,0.55c-1.09,1.51-0.67,2.81,1.19,3.34c2.39,0.67,4.88-0.47,7.12-1.75c1.89-1.06,2.64-1.07,3.13-0.95
					c0.76,0.2,0.78,0.9,0.01,1.72c-0.67,0.72-1.68,1.41-2.77,1.87l-0.83,0.35l2.05,1.57l0.67-0.28c1.05-0.44,2.21-1.22,3.09-2.05
					l2.22,0.6l1.63-1.94l-2.32-0.61c0.86-1.79-0.31-2.95-1.92-3.35C42.95,31.95,40.58,32.98,38.74,33.97z"/>
				<g>
					<path class="st4" d="M47.37,35.93c0.62-1.3,0.17-2.26-0.73-2.84l-2.47,2.37c-0.04,0.28-0.22,0.61-0.55,0.96
						c-0.51,0.55-1.23,1.08-2.02,1.51l-1.11,1.07l1.58,1.22l0.67-0.28c0.45-0.19,0.92-0.45,1.39-0.74l3.36-3.23L47.37,35.93z"/>
					<path class="st4" d="M38.74,33.97c-1.53,0.82-2.28,1.11-2.77,1.15l-2.39,2.3c2.32,0.55,4.74-0.54,6.92-1.79
						c0.66-0.37,1.17-0.61,1.59-0.76l2.54-2.44C42.43,32.19,40.37,33.09,38.74,33.97z"/>
					<path class="st4" d="M35.71,33.68c0.47-0.43,0.96-0.75,1.37-0.99l1.15-1.1l-1.22-0.9l-0.32,0.13l-5.09,4.89
						c0.04,0.54,0.37,1,0.96,1.33l2.54-2.44C35.12,34.38,35.29,34.08,35.71,33.68z"/>
				</g>
				<g>
					<path class="st4" d="M41.57,28.39l2.72-2.61c0,0,0,0,0,0c-0.71-0.1-1.41-0.17-2.12-0.22l-2.9,2.78
						C40.03,28.33,40.8,28.35,41.57,28.39z"/>
					<path class="st4" d="M41.4,41.81c-1.24,0.06-2.51,0.05-3.79-0.05l-2.66,2.55c0.14,0.02,0.28,0.05,0.43,0.08
						c0.52,0.08,1.03,0.13,1.55,0.18c0.5,0.05,0.99,0.08,1.49,0.1c0,0,0.01,0,0.01,0L41.4,41.81z"/>
					<path class="st4" d="M29.71,39.78c-0.54-0.26-1.03-0.55-1.46-0.85l-2.16,2.07c0,0,0,0,0,0c0.44,0.31,0.91,0.61,1.42,0.89h0
						L29.71,39.78z"/>
					<path class="st4" d="M32.73,43.87l2.5-2.4c-1.71-0.29-3.24-0.72-4.55-1.25l-2.24,2.15c0,0,0,0,0,0
						C29.7,42.97,31.14,43.48,32.73,43.87z"/>
					<path class="st4" d="M49.67,30.18c0.93,0.42,1.72,0.89,2.38,1.41l2.17-2.09c-0.34-0.26-0.71-0.51-1.1-0.76c0,0,0,0,0,0
						c-0.39-0.24-0.8-0.47-1.23-0.69L49.67,30.18z"/>
					<path class="st4" d="M43.6,28.57c1.51,0.19,2.89,0.5,4.13,0.88l2.31-2.22c-1.37-0.53-2.89-0.95-4.55-1.26l-2.62,2.51
						C43.11,28.52,43.36,28.54,43.6,28.57z"/>
				</g>
			</g>
		</g>
	</g>
	<g>
		<g>
			
				<rect x="26.53" y="33.81" transform="matrix(0.7228 -0.6911 0.6911 0.7228 -16.989 29.207)" class="st0" width="2.76" height="3.95"/>
			
				<rect x="3.12" y="56.19" transform="matrix(0.7228 -0.6911 0.6911 0.7228 -38.9501 19.2315)" class="st0" width="2.76" height="3.95"/>
		</g>
		
			<ellipse transform="matrix(0.7228 -0.6911 0.6911 0.7228 -28.5775 25.5576)" class="st0" cx="17.57" cy="48.4" rx="17.57" ry="9.62"/>
		
			<ellipse transform="matrix(0.7228 -0.6911 0.6911 0.7228 -27.3617 22.8809)" class="st1" cx="14.84" cy="45.55" rx="17.57" ry="9.62"/>
		
			<ellipse transform="matrix(0.7228 -0.6911 0.6911 0.7228 -27.3617 22.8809)" class="st0" cx="14.84" cy="45.55" rx="14.2" ry="6.76"/>
		
			<ellipse transform="matrix(0.7228 -0.6911 0.6911 0.7228 -27.4193 23.0046)" class="st2" cx="14.97" cy="45.68" rx="14.2" ry="6.58"/>
		
			<ellipse transform="matrix(0.7228 -0.6911 0.6911 0.7228 -27.342 22.8376)" class="st3" cx="14.8" cy="45.5" rx="14.21" ry="6.33"/>
		<path class="st1" d="M14.94,43.92c2.29-0.62,2.85-0.96,3.13-1.4c0.26-0.41,0.11-0.89-1.12-0.88c-1.26,0.01-2.26,0.38-2.68,0.53
			l-0.69,0.25l0.37-2.08l0.64-0.25c0.88-0.34,1.77-0.56,2.7-0.67l1.01-1.61l2.56-0.13l-1.1,1.78c1.82,0.36,2.42,1.59,1.42,3.25
			c-1.28,2.13-3.87,3-6.39,3.6c-2.11,0.52-2.66,1.03-2.93,1.45c-0.42,0.67,0.05,1.19,1.17,1.27c0.99,0.07,2.19-0.13,3.3-0.53
			l0.84-0.31l-0.41,2.55L16.09,51c-1.06,0.4-2.44,0.63-3.66,0.62l-1.21,1.96l-2.52-0.3l1.28-2.03c-1.85-0.72-1.79-2.36-0.9-3.75
			C10.48,45.33,12.91,44.45,14.94,43.92z"/>
		<g>
			<path class="st4" d="M11.39,39.56l0.16-3.77c0,0,0,0,0,0c-0.58,0.42-1.14,0.85-1.68,1.31L9.7,41.12
				C10.24,40.58,10.81,40.07,11.39,39.56z"/>
			<path class="st4" d="M20.55,49.38c-0.86,0.9-1.78,1.78-2.78,2.59l-0.16,3.68c0.12-0.08,0.24-0.15,0.36-0.24
				c0.42-0.3,0.84-0.62,1.24-0.94c0.39-0.31,0.77-0.63,1.15-0.95c0,0,0,0,0.01-0.01L20.55,49.38z"/>
			<path class="st4" d="M10.7,55.99c-0.57,0.18-1.12,0.32-1.64,0.4l-0.13,2.99c0,0,0,0,0,0c0.53-0.08,1.08-0.19,1.64-0.34l0,0
				L10.7,55.99z"/>
			<path class="st4" d="M15.7,56.86l0.15-3.46c-1.44,0.98-2.84,1.72-4.16,2.24l-0.13,3.1c0,0,0,0,0,0
				C12.89,58.3,14.28,57.67,15.7,56.86z"/>
			<path class="st4" d="M18.48,35.26c0.96-0.34,1.86-0.54,2.69-0.63l0.13-3.01c-0.43,0.05-0.87,0.12-1.32,0.21c0,0,0,0-0.01,0
				c-0.45,0.09-0.9,0.21-1.37,0.35L18.48,35.26z"/>
			<path class="st4" d="M12.99,38.29c1.22-0.9,2.43-1.64,3.59-2.21l0.14-3.2c-1.35,0.56-2.75,1.31-4.16,2.24l-0.15,3.63
				C12.6,38.59,12.79,38.43,12.99,38.29z"/>
		</g>
		<g>
			<path class="st4" d="M16.34,48.51l0.84-0.31l-0.41,2.55L16.09,51c-0.08,0.03-0.17,0.05-0.25,0.08l0.11-2.45
				C16.08,48.59,16.21,48.56,16.34,48.51z"/>
			<path class="st4" d="M16.94,41.63c-0.24,0-0.45,0.03-0.66,0.05l0.1-2.09c0.3-0.06,0.6-0.13,0.92-0.16l1.01-1.61l0.02,0l-0.2,4.21
				C18.03,41.8,17.68,41.63,16.94,41.63z"/>
			<path class="st4" d="M12.06,44.96l-0.13,2.74c-0.02,0.03-0.04,0.06-0.06,0.08c-0.21,0.34-0.2,0.64,0.02,0.86l-0.2,4.18
				l-0.47,0.76l-0.54-0.06l0.37-7.99C11.38,45.31,11.72,45.13,12.06,44.96z"/>
			<path class="st4" d="M18.11,42.41l-0.14,2.9c-0.61,0.27-1.25,0.49-1.9,0.68l0.11-2.44c1.26-0.4,1.66-0.69,1.88-1.04
				C18.08,42.48,18.1,42.45,18.11,42.41z"/>
			<path class="st4" d="M9.18,50.78c-0.99-0.83-0.84-2.14-0.1-3.28c0.08-0.13,0.18-0.24,0.27-0.36L9.18,50.78z"/>
			<path class="st4" d="M20.9,39.9c0.89,0.57,1.04,1.58,0.29,2.82c-0.13,0.22-0.29,0.42-0.45,0.62L20.9,39.9z"/>
			<polygon class="st4" points="9.07,53.33 8.71,53.29 9.1,52.66 			"/>
		</g>
	</g>
</g>
</svg>
