<?xml version="1.0" encoding="utf-8"?>
<!-- Generator: Adobe Illustrator 24.2.3, SVG Export Plug-In . SVG Version: 6.00 Build 0)  -->
<svg version="1.1" id="Layer_1" xmlns="http://www.w3.org/2000/svg" xmlns:xlink="http://www.w3.org/1999/xlink" x="0px" y="0px"
	 viewBox="0 0 100 62" style="enable-background:new 0 0 100 62;" xml:space="preserve">
<style type="text/css">
	.st0{fill:#FFFFFF;}
	.st1{fill:#FCB23D;}
	.st2{fill:#FD6D00;}
	.st3{fill:#0056A7;}
</style>
<g>
	<path class="st0" d="M43.2,19c1-2.1,2.7-3.7,4.8-4.4V10h-9.3v8.2L40,19L43.2,19L43.2,19z"/>
	<path class="st1" d="M33.7,44.8c-0.2-0.2-0.3-0.3-0.4-0.5c-1.8-2-2.6-4.8-2.3-7.5c0.5-4.4,4.1-8,8.5-8.5c0.9-0.1,1.8-0.1,2.7,0.1
		v-5c0-1.6,0.4-3.1,1-4.4H40l-1.4-0.9V10h9.3v4.6c0.3-0.1,0.7-0.2,1-0.3c4.8-0.8,9.6-1.2,14.5-1.4V1.3c0-1-0.8-1.8-1.8-1.8H50.1h-9
		c-0.8,4.5-4.7,7.8-9.4,7.8S23.2,4,22.3-0.5h-9H1.8C0.8-0.5,0,0.3,0,1.3v12c0,1,0.8,1.8,1.8,1.8h10.8v29.7L33.7,44.8L33.7,44.8z"/>
	<path class="st2" d="M46.1,45.5c0,0.2,0,0.3,0,0.5c0-0.1,0-0.2,0-0.2C46.2,45.7,46.1,45.6,46.1,45.5z"/>
	<path class="st3" d="M87.3,48.8c0,0,0,0.1,0,0.1h1.5v-1.8C88.6,48,88,48.6,87.3,48.8z"/>
	<path class="st3" d="M46.1,46.7c0,0.8,0,1.5,0,2.3h1.7c0,0,0-0.1,0-0.1C46.8,48.6,46.1,47.7,46.1,46.7z"/>
	<path class="st3" d="M47.8,49h0.6C48.2,49,48,48.9,47.8,49C47.8,48.9,47.8,48.9,47.8,49z"/>
	<path class="st3" d="M86.6,49h0.7c0,0,0-0.1,0-0.1C87.1,48.9,86.8,49,86.6,49z"/>
	<path class="st1" d="M88.9,36c0-4.2,0-8.4,0-12.5c0-2.5-1.6-4.8-3.5-5.1c-11.9-1.9-24-1.9-35.8,0c-1.9,0.3-3.5,2.6-3.5,5.1
		c0,4.2,0,8.4,0,12.5h-0.2v13h43.4V36H88.9z"/>
	<path class="st0" d="M66.7,44c0-1.2-0.9-2.3-2.1-2.5c-5.2-0.8-10.5-0.8-15.7,0c-0.2,0-0.4,0.1-0.5,0.2c-0.9,0.4-1.5,1.4-1.5,2.3
		c0,0.2,0,0.4,0,0.6c0,0.1,0,0.2,0,0.2c0,0.1,0,0.2,0,0.2c0,0.2,0,0.4,0,0.6c0,1,0.7,1.8,1.5,2c0.2,0,0.4,0.1,0.6,0.1
		c5.2,0,10.4,0,15.6,0c1.2,0,2.1-1,2.1-2.1c0-0.2,0-0.4,0-0.6c0-0.1,0-0.2,0-0.2c0-0.1,0-0.2,0-0.2C66.7,44.5,66.7,44.2,66.7,44z"/>
	<path class="st0" d="M88.2,44c0-0.2,0-0.3-0.1-0.5c-0.2-0.8-0.7-1.4-1.4-1.8c-0.2-0.1-0.4-0.2-0.6-0.2c-5.2-0.8-10.5-0.8-15.7,0
		c-1.2,0.2-2.1,1.4-2.1,2.5c0,0.2,0,0.4,0,0.6c0,0.1,0,0.2,0,0.2c0,0.1,0,0.2,0,0.2c0,0.2,0,0.4,0,0.6c0,1.2,0.9,2.1,2.1,2.1
		c5.2,0,10.4,0,15.6,0c0.2,0,0.4,0,0.6-0.1c0.7-0.2,1.2-0.8,1.4-1.5c0-0.2,0.1-0.3,0.1-0.5c0-0.2,0-0.4,0-0.6c0-0.1,0-0.2,0-0.2
		c0-0.1,0-0.2,0-0.2C88.2,44.5,88.2,44.2,88.2,44z"/>
	<path class="st0" d="M100,37.3c-0.3-2.6-2.4-4.6-4.9-4.9c-2.9-0.3-5.5,1.6-6.1,4.4c-0.1,0.4-0.1,0.8-0.1,1.2c0,0.1,0,0.1,0,0.2h0
		v6.1c0,0.2,0.1,0.4,0.1,0.5c0,0.2,0,0.5,0,0.7c0,0.1,0,0.2,0,0.2c0,0.1,0,0.2,0,0.2c0,0.2,0,0.5,0,0.7c0,0.2,0,0.4-0.1,0.5V49h-1.5
		h-0.7c-5.6,0-11.2,0-16.8,0h-4.6c-5.6,0-11.2,0-16.8,0h-0.6h-1.7c0-0.8,0-1.5,0-2.3c0-0.2,0-0.5,0-0.7c0-0.2,0-0.3,0-0.5
		c0-0.2,0-0.5,0-0.7c0-2.2,0-4.4,0-6.6h0c0-0.1,0-0.1,0-0.2c0-3.3-2.9-6-6.2-5.6c-2.5,0.3-4.6,2.4-4.9,4.9c-0.4,3.4,2.2,6.2,5.4,6.3
		v10.1c0,3.2,2.6,5.8,5.7,5.8h0.1h0.1h7.8h26.7h8.1h0.1h0.1l0,0c3.1,0,5.6-2.6,5.6-5.8V43.7C97.8,43.6,100.3,40.7,100,37.3z"/>
	<path class="st1" d="M46.1,59.7L46.1,59.7c0,1.6,1.2,2.8,2.8,2.8h2.5c1.5,0,2.8-1.3,2.8-2.8v0c0-0.1-0.1-0.1-0.1-0.1h-7.8
		C46.2,59.5,46.1,59.6,46.1,59.7z"/>
	<path class="st1" d="M80.8,59.8c0,1.5,1.2,2.7,2.7,2.7h2.7c1.5,0,2.7-1.2,2.7-2.7v-0.3h-8.1L80.8,59.8L80.8,59.8z"/>
</g>
</svg>
