<?xml version="1.0" encoding="utf-8"?>
<!-- Generator: Adobe Illustrator 24.2.3, SVG Export Plug-In . SVG Version: 6.00 Build 0)  -->
<svg version="1.1" id="Layer_1" xmlns="http://www.w3.org/2000/svg" xmlns:xlink="http://www.w3.org/1999/xlink" x="0px" y="0px"
	 viewBox="0 0 100 62" style="enable-background:new 0 0 100 62;" xml:space="preserve">
<style type="text/css">
	.st0{fill:#FCB23D;}
	.st1{fill:#FFFFFF;}
</style>
<g>
	<path class="st0" d="M51.8,9.4c0-5.2-4.2-9.4-9.4-9.4c-3.8,0-7,2.3-8.5,5.5C32.5,2.3,29.2,0,25.4,0c-5.2,0-9.3,4.2-9.3,9.4
		c0,1.1,0.2,2.1,0.5,3.1c0.4,1.1,1,2.1,1.7,3c0.3,0.4,0.7,0.7,1,1l14.3,14.2c0.1,0.1,0.2,0.1,0.3,0.1c0.1,0,0.2,0,0.3-0.1L49.1,16
		l0,0c1-1,1.7-2.1,2.2-3.4C51.6,11.5,51.8,10.5,51.8,9.4z"/>
	<path class="st1" d="M90.8,35.7L90.8,35.7C84.9,35.6,81.3,32,77,29c-3.2-2.2-6.7-4.1-11.8-4.1c-2.3,0-4.2,0-5.9,0.1h-12
		c-1.8,0-3.2,1.4-3.2,3.2c0,1.8,1.4,3.2,3.2,3.2h6.8h4.5c2.3,0.4,4,2.3,4,4.7c0,1.8-1,3.3-2.5,4.2c-0.4,0.1-2.1,0.5-4.4,1.2
		c-1.5,0.4-2.9,0.7-4.2,1.1l-0.3,0.1C46.3,43.9,41,45.3,40,45.5c-0.6,0-1.2,0-1.7-0.1L20.6,33.9l-3.2-2.3v0
		c-0.2-0.1-0.3-0.2-0.5-0.3c-0.2-0.1-0.5-0.2-0.7-0.3c-0.2-0.1-0.4-0.1-0.6-0.1c-0.2,0-0.5-0.1-0.7-0.1c-0.3,0-0.6,0-0.9,0.1
		c-2.6,0.2-4.7,2.4-4.7,5.1c0,1.4,0.6,2.7,1.5,3.6l0,0l0,0c0.4,0.4,0.8,0.7,1.3,0.9l1.2,0.9L41,61.5l0,0c0.1,0,0.2,0.1,0.3,0.1
		c0.6,0.2,1.3,0.4,2,0.4c0.4,0,0.8,0,1.2-0.1l0.1,0c9.4-2.4,28.9-7.3,38-9.6c0.2-0.1,0.4-0.2,0.7-0.2c2.3-0.6,5.5-1.3,7.5-1.3v-1.3
		h0l0-1.8V36.1L90.8,35.7L90.8,35.7z"/>
</g>
</svg>
