<?xml version="1.0" encoding="utf-8"?>
<!-- Generator: Adobe Illustrator 24.2.1, SVG Export Plug-In . SVG Version: 6.00 Build 0)  -->
<svg version="1.1" id="Layer_1" xmlns="http://www.w3.org/2000/svg" xmlns:xlink="http://www.w3.org/1999/xlink" x="0px" y="0px"
	 viewBox="0 0 40 45" style="enable-background:new 0 0 40 45;" xml:space="preserve">
<style type="text/css">
	.st0{fill:#FCB23D;}
	.st1{fill:#FFFFFF;}
	.st2{clip-path:url(#SVGID_1_);fill:#FFFFFF;}
</style>
<g>
	<g>
		<path class="st0" d="M10.52,16.35c0,1.34-1.08,2.43-2.41,2.43l0,0c-1.33,0-2.41-1.09-2.41-2.43V5.41c0-1.35,1.08-2.44,2.41-2.44
			l0,0c1.33,0,2.41,1.09,2.41,2.44V16.35z"/>
		<path class="st0" d="M34.57,16.35c0,1.34-1.08,2.43-2.41,2.43l0,0c-1.33,0-2.41-1.09-2.41-2.43V5.41c0-1.35,1.08-2.44,2.41-2.44
			l0,0c1.33,0,2.41,1.09,2.41,2.44V16.35z"/>
	</g>
	<g>
		<path class="st0" d="M26.14,7.61l-2.26-0.46c0-0.02,0.43-2.3-0.7-3.68c-0.62-0.76-1.67-1.15-3.11-1.15
			c-1.44,0-2.49,0.39-3.11,1.15c-1.13,1.38-0.71,3.66-0.7,3.68L14,7.61c-0.03-0.14-0.65-3.36,1.17-5.61C16.25,0.68,17.9,0,20.07,0
			c2.17,0,3.82,0.68,4.9,2.01C26.79,4.25,26.17,7.48,26.14,7.61z"/>
		<g>
			<path class="st1" d="M7.84,37.76c0,2.18-1.76,3.96-3.92,3.96l0,0C1.75,41.72,0,39.95,0,37.76v-9.59c0-2.18,1.75-3.96,3.92-3.96
				l0,0c2.17,0,3.92,1.77,3.92,3.96V37.76z"/>
			<path class="st1" d="M40,37.76c0,2.18-1.76,3.96-3.92,3.96l0,0c-2.17,0-3.92-1.77-3.92-3.96v-9.59c0-2.18,1.76-3.96,3.92-3.96
				l0,0c2.17,0,3.92,1.77,3.92,3.96V37.76z"/>
		</g>
		<path class="st0" d="M36.14,20.75c-0.48-8.54-7.49-15.31-16.07-15.31C11.49,5.44,4.48,12.21,4,20.75
			c-0.02,0.17-0.03,0.34-0.03,0.52V40.2c0,2.65,2.13,4.8,4.75,4.8h22.69c2.62,0,4.75-2.15,4.75-4.8V21.26
			C36.17,21.09,36.16,20.92,36.14,20.75z"/>
		<path class="st1" d="M33.87,36.32c-0.41-7.33-6.43-13.14-13.8-13.14c-7.37,0-13.38,5.81-13.8,13.14
			c-0.02,0.15-0.03,0.29-0.03,0.44v5.94c0,0,0.56,0.62,2.34,0.62c1.78,0,22.04,0,22.89,0c1.33,0,2.41-0.79,2.41-0.79v-5.78
			C33.89,36.62,33.88,36.47,33.87,36.32z"/>
		<path class="st1" d="M33.87,37.99c-0.41-7.33-6.43-13.14-13.8-13.14c-7.37,0-13.38,5.82-13.8,13.14
			c-0.02,0.15-0.03,0.29-0.03,0.44v5.94c0,0,0.56,0.62,2.34,0.62c1.78,0,22.04,0,22.89,0c1.33,0,2.41-0.79,2.41-0.79v-5.77
			C33.89,38.29,33.88,38.14,33.87,37.99z"/>
	</g>
	<g>
		<defs>
			<path id="SVGID_3_" d="M36.14,20.75c-0.48-8.54-7.49-15.31-16.07-15.31C11.49,5.44,4.48,12.21,4,20.75
				c-0.02,0.17-0.03,0.34-0.03,0.52V40.2c0,2.65,2.13,4.8,4.75,4.8h22.69c2.62,0,4.75-2.15,4.75-4.8V21.26
				C36.17,21.09,36.16,20.92,36.14,20.75z"/>
		</defs>
		<clipPath id="SVGID_1_">
			<use xlink:href="#SVGID_3_"  style="overflow:visible;"/>
		</clipPath>
		<path class="st2" d="M37.12,3.59c0,9.36-7.52,14.64-16.8,14.64c-9.28,0-16.8-5.28-16.8-14.64c0-9.36,7.52-16.95,16.8-16.95
			C29.6-13.36,37.12-5.77,37.12,3.59z"/>
	</g>
	<path class="st1" d="M23.76,19.3c0,0.91-0.73,1.65-1.63,1.65h-3.09c-0.9,0-1.63-0.74-1.63-1.65v-1.8c0-0.91,0.73-1.65,1.63-1.65
		h3.09c0.9,0,1.63,0.74,1.63,1.65V19.3z"/>
</g>
</svg>
