<?xml version="1.0" encoding="utf-8"?>
<!-- Generator: Adobe Illustrator 24.2.1, SVG Export Plug-In . SVG Version: 6.00 Build 0)  -->
<svg version="1.1" id="Layer_1" xmlns="http://www.w3.org/2000/svg" xmlns:xlink="http://www.w3.org/1999/xlink" x="0px" y="0px"
	 viewBox="0 0 40 38" style="enable-background:new 0 0 40 38;" xml:space="preserve">
<style type="text/css">
	.st0{fill:#FFFFFF;}
	.st1{fill:#FCB23D;}
</style>
<g>
	<path class="st0" d="M30.55,35.54c0.41,0,0.75-0.33,0.75-0.74V18.35L20,7.16L8.71,18.35V34.8c0,0.41,0.33,0.74,0.75,0.74h4.78
		V24.63c0-0.13,0.06-0.27,0.15-0.36c0.1-0.1,0.23-0.15,0.37-0.15h10.51c0.14,0,0.27,0.05,0.36,0.15c0.1,0.09,0.15,0.23,0.15,0.36
		v10.91H30.55z"/>
	<path class="st1" d="M6.22,20.81V34.8c0,1.77,1.45,3.2,3.23,3.2h21.1c1.78,0,3.23-1.43,3.23-3.2V20.81l-2.48-2.46V34.8
		c0,0.41-0.33,0.74-0.75,0.74h-4.78v1.61c0,0.13-0.05,0.27-0.15,0.36c-0.1,0.1-0.23,0.15-0.36,0.15H14.75
		c-0.14,0-0.27-0.05-0.37-0.15c-0.1-0.1-0.15-0.23-0.15-0.36v-1.61H9.45c-0.41,0-0.75-0.33-0.75-0.74V18.35L6.22,20.81z"/>
	<path class="st1" d="M1.01,22.24l1.89,1.87l3.33-3.3l2.48-2.46L20,7.16l11.29,11.19l2.48,2.46l3.33,3.3l1.89-1.87
		c1.35-1.33,1.35-3.49,0-4.83L24.32,2.88l0-0.01L22.44,1C21.77,0.33,20.88,0,20,0c-0.88,0-1.77,0.33-2.44,1l-1.89,1.87l0.01,0.01
		L1.01,17.41C-0.34,18.74-0.34,20.91,1.01,22.24z"/>
	<path class="st1" d="M14.75,24.12c-0.14,0-0.27,0.05-0.37,0.15c-0.1,0.09-0.15,0.23-0.15,0.36v10.91v1.61
		c0,0.13,0.06,0.27,0.15,0.36c0.1,0.1,0.23,0.15,0.37,0.15h10.51c0.14,0,0.27-0.05,0.36-0.15c0.1-0.1,0.15-0.23,0.15-0.36v-1.61
		V24.63c0-0.13-0.05-0.27-0.15-0.36c-0.1-0.1-0.23-0.15-0.36-0.15H14.75z"/>
</g>
</svg>
