<?xml version="1.0" encoding="utf-8"?>
<!-- Generator: Adobe Illustrator 24.2.3, SVG Export Plug-In . SVG Version: 6.00 Build 0)  -->
<svg version="1.1" id="Layer_1" xmlns="http://www.w3.org/2000/svg" xmlns:xlink="http://www.w3.org/1999/xlink" x="0px" y="0px"
	 viewBox="0 0 100 62" style="enable-background:new 0 0 100 62;" xml:space="preserve">
<style type="text/css">
	.st0{fill:#FFFFFF;}
	.st1{fill:#FCB23D;}
</style>
<g>
	<path class="st0" d="M67.1,58c0.7,0,1.2-0.5,1.2-1.2V29.9L50,11.7L31.7,29.9v26.8c0,0.7,0.5,1.2,1.2,1.2h7.7V40.2
		c0-0.2,0.1-0.4,0.2-0.6c0.2-0.2,0.4-0.2,0.6-0.2h17c0.2,0,0.4,0.1,0.6,0.2c0.2,0.2,0.2,0.4,0.2,0.6V58C59.3,58,67.1,58,67.1,58z"/>
	<path class="st1" d="M27.7,34v22.8c0,2.9,2.3,5.2,5.2,5.2h34.1c2.9,0,5.2-2.3,5.2-5.2V34l-4-4v26.8c0,0.7-0.5,1.2-1.2,1.2h-7.7v2.6
		c0,0.2-0.1,0.4-0.2,0.6c-0.2,0.2-0.4,0.2-0.6,0.2h-17c-0.2,0-0.4-0.1-0.6-0.2c-0.2-0.2-0.2-0.4-0.2-0.6V58h-7.7
		c-0.7,0-1.2-0.5-1.2-1.2V29.9L27.7,34z"/>
	<path class="st1" d="M19.3,36.3l3,3l5.4-5.4l4-4L50,11.7l18.3,18.3l4,4l5.4,5.4l3.1-3c2.2-2.2,2.2-5.7,0-7.9L57,4.7l0,0l-3-3
		C52.9,0.5,51.4,0,50,0s-2.9,0.5-4,1.6l-3,3l0,0L19.3,28.4C17.1,30.6,17.1,34.1,19.3,36.3z"/>
	<path class="st1" d="M41.5,39.3c-0.2,0-0.4,0.1-0.6,0.2c-0.2,0.2-0.2,0.4-0.2,0.6V58v2.6c0,0.2,0.1,0.4,0.2,0.6
		c0.2,0.2,0.4,0.2,0.6,0.2h17c0.2,0,0.4-0.1,0.6-0.2c0.2-0.2,0.2-0.4,0.2-0.6V58V40.2c0-0.2-0.1-0.4-0.2-0.6
		c-0.2-0.2-0.4-0.2-0.6-0.2H41.5z"/>
</g>
</svg>
