<?xml version="1.0" encoding="utf-8"?>
<!-- Generator: Adobe Illustrator 24.2.3, SVG Export Plug-In . SVG Version: 6.00 Build 0)  -->
<svg version="1.1" id="Layer_1" xmlns="http://www.w3.org/2000/svg" xmlns:xlink="http://www.w3.org/1999/xlink" x="0px" y="0px"
	 viewBox="0 0 100 62" style="enable-background:new 0 0 100 62;" xml:space="preserve">
<style type="text/css">
	.st0{fill:#FCB23D;}
	.st1{fill:#FFFFFF;}
</style>
<g>
	<g>
		<path class="st0" d="M74.9,17.9L62,2.1c-1-1.3-3.2-2.2-4.8-2L19,3.5c-1.6,0.2-3.8,1.3-4.8,2.6L2.4,20.9c-1,1.3-1.9,3.7-1.9,5.3
			v20.9c0,1.7,1.3,3,3,3h91c1.7,0,3-1.3,3-3V30.7c0-1.6-1.2-3.4-2.8-4l-15.1-5.4C78,20.7,75.9,19.2,74.9,17.9z"/>
		<g>
			<path class="st1" d="M37.2,7.8L19.6,9.4c-0.2,0.1-0.7,0.3-0.8,0.4l-8.7,10.9h25.5L37.2,7.8z"/>
			<path class="st1" d="M38.7,20.7h30.8L57.6,6c0,0-0.1,0-0.1,0L40.2,7.6L38.7,20.7z"/>
		</g>
		<path class="st1" d="M48.5,27.7c0,0.8-0.7,1.5-1.5,1.5h-3.8c-0.8,0-1.5-0.7-1.5-1.5l0,0c0-0.8,0.7-1.5,1.5-1.5H47
			C47.8,26.2,48.5,26.8,48.5,27.7L48.5,27.7z"/>
		<path class="st1" d="M31.4,50.1C31.4,56.7,26,62,19.4,62S7.5,56.7,7.5,50.1s5.3-11.9,11.9-11.9C26,38.1,31.4,43.5,31.4,50.1z"/>
		<path class="st0" d="M26.2,50.1c0,3.7-3,6.7-6.7,6.7s-6.7-3-6.7-6.7c0-3.7,3-6.7,6.7-6.7C23.2,43.4,26.2,46.4,26.2,50.1z"/>
		<path class="st1" d="M82.5,50.1c0,6.6-5.3,11.9-11.9,11.9s-11.9-5.3-11.9-11.9S64,38.1,70.6,38.1C77.2,38.1,82.5,43.5,82.5,50.1z"
			/>
		<path class="st0" d="M77.3,50.1c0,3.7-3,6.7-6.7,6.7c-3.7,0-6.7-3-6.7-6.7c0-3.7,3-6.7,6.7-6.7C74.3,43.4,77.3,46.4,77.3,50.1z"/>
		<path class="st1" d="M69.5,37.4c-0.5,0-0.9-0.4-0.9-0.9V23.2c0-0.5,0.4-0.9,0.9-0.9c0.5,0,0.9,0.4,0.9,0.9v13.3
			C70.4,37,70,37.4,69.5,37.4z"/>
		<path class="st1" d="M37.2,47.6c-0.5,0-0.9-0.4-0.9-0.9V24.9c0-0.5,0.4-0.9,0.9-0.9s0.9,0.4,0.9,0.9v21.8
			C38.1,47.2,37.7,47.6,37.2,47.6z"/>
	</g>
	<path class="st1" d="M99.5,39.8c0,3.7-2,6.8-2,6.8s-2-3-2-6.8s2-6.8,2-6.8S99.5,36.1,99.5,39.8z"/>
</g>
</svg>
