<?xml version="1.0" encoding="utf-8"?>
<!-- Generator: Adobe Illustrator 24.2.1, SVG Export Plug-In . SVG Version: 6.00 Build 0)  -->
<svg version="1.1" id="Layer_1" xmlns="http://www.w3.org/2000/svg" xmlns:xlink="http://www.w3.org/1999/xlink" x="0px" y="0px"
	 viewBox="0 0 40 27" style="enable-background:new 0 0 40 27;" xml:space="preserve">
<style type="text/css">
	.st0{fill:#FCB23D;}
	.st1{fill:#FFFFFF;}
</style>
<g>
	<path class="st0" d="M39.91,7.34c-0.54-3.89-3.78-6.96-7.69-7.3c-2.54-0.23-4.86,0.66-6.56,2.23c-0.28,0.26-0.66,0.4-1.05,0.4
		h-9.22c-0.39,0-0.76-0.14-1.05-0.4c-1.7-1.56-4.02-2.45-6.56-2.23c-3.92,0.35-7.15,3.41-7.7,7.3c-0.32,2.3,0.29,4.45,1.49,6.15
		v7.32v1.5v0.61v1.26C1.57,25.73,2.84,27,4.4,27h1.48c1.36,0,2.52-0.97,2.78-2.3l0.6-1.78l0.21-0.61l0.51-1.5l1.42-4.19
		c0.84-0.3,1.62-0.72,2.32-1.25c0.42-0.32,0.93-0.5,1.46-0.5h9.66c0.53,0,1.03,0.18,1.45,0.5c0.7,0.53,1.48,0.95,2.32,1.25
		l1.42,4.19l0.51,1.5l0.21,0.61l0.6,1.78c0.25,1.34,1.42,2.3,2.78,2.3h1.48c1.56,0,2.83-1.27,2.83-2.83v-1.26v-0.61v-1.5v-7.32
		C39.63,11.79,40.24,9.64,39.91,7.34z M8.49,15.43c-3.82,0-6.91-3.09-6.91-6.91c0-3.82,3.09-6.91,6.91-6.91
		c3.82,0,6.91,3.09,6.91,6.91C15.4,12.33,12.3,15.43,8.49,15.43z M35.74,5.74c1.09,0,1.97,0.88,1.97,1.97
		c0,1.09-0.88,1.97-1.97,1.97c-1.09,0-1.97-0.88-1.97-1.97C33.77,6.62,34.65,5.74,35.74,5.74z M34.05,11.38
		c0,1.09-0.88,1.97-1.97,1.97c-1.09,0-1.97-0.88-1.97-1.97c0-1.09,0.88-1.97,1.97-1.97C33.16,9.41,34.05,10.29,34.05,11.38z
		 M32.08,2.08c1.09,0,1.97,0.88,1.97,1.97s-0.88,1.97-1.97,1.97c-1.09,0-1.97-0.88-1.97-1.97S30.99,2.08,32.08,2.08z M28.41,9.68
		c-1.09,0-1.97-0.88-1.97-1.97c0-1.09,0.88-1.97,1.97-1.97c1.09,0,1.97,0.88,1.97,1.97C30.38,8.8,29.5,9.68,28.41,9.68z"/>
	<path class="st1" d="M1.57,8.52c0,3.82,3.09,6.91,6.91,6.91c3.82,0,6.91-3.09,6.91-6.91c0-3.82-3.09-6.91-6.91-6.91
		C4.67,1.6,1.57,4.7,1.57,8.52z M13.31,6.94v3.16h-3.25v3.25H6.9V10.1H3.66V6.94H6.9V3.69h3.16v3.25H13.31z"/>
	<polygon class="st0" points="10.07,13.35 10.07,10.1 13.31,10.1 13.31,6.94 10.07,6.94 10.07,3.69 6.9,3.69 6.9,6.94 3.66,6.94 
		3.66,10.1 6.9,10.1 6.9,13.35 	"/>
	<path class="st1" d="M30.11,4.05c0,1.09,0.88,1.97,1.97,1.97c1.09,0,1.97-0.88,1.97-1.97c0-1.09-0.88-1.97-1.97-1.97
		C30.99,2.08,30.11,2.96,30.11,4.05z"/>
	<path class="st1" d="M30.11,11.38c0,1.09,0.88,1.97,1.97,1.97c1.09,0,1.97-0.88,1.97-1.97c0-1.09-0.88-1.97-1.97-1.97
		C30.99,9.41,30.11,10.29,30.11,11.38z"/>
	<path class="st1" d="M26.44,7.71c0,1.09,0.88,1.97,1.97,1.97c1.09,0,1.97-0.88,1.97-1.97c0-1.09-0.88-1.97-1.97-1.97
		C27.33,5.74,26.44,6.62,26.44,7.71z"/>
	<path class="st1" d="M33.77,7.71c0,1.09,0.88,1.97,1.97,1.97c1.09,0,1.97-0.88,1.97-1.97c0-1.09-0.88-1.97-1.97-1.97
		C34.65,5.74,33.77,6.62,33.77,7.71z"/>
</g>
</svg>
